<?xml version="1.0" encoding="UTF-8"?>
<svg id="Layer_2" data-name="Layer 2" xmlns="http://www.w3.org/2000/svg" viewBox="0 0 24 81.94">
  <defs>
    <style>
      .cls-1 {
        fill: #e2733b;
      }

      .cls-2 {
        fill: #ef8245;
      }

      .cls-3 {
        fill: #d86e39;
      }

      .cls-4 {
        fill: #01765a;
      }
    </style>
  </defs>
  <g id="Layer_1-2" data-name="Layer 1">
    <g>
      <rect class="cls-4" x="10.79" y="31.2" width="2.73" height="50.74"/>
      <path class="cls-3" d="M17.46,18.31c.06-.33.11-.69.14-1.1.39-4.32-5.46-14.62-5.46-14.62,0,0,0,.01,0,.02,0,0,0-.02,0-.02,0,0-5.85,10.3-5.46,14.62.04.47.1.88.17,1.25-.69,1.62-1.07,2.92-.48,3.26.67.39,2.14.85,3.57,1.25.27.26.54.56.84.91,0,0,.56-.13,1.37-.33.81.2,1.37.33,1.37.33.29-.35.57-.64.84-.91,1.43-.4,2.9-.86,3.57-1.25.6-.35.22-1.72-.46-3.41Z"/>
      <path class="cls-1" d="M2.24,0C-.06,11.49-3.94,30.81,10.78,31.2s2.29-15.75,1.36-17.35S2.24,0,2.24,0Z"/>
      <path class="cls-2" d="M21.77,0c2.3,11.49,6.17,30.81-8.55,31.2s-2.29-15.75-1.36-17.35S21.77,0,21.77,0Z"/>
    </g>
  </g>
</svg>