<svg xmlns="http://www.w3.org/2000/svg" viewBox="0 0 4094 6825" width="4094" height="6825"><defs></defs><g transform="matrix(20,0,0,20,1105.24948182,1378.590751517)">
<g>
	<path d="M-55.262474,-68.929538L 149.481224,-68.929538 L 149.481224,272.35428 L -55.262474,272.35428 L -55.262474,-68.929538 Z" fill="none"/>
</g>
<g/>
<g>
	<path d="M134.98154,190.78463C134.98154,190.78463 135.287274,157.76539 135.287274,157.76539 L 93.898574,158.223991 L 73.007539,154.64267 L 69.973496,153.733018 L 67.619067,152.473339 L 53.366131,141.971176 L 50.542421,139.329564 L 48.090031,135.974474 L 41.763042,125.03842 L 39.669059,118.961472 L 38.361485,112.28945 L 36.863272,76.916696 L 36.288392,63.343814 C36.288392,63.343814 72.09674,83.729311 72.09674,83.729311 C72.09674,83.729311 15.819842,-9.672335 15.819842,-9.672335 C15.819842,-9.672335 -40.457056,83.729311 -40.457056,83.729311 C-40.457056,83.729311 -3.12467,63.343814 -3.12467,63.343814 L -2.770439,79.654273 L -2.085855,111.175706 L -0.68779,121.713075 L 1.527444,129.555117 L 12.420904,151.577825 L 16.254953,157.560351 L 21.213189,162.722159 L 36.529541,174.849617 L 40.170122,177.26319 L 44.892421,179.374233 L 58.032859,184.086666 L 62.364124,185.438736 L 67.705687,186.407907 L 94.930425,190.478896 L 134.98154,190.78463 Z" fill="none" stroke="#000000" stroke-width="5"/>
</g></g></svg>