<svg xmlns="http://www.w3.org/2000/svg" viewBox="0 0 105 207" width="105" height="207"><defs></defs><g transform="matrix(1,0,0,1,5.625,4.921875)">
<g>
	<path d="M-5.625,-4.921875L 99.84375,-4.921875 L 99.84375,202.5 L -5.625,202.5 L -5.625,-4.921875 Z" fill="none"/>
</g>
<g/>
<g>
	<path d="M429.745328,398.166106C429.745328,398.166106 429.745328,284.70688 429.745328,284.70688 C429.745328,284.70688 403.845316,284.70688 403.845316,284.70688 C403.845316,284.70688 449.170338,211.690731 449.170338,211.690731 C449.170338,211.690731 494.495359,284.494842 494.495359,284.494842 C494.495359,284.494842 469.15839,284.70688 469.15839,284.70688 C469.15839,284.70688 469.15839,398.494023 469.15839,398.494023 C469.15839,398.494023 429.745328,398.166106 429.745328,398.166106 Z" transform="matrix(1,0,0,1,-402.342484414,-206.139356042)" fill="none" stroke="#000000" stroke-width="5"/>
</g></g></svg>