<svg xmlns="http://www.w3.org/2000/svg" viewBox="0 0 4094 6825" width="4094" height="6825"><defs></defs><g transform="matrix(20,0,0,20,1105.24948182,1378.590751517)">
<g>
	<path d="M-55.262474,-68.929538L 149.481224,-68.929538 L 149.481224,272.35428 L -55.262474,272.35428 L -55.262474,-68.929538 Z" fill="none"/>
</g>
<g/>
<g>
	<path d="M567.010984,886.342871C567.010984,886.342871 567.010984,772.883645 567.010984,772.883645 C567.010984,772.883645 529.678598,793.269142 529.678598,793.269142 C529.678598,793.269142 585.955496,699.867496 585.955496,699.867496 C585.955496,699.867496 642.232394,793.269142 642.232394,793.269142 C642.232394,793.269142 606.424046,772.883645 606.424046,772.883645 C606.424046,772.883645 606.424046,886.670788 606.424046,886.670788 C606.424046,886.670788 567.010984,886.342871 567.010984,886.342871 Z" transform="matrix(1,0,0,1,-545.799787868,-705.639550799)" fill="none" stroke="#fefefe" stroke-width="10" stroke-linejoin="round"/>
</g></g></svg>