<svg xmlns="http://www.w3.org/2000/svg" viewBox="0 0 4094 6825" width="4094" height="6825"><defs></defs><g transform="matrix(20,0,0,20,1105.24948182,1378.590751517)">
<g>
	<path d="M-55.262474,-68.929538L 149.481224,-68.929538 L 149.481224,272.35428 L -55.262474,272.35428 L -55.262474,-68.929538 Z" fill="none"/>
</g>
<g/>
<g>
	<path d="M435.746483,883.763243C435.746483,883.763243 435.746483,770.304017 435.746483,770.304017 C435.746483,770.304017 398.414096,790.689514 398.414096,790.689514 C398.414096,790.689514 454.690994,697.287868 454.690994,697.287868 C454.690994,697.287868 510.967892,790.689514 510.967892,790.689514 C510.967892,790.689514 475.159545,770.304017 475.159545,770.304017 C475.159545,770.304017 475.159545,884.09116 475.159545,884.09116 C475.159545,884.09116 435.746483,883.763243 435.746483,883.763243 Z" transform="matrix(1,0,0,1,-415.297305626,-702.895964277)" fill="none" stroke="#000000" stroke-width="10" stroke-linejoin="round"/>
</g></g></svg>