<svg xmlns="http://www.w3.org/2000/svg" viewBox="0 0 105 207" width="105" height="207"><defs></defs><g transform="matrix(1,0,0,1,5.625,4.921875)">
<g>
	<path d="M-5.625,-4.921875L 99.84375,-4.921875 L 99.84375,202.5 L -5.625,202.5 L -5.625,-4.921875 Z" fill="none"/>
</g>
<g/>
<g>
	<path d="M560.601454,399.541907C560.601454,399.541907 560.601454,286.082682 560.601454,286.082682 C560.601454,286.082682 534.701442,286.082682 534.701442,286.082682 C534.701442,286.082682 580.026463,213.066533 580.026463,213.066533 C580.026463,213.066533 625.351484,285.870644 625.351484,285.870644 C625.351484,285.870644 600.014516,286.082682 600.014516,286.082682 C600.014516,286.082682 600.014516,399.869824 600.014516,399.869824 C600.014516,399.869824 560.601454,399.541907 560.601454,399.541907 Z" transform="matrix(1,0,0,1,-533.198609679,-207.515157697)" fill="none" stroke="#fefefe" stroke-width="10" stroke-linejoin="round"/>
</g></g></svg>