<svg xmlns="http://www.w3.org/2000/svg" viewBox="0 0 4094 6825" width="4094" height="6825"><defs></defs><g transform="matrix(20,0,0,20,1105.24948182,1378.590751517)">
<g>
	<path d="M-55.262474,-68.929538L 149.481224,-68.929538 L 149.481224,272.35428 L -55.262474,272.35428 L -55.262474,-68.929538 Z" fill="none"/>
</g>
<g/>
<g>
	<path d="M219.480598,2378.846038C219.480598,2378.846038 174.155576,2306.041927 174.155576,2306.041927 C174.155576,2306.041927 199.492545,2305.829889 199.492545,2305.829889 C199.492545,2305.829889 199.492545,2135.313133 199.492545,2135.313133 C199.492545,2135.313133 173.592533,2135.313133 173.592533,2135.313133 C173.592533,2135.313133 218.917554,2062.296984 218.917554,2062.296984 C218.917554,2062.296984 264.242575,2135.101095 264.242575,2135.101095 C264.242575,2135.101095 238.905607,2135.313133 238.905607,2135.313133 C238.905607,2135.313133 238.905607,2305.829889 238.905607,2305.829889 C238.905607,2305.829889 264.805619,2305.829889 264.805619,2305.829889 C264.805619,2305.829889 219.480598,2378.846038 219.480598,2378.846038 Z" transform="matrix(1,0,0,1,-171.526656967,-2118.859139621)" fill="none" stroke="#ffffff" stroke-width="5"/>
</g></g></svg>