<?xml version="1.0" encoding="UTF-8"?>
<svg id="Layer_2" data-name="Layer 2" xmlns="http://www.w3.org/2000/svg" viewBox="0 0 37.59 49.2">
  <defs>
    <style>
      .cls-1 {
        fill: #bc1007;
      }

      .cls-2 {
        fill: #ffeaab;
      }

      .cls-3 {
        fill: #703200;
      }
    </style>
  </defs>
  <g id="Layer_1-2" data-name="Layer 1">
    <g>
      <path class="cls-1" d="M5.76,14.47c-1.07-.16-4.82,1.33-4.82.86,0-1.17-.8-5.62,6.11-8,6.92-2.37,10.72-2.33,16.89-1.87s13.81,6.22,13.15,6.14c-.93.18-1.42.13-1.42.13l-7.75,1.48-4.37,3.23-3.78-1.77-7.12,2.5-5.67-.36-1.22-2.34Z"/>
      <path class="cls-1" d="M32.8,39.07c1.07.16,3.21-1.23,4.78-1.86,0,1.17.58,7.43-6.33,9.8-6.92,2.37-10.88,2.43-17.06,1.96S.96,41.66,1.62,41.75c.93-.18,1.27.06,1.27.06l6.58-3.23,5.55-1.48,3.78,1.77,7.12-2.5,5.67.36,1.22,2.34Z"/>
      <path class="cls-2" d="M0,15.33c3.53.09,6.98.64,9.82,3.38.36.35-.59,3.01-1.16,3.64s-.34,1.44.46,3.69c.8,2.25,1.83,6.03.46,8.1-1.37,2.07-3.67,5.67-5.5,6.39s-3.21,1.26-2.06,1.26,2.18.99,2.98.18.38-1.65,1.62-1.52,1.66,1.5,2.57,1.76,3.44.78,4.52-.1.87-2.28,2.4-2.28,2.98,2.08,4.73,2.35c1.74.26,5.06-.1,5.35-1.04s.37-2.35,1.78-2.31,3.56,1.69,4.64,1.27,3.72-2.6,4.84-2.86c-1.53-.91-4.51-.16-5.51-.72s-1.04-1.47-1.2-2.15-.83-1.73-2.03-1.69-3.65.88-3.56,0-.62-1.6.04-2.31,2.57-1.69,2.74-2.35.62-4.89.12-5.7-2.4-2.22-2.11-3.55,1.62-1.99,2.69-3.03-.04-1.3.62-2.05,7.31-1.97,7.85-2.07c-.86-.45-2.51-.83-4.29-.63s-5.1.52-6.47,2.18c-1.37,1.66-2.24,1.92-2.74,1.89s-1.33-1.47-3.27-1.69-4.23-.59-5.68.39-1.91,1.99-3.52,1.99-5.48-1.59-6.81-1.4-4.32,1-4.32,1Z"/>
      <path class="cls-1" d="M5.76,14.47c-1.07-.16-4.18.33-5.76.86.55-2.13.14-5.62,7.05-8"/>
      <path class="cls-3" d="M16.75,6.69c-.28-1.39-.97-2.6-2.46-3.36s-3.19-1.68-3.27-1.84S11.63-.03,12.47,0s3.87,2.95,4.19,3.64.6,2.76.6,3.04-.52,0-.52,0Z"/>
      <path class="cls-3" d="M16.69,24.94c-.62,1.06-1.6,3.24-.45,3.29.79.04.78-.57.84-1.09.07-.63-.39-2.2-.39-2.2Z"/>
      <path class="cls-3" d="M20.08,24.56c-.07,1.16.08,3.47,1.16,3.18.75-.2.45-.76.25-1.26-.24-.6-1.42-1.92-1.42-1.92Z"/>
    </g>
  </g>
</svg>