<?xml version="1.0" encoding="UTF-8"?>
<svg id="Layer_2" data-name="Layer 2" xmlns="http://www.w3.org/2000/svg" viewBox="0 0 81.62 62.3">
  <defs>
    <style>
      .cls-1 {
        fill: #4f2604;
      }

      .cls-2 {
        fill: #daba15;
      }
    </style>
  </defs>
  <g id="Layer_1-2" data-name="Layer 1">
    <g>
      <path class="cls-2" d="M35.64,5.51c-.88,3.01-1.42,3.63-1.77,3.89s-3.18,2.48-3.98,5.75-4.24,21.35-5.6,23.19-11.02,8.07-13.58,8.39c-2.56.32-4.95,2.32-6.39,2.4-1.44.08-4.07-.8-4.31,0s7.11,4.63,14.7,3.59c7.59-1.04,7.88-2.28,8.33-1.93.12.93-2.83,3.78-3.73,4.41s-4.44,3.62-3.97,4.52,10.72-.11,14.12-2.56c3.41-2.44,5.93-8.3,7.78-8.81.74-.3.52,5.56,5.63,7.85,5.11,2.3,5.78,1.56,7.85,3.26s7.56,3.26,8.15,2.74-1.93-3.26-2.96-5.11c-1.04-1.85-4.81-5.78-5.7-7.41s-.81-3.26-.15-3.26,14,.59,18.59.22c4.59-.37,12.64-.85,12.94-1.15.55-.85-5.12-1.44-7.11-1.44s-3.42-.12-4.29-.58-5.53-3.12-8.49-3.38-4.45-.2-5.37-.72-6.45-5.63-6.5-7.32-3.02-9.57-5.83-13.3c-2.81-3.74-3.02-3.12-3.17-5.47-.15-2.35.62-5.53.62-6.19s.41-4.6.36-5.07-1.59-1.89-3.12-1.84-2.15.51-2.2,1.02-.82,4.29-.82,4.29Z"/>
      <path class="cls-1" d="M29.04,19.08c1.66.68,3.19,3.27,2.27,5.19s-1.97,3.28-2.54,2.98-1.22-1.11-1.15-1.45,1.42-6.72,1.42-6.72Z"/>
      <path class="cls-1" d="M35.64,5.51c1.24.13,1.93,0,2.44.3s1.69,1.27,2.52,1.28h.83s.36-5.06.36-5.06c0,0-1.31-2.04-2.64-2.04s-2.43.56-2.56.89-.95,4.62-.95,4.62Z"/>
      <path class="cls-1" d="M37.13,7.39c.03.61.38.61.53.44s.55-.77.18-.72-.7.28-.7.28Z"/>
      <path class="cls-1" d="M35.73,11.65c-.47.55-1.81,3.68-1.93,4.61s.06,2.13,0,2.42.41-1.66.55-2.3.93-2.42,1.08-2.98.29-1.75.29-1.75Z"/>
      <path class="cls-1" d="M41.1,19.21c-.16.4-.08,1.74.21,1.74s.46-1.02.6-1.16.23-.43.24-.71c.02-.61-.64-.64-1.05.13Z"/>
      <path class="cls-1" d="M33.61,27.46c-.35.78.43,3.15,0,4.63s-1.59,3.38-1.63,4.63-.16,4.28-.74,5.72-2.53,6.3-4.82,8.83-5.48,5.83-5.64,5.87,4.98-3.97,5.83-4.98,5.37-7.81,5.6-9.18.47-5.72.62-6.45.99-4.46.99-4.82-.21-4.24-.21-4.24Z"/>
      <path class="cls-1" d="M18.98,46.08c1.71-.77,3.98-3.81,5.23-4.15-.98.86-2.14,1.98-2.49,2.42-.51.62-2.74,1.73-2.74,1.73Z"/>
      <path class="cls-1" d="M25.19,40.87c.23-.54.54-.79.66-1.13s.6-2.34.9-2.59c-.36,1.24-.54,2.63-.78,2.87s-.78.84-.78.84Z"/>
      <path class="cls-1" d="M43.23,42.12c1.26-.34,1.38,2.28,1.73,3.08s1.25,1.28,1.25,2.5.45,2.15-.42,2.15-1.7-.83-2.28-.96-1.51-.58-1.48-1.35.16-2.28.16-2.79-.03-2.34,1.03-2.63Z"/>
      <path class="cls-1" d="M42.97,25.28c.44.68,1.46,2.33,1.74,3.89.14.75.04,1.15.23,2.66.21,1.64.19,3.37.66,4.34.89,1.87,2.01,2.69,3.64,3.78s1.42,1.03,1.67,1.33c-.2-1.33-2.62-3.11-3.47-4.13s-1.01-1.29-1.2-1.78-.89-6.74-1.17-7.52-2.09-2.58-2.09-2.58Z"/>
    </g>
  </g>
</svg>