<?xml version="1.0" encoding="UTF-8"?>
<svg id="Layer_2" data-name="Layer 2" xmlns="http://www.w3.org/2000/svg" viewBox="0 0 72.58 58.03">
  <defs>
    <style>
      .cls-1 {
        fill: #fdb3ec;
      }

      .cls-2 {
        fill: #a6a4a3;
      }
    </style>
  </defs>
  <g id="Layer_1-2" data-name="Layer 1">
    <g>
      <rect class="cls-2" x="43.95" y="5.44" width="3" height="60.08" transform="translate(-7.38 58.56) rotate(-61.58)"/>
      <path class="cls-1" d="M62.33,31.09c-1.26-4.57-4.66-5.84-5.01-8.39-.34-2.54.53-15.38-2-16.55-2.53-1.17-6.41,3.66-9.48,1.7-1.04-.66-2.17-2.37-3.39-4.33-.59,1.96-2.08,3.61-4.16,4.31-1.47.49-2.97.41-4.32-.08-.68,1.75-2.07,3.22-3.99,3.86-3.43,1.15-7.14-.69-8.29-4.11-.04-.12-.05-.25-.08-.37-2.93.24-5.75-1.51-6.73-4.42-.31-.91-.39-1.83-.3-2.72-1.6.62-2.85.48-3.74.6-1.08.15-5.66-.1-5.54,4.42.12,4.52,1.53,2.25,1.92,6.12.4,3.87-1.28,8.14-1.76,8.76C2.95,23.15-.57,25.08.08,29.95c.65,4.87,2.9,13.63,8.13,17.24,5.23,3.61,6.65,2.99,7.76,4.78,1.1,1.79,2.39,6.58,6.63,6.01,4.24-.57,10.59-4.65,13.55-5.05s11.95,2.28,15.41.74c3.46-1.54,4.26-6.82,6.67-9.74,2.41-2.91,5.36-8.26,4.1-12.84Z"/>
    </g>
  </g>
</svg>