<?xml version="1.0" encoding="UTF-8"?>
<svg id="Layer_2" data-name="Layer 2" xmlns="http://www.w3.org/2000/svg" viewBox="0 0 39.41 65.36">
  <defs>
    <style>
      .cls-1 {
        fill: #2d8a25;
      }

      .cls-2 {
        fill: #7e7e7e;
      }

      .cls-3 {
        fill: #b3b3b3;
      }

      .cls-4 {
        fill: #324d30;
      }
    </style>
  </defs>
  <g id="Layer_1-2" data-name="Layer 1">
    <g>
      <path class="cls-2" d="M36.01,0H8.03c-.55,0-1.06.13-1.52.36h0s-.02.01-.02.01c-.06.03-.12.06-.17.09L2.08,2.79c-.22.09-.42.2-.61.34h0s0,0,0,0c-.89.61-1.47,1.64-1.47,2.79v56.04c0,1.88,1.52,3.4,3.4,3.4h29.49c.13,0,.25-.01.38-.03h0s.02,0,.02,0c.53-.06,1.03-.24,1.46-.52,0,0,3-2.44,3.18-2.56l-.45.45.45-.45c.9-.61,1.48-1.64,1.48-2.81V3.4c0-1.88-1.52-3.4-3.4-3.4Z"/>
      <rect class="cls-3" x="1.16" y="4.06" width="32.29" height="60.04" rx="2.62" ry="2.62"/>
      <circle class="cls-2" cx="6.24" cy="43.56" r="2.2"/>
      <circle class="cls-2" cx="10.63" cy="47.29" r="2.2"/>
      <circle class="cls-2" cx="15.02" cy="43.56" r="2.2"/>
      <circle class="cls-2" cx="10.63" cy="40.07" r="2.2"/>
      <path class="cls-2" d="M28.14,53.62h-1.88c-.32,0-.58-.26-.58-.58v-1.74c0-.32-.26-.58-.58-.58h-1.76c-.32,0-.58.26-.58.58v1.74c0,.32-.26.58-.58.58h-1.88c-.32,0-.58.26-.58.58v2.04c0,.32.26.58.58.58h1.88c.32,0,.58.26.58.58v1.74c0,.32.26.58.58.58h1.76c.32,0,.58-.26.58-.58v-1.74c0-.32.26-.58.58-.58h1.88c.32,0,.58-.26.58-.58v-2.04c0-.32-.26-.58-.58-.58Z"/>
      <rect class="cls-4" x="1.95" y="5.23" width="30.54" height="28.86" rx="2.08" ry="2.08"/>
      <g>
        <path class="cls-1" d="M3.85,8.83c-.31,0-.56.25-.56.56v16.74c0,.31.25.56.56.56s.56-.25.56-.56V9.39c0-.31-.25-.56-.56-.56Z"/>
        <path class="cls-1" d="M11.7,6.64h-7.25c-.31,0-.56.25-.56.56s.25.56.56.56h7.25c.31,0,.56-.25.56-.56s-.25-.56-.56-.56Z"/>
      </g>
    </g>
  </g>
</svg>