<?xml version="1.0" encoding="UTF-8"?>
<svg id="Layer_2" data-name="Layer 2" xmlns="http://www.w3.org/2000/svg" viewBox="0 0 158.37 206.18">
  <defs>
    <style>
      .cls-1 {
        fill: #073a42;
        opacity: .43;
      }

      .cls-2 {
        fill: #8d8f91;
      }

      .cls-3 {
        fill: #8b8e90;
      }

      .cls-4 {
        fill: #999b9d;
      }

      .cls-5 {
        fill: #fff;
      }

      .cls-6 {
        fill: #252626;
      }

      .cls-7 {
        fill: #787a7b;
      }

      .cls-8 {
        fill: #353535;
      }
    </style>
  </defs>
  <g id="Layer_1-2" data-name="Layer 1">
    <g>
      <path class="cls-4" d="M115.33,32.2c.49-2.83-3.71-30.34-7.03-32.1s-20.57,20.38-20.87,22,27.89,10.1,27.89,10.1Z"/>
      <path class="cls-6" d="M112.29,24.72c.13-.85-.97-9.16-1.85-9.69s-5.41,6.15-5.49,6.64,7.33,3.05,7.33,3.05Z"/>
      <ellipse class="cls-1" cx="93.32" cy="196.04" rx="46.62" ry="10.15"/>
      <path class="cls-7" d="M132.26,91.93c5.47,11.08,14.88,30.65,15.24,36.55,0,0-2.78-.57-3.02-1.03s.76,1.95.61,2.77c0,0-2.62-1.31-2.92-1.59,0,0,.4,2.47.3,3.01,0,0-5.5-4.31-13.58-16.57-3.37-5.11-9.99-15.92-9.99-15.92"/>
      <path class="cls-6" d="M134.7,123.18c2.44,3.71,7.77,8.45,7.77,8.45.1-.54-.3-3.01-.3-3.01.3.28,2.92,1.59,2.92,1.59.15-.82-.85-3.22-.61-2.77s3.02,1.03,3.02,1.03c-.12-1.96-1.24-5.44-2.89-9.62l-2.64-.93-.42,1.96-1.7-.35-.86,1.71-1.76-.52-.48,1.41-1.56-.34-.5,1.38Z"/>
      <path class="cls-2" d="M52.72,157.99c-15.47,4.25-26.9,0-32.13-4.57C15.37,148.85-.63,116.84.02,107.04c.08-1.22.47-4.13,2.22-4.91,6.65-2.93,12.67-2.6,18.98.94,7.54,4.23,25.63,24.99,28.08,27.08s3.42,27.84,3.42,27.84Z"/>
      <path class="cls-4" d="M156.35,63.37s-30.42-36.44-39.17-40.45c-16.73-7.67-47.47-8.65-60.25,3.24-7.29,6.77-14.34,14.42-20.06,24.07-4.38,7.4-10.22,13.26-10.22,13.26l24.95,14.61s-6.27,39.31-6.77,73.32c-.27,18.69,9.81,34.4,17.09,44.66l21.46-17.72s13.15.35,19.69.22c5.88-1.04,26.07-.44,33.09-13.3,2.2-5.51,3.66-11.35,3.5-16.39-1.11-36.78-8.98-69.23-8.98-69.23l25.66-16.27Z"/>
      <path class="cls-8" d="M43.3,123.88s-21.83,21.29-22.71,29.54c0,0-2.71-3.1-4.38-5.92s19.8-27.57,22.51-28.47c0,0,4.58,4.85,4.58,4.85Z"/>
      <path class="cls-8" d="M31.48,111.67s-20.13,18.5-20.91,25.59c0,0-1.79-3.28-3.13-6.62-1.06-2.64,17.39-22.14,19.81-22.92,0,0,4.23,3.96,4.23,3.96Z"/>
      <path class="cls-4" d="M58.35,38.78c-1.21-2.62-2.95-28.73.18-31.32,3.13-2.59,27.42,14.15,27.68,15.77.59,3.76-25.93,17.23-27.86,15.55Z"/>
      <path class="cls-6" d="M72.93,32.31c-.44-1.05-1.46-11.39-.47-12.36s9.32,6.05,9.43,6.69c.26,1.5-8.3,6.36-8.96,5.67Z"/>
      <path class="cls-6" d="M128.45,47.89c-3.17-1.78-16.1-5.66-25.05-5.88-12.79-.31-14.8,1.83-20.12,3.58,0,0,10.12,16.69,20.75,17.8s20.91-11.78,24.42-15.49Z"/>
      <circle class="cls-5" cx="115.9" cy="50.19" r="2.53"/>
      <path class="cls-6" d="M149.06,63.08c0-1.71,1.31-3.1,2.98-3.24h0s3.07-.01,3.07-.01c1.79,0,3.25,1.45,3.25,3.25s-1.45,3.25-3.25,3.25h-3.07c-1.67-.15-2.98-1.54-2.98-3.25Z"/>
      <path class="cls-2" d="M92.07,95.53c-2.07,12.19-5.96,33.55-9.32,38.52,0,0-2.1-2.11-2.04-2.62s-.55,2.02-1.19,2.59c0,0-1.51-2.61-1.59-3.02,0,0-1.19,2.23-1.61,2.6,0,0-2.18-6.74-1.68-21.43.21-6.12,1.09-18.77,1.09-18.77"/>
      <path class="cls-4" d="M91.5,95.36c-2.03,12.19-5.84,33.57-8.99,38.57,0,0-1.92-2.08-1.85-2.6s-.53,2.02-1.12,2.6c0,0-1.36-2.6-1.44-3,0,0-1.12,2.24-1.51,2.61,0,0-1.94-6.71-1.34-21.38.25-6.12,1.19-18.76,1.19-18.76"/>
      <path class="cls-6" d="M75.18,122.15c-.18,4.44,1.37,11.4,1.37,11.4.4-.38,1.51-2.61,1.51-2.61.08.4,1.44,3,1.44,3,.6-.58,1.19-3.11,1.12-2.6s1.85,2.6,1.85,2.6c1.05-1.66,2.17-5.14,3.27-9.49l-1.59-2.3-1.48,1.35-1.18-1.28-1.7.89-1.12-1.45-1.22.87-1.07-1.19-1.21.83Z"/>
      <polygon class="cls-4" points="43.99 63.46 39.6 81.34 56.77 76.01 43.99 63.46"/>
      <path class="cls-2" d="M103.07,178.54c5.89-1.04,26.09-.44,33.11-13.32,0,0-2.18,10.5-6.68,29.23l-26.42-15.91"/>
      <path class="cls-3" d="M63.94,80.71c21.66,3.4,15.3,3.14,26.16,3.85,8.08.53,25.56-2.77,30.11-3.2,0,0-26.04,4.48-30.32,4.48s-25.94-5.14-25.94-5.14Z"/>
      <path class="cls-6" d="M69.54,189.75l-7.62,6.29c-1.49-2.1-3.82-5.58-5.43-8.11l13.05,1.83Z"/>
      <path class="cls-6" d="M119.62,188.5l9.87,5.94c.88-3.68,1.68-7.04,2.38-10.07l-12.26,4.13Z"/>
    </g>
  </g>
</svg>