<?xml version="1.0" encoding="UTF-8"?>
<svg id="Layer_2" data-name="Layer 2" xmlns="http://www.w3.org/2000/svg" viewBox="0 0 234.82 224.36">
  <defs>
    <style>
      .cls-1 {
        fill: #060606;
      }

      .cls-2 {
        fill: #7f7f7f;
      }

      .cls-3 {
        fill: #414142;
      }
    </style>
  </defs>
  <g id="Layer_1-2" data-name="Layer 1">
    <g>
      <g>
        <path class="cls-3" d="M169.17,122.88c0-8.86-11.51-17.23-11.51-17.23l-.05,31.5c-14.1-10.32-40.18-16.47-69.96-16.47-.12,0-.23,0-.35,0-.12,0-.23,0-.35,0-29.95,0-55.82,5.51-69.85,15.41l-1.86-29.38s-9.4,7.31-9.4,16.17c0,6.23-.53,20.43.09,30.45-.02.25-.03.5-.04.76-.06,3.14.41,6.14,1.35,8.99,1.54,6.42,6.47,12.37,13.93,17.42,14.75,10.46,38.77,16.36,65.78,16.36.12,0,.23,0,.34,0,.12,0,.24,0,.35,0,3.12,0,6.2-.1,9.22-.29.02,0,.03,0,.05,0,.42-.03.84-.05,1.25-.08,37.5-2.55,64.26-17.71,69.96-35.5,1.93-8.3,1.02-29.97,1.02-38.1Z"/>
        <path class="cls-1" d="M166.37,126.35c0,21.04-39.05,33.38-73.7,33.51-40.85.15-74.22-12.47-74.22-33.51s33.11-38.09,73.96-38.09,73.96,17.05,73.96,38.09Z"/>
        <path class="cls-3" d="M168.04,124.23c0,21.04-36.22,34.4-80.92,34.4S6.17,145.26,6.17,124.23s36.24-38.09,80.94-38.09,80.94,17.05,80.94,38.09Z"/>
        <ellipse class="cls-2" cx="87.1" cy="124.23" rx="46.35" ry="21.81"/>
        <ellipse class="cls-1" cx="87.1" cy="124.23" rx="27.07" ry="12.74"/>
        <path class="cls-1" d="M78.74,168.8c-.19,8.8.19,17.23.37,19.11.5-4.31-.37-19.11-.37-19.11Z"/>
        <path class="cls-1" d="M97.36,168.8c-.19,8.8.19,17.23.37,19.11.5-4.31-.37-19.11-.37-19.11Z"/>
        <path class="cls-1" d="M115.05,168.64c-.19,8.8.19,17.23.37,19.11.5-4.31-.37-19.11-.37-19.11Z"/>
        <path class="cls-1" d="M132.44,162.8c-.19,8.8.19,17.23.37,19.11.5-4.31-.37-19.11-.37-19.11Z"/>
        <path class="cls-1" d="M152.28,152.49c-.19,8.8.19,17.23.37,19.11.5-4.31-.37-19.11-.37-19.11Z"/>
        <path class="cls-1" d="M53.35,166.33c-.19,8.8.19,17.23.37,19.11.5-4.31-.37-19.11-.37-19.11Z"/>
        <path class="cls-1" d="M33.97,160.8c-.19,8.8.19,17.23.37,19.11.5-4.31-.37-19.11-.37-19.11Z"/>
        <path class="cls-1" d="M16.58,148.64c-.19,8.8.19,17.23.37,19.11.5-4.31-.37-19.11-.37-19.11Z"/>
      </g>
      <g>
        <path class="cls-3" d="M185.98,78.31c0-8.86-11.51-17.23-11.51-17.23l-.05,31.5c-14.1-10.32-40.18-16.47-69.96-16.47-.12,0-.23,0-.35,0-.12,0-.23,0-.35,0-29.95,0-55.82,5.51-69.85,15.41l-1.86-29.38s-9.4,7.31-9.4,16.17c0,6.23-.53,20.43.09,30.45-.02.25-.03.5-.04.76-.06,3.14.41,6.14,1.35,8.99,1.54,6.42,6.47,12.37,13.93,17.42,14.75,10.46,38.77,16.36,65.78,16.36.12,0,.23,0,.34,0,.12,0,.24,0,.35,0,3.12,0,6.2-.1,9.22-.29.02,0,.03,0,.05,0,.42-.03.84-.05,1.25-.08,37.5-2.55,64.26-17.71,69.96-35.5,1.93-8.3,1.02-29.97,1.02-38.1Z"/>
        <path class="cls-1" d="M183.18,81.78c0,21.04-39.05,33.38-73.7,33.51-40.85.15-74.22-12.47-74.22-33.51s33.11-38.09,73.96-38.09,73.96,17.05,73.96,38.09Z"/>
        <path class="cls-3" d="M184.85,79.65c0,21.04-36.22,34.4-80.92,34.4s-80.95-13.36-80.95-34.4,36.24-38.09,80.94-38.09,80.94,17.05,80.94,38.09Z"/>
        <ellipse class="cls-2" cx="103.91" cy="79.65" rx="46.35" ry="21.81"/>
        <ellipse class="cls-1" cx="103.91" cy="79.65" rx="27.07" ry="12.74"/>
        <path class="cls-1" d="M95.55,124.23c-.19,8.8.19,17.23.37,19.11.5-4.31-.37-19.11-.37-19.11Z"/>
        <path class="cls-1" d="M114.17,124.23c-.19,8.8.19,17.23.37,19.11.5-4.31-.37-19.11-.37-19.11Z"/>
        <path class="cls-1" d="M131.86,124.07c-.19,8.8.19,17.23.37,19.11.5-4.31-.37-19.11-.37-19.11Z"/>
        <path class="cls-1" d="M149.25,118.23c-.19,8.8.19,17.23.37,19.11.5-4.31-.37-19.11-.37-19.11Z"/>
        <path class="cls-1" d="M169.1,107.92c-.19,8.8.19,17.23.37,19.11.5-4.31-.37-19.11-.37-19.11Z"/>
        <path class="cls-1" d="M70.17,121.76c-.19,8.8.19,17.23.37,19.11.5-4.31-.37-19.11-.37-19.11Z"/>
        <path class="cls-1" d="M50.78,116.23c-.19,8.8.19,17.23.37,19.11.5-4.31-.37-19.11-.37-19.11Z"/>
        <path class="cls-1" d="M33.39,104.07c-.19,8.8.19,17.23.37,19.11.5-4.31-.37-19.11-.37-19.11Z"/>
      </g>
      <g>
        <path class="cls-3" d="M163.54,36.75c0-8.86-11.51-17.23-11.51-17.23l-.05,31.5c-14.1-10.32-40.18-16.47-69.96-16.47-.12,0-.23,0-.35,0-.12,0-.23,0-.35,0-29.95,0-55.82,5.51-69.85,15.41l-1.86-29.38S.21,27.89.21,36.75c0,6.23-.53,20.43.09,30.45-.02.25-.03.5-.04.76-.06,3.14.41,6.14,1.35,8.99,1.54,6.42,6.47,12.37,13.93,17.42,14.75,10.46,38.77,16.36,65.78,16.36.12,0,.23,0,.34,0,.12,0,.24,0,.35,0,3.12,0,6.2-.1,9.22-.29.02,0,.03,0,.05,0,.42-.03.84-.05,1.25-.08,37.5-2.55,64.26-17.71,69.96-35.5,1.93-8.3,1.02-29.97,1.02-38.1Z"/>
        <path class="cls-1" d="M160.74,40.21c0,21.04-39.05,33.38-73.7,33.51-40.85.15-74.22-12.47-74.22-33.51S45.93,2.12,86.78,2.12s73.96,17.05,73.96,38.09Z"/>
        <path class="cls-3" d="M162.41,38.09c0,21.04-36.22,34.4-80.92,34.4S.54,59.12.54,38.09,36.78,0,81.48,0s80.94,17.05,80.94,38.09Z"/>
        <ellipse class="cls-2" cx="81.48" cy="38.09" rx="46.35" ry="21.81"/>
        <ellipse class="cls-1" cx="81.48" cy="38.09" rx="27.07" ry="12.74"/>
        <path class="cls-1" d="M73.12,82.66c-.19,8.8.19,17.23.37,19.11.5-4.31-.37-19.11-.37-19.11Z"/>
        <path class="cls-1" d="M91.73,82.66c-.19,8.8.19,17.23.37,19.11.5-4.31-.37-19.11-.37-19.11Z"/>
        <path class="cls-1" d="M109.43,82.5c-.19,8.8.19,17.23.37,19.11.5-4.31-.37-19.11-.37-19.11Z"/>
        <path class="cls-1" d="M126.81,76.66c-.19,8.8.19,17.23.37,19.11.5-4.31-.37-19.11-.37-19.11Z"/>
        <path class="cls-1" d="M146.66,66.35c-.19,8.8.19,17.23.37,19.11.5-4.31-.37-19.11-.37-19.11Z"/>
        <path class="cls-1" d="M47.73,80.2c-.19,8.8.19,17.23.37,19.11.5-4.31-.37-19.11-.37-19.11Z"/>
        <path class="cls-1" d="M28.34,74.66c-.19,8.8.19,17.23.37,19.11.5-4.31-.37-19.11-.37-19.11Z"/>
        <path class="cls-1" d="M10.96,62.5c-.19,8.8.19,17.23.37,19.11.5-4.31-.37-19.11-.37-19.11Z"/>
      </g>
      <g>
        <path class="cls-3" d="M225.15,205.11c7.62-4.52,8.94-18.69,8.94-18.69l-27.11,16.04c1.68-17.39-6.35-42.96-21.55-68.56-.06-.1-.12-.2-.18-.3-.06-.1-.12-.2-.18-.3-15.29-25.75-33.23-45.18-48.91-52.19l24.31-16.6s-11.09-4.35-18.71.17c-5.36,3.18-17.84,9.97-26.14,15.63-.22.12-.45.23-.67.36-2.73,1.55-5.07,3.49-7.04,5.75-4.74,4.6-7.33,11.88-7.86,20.87-1.46,18.02,5.73,41.69,19.52,64.92.06.1.12.2.18.3.06.1.12.2.18.31,1.59,2.68,3.25,5.28,4.96,7.78,0,.01.02.03.03.04.24.35.47.69.71,1.03,21.34,30.94,48.03,46.21,66.24,42.03,8.12-2.57,26.29-14.42,33.28-18.57Z"/>
        <path class="cls-1" d="M220.74,204.47c-18.09,10.74-48.64-16.53-66.44-46.26-20.98-35.05-27.17-70.19-9.09-80.93,18.09-10.74,49.66,9.03,70.51,44.15,20.86,35.12,23.1,72.3,5.01,83.04Z"/>
        <path class="cls-3" d="M223.42,204.82c-18.09,10.74-48.07-13.58-70.89-52.02-22.82-38.43-29.84-76.43-11.75-87.17,18.09-10.74,51.25,11.71,74.07,50.15,22.82,38.43,26.66,78.3,8.57,89.04Z"/>
        <ellipse class="cls-2" cx="182.09" cy="135.23" rx="21.81" ry="46.35" transform="translate(-43.52 111.93) rotate(-30.7)"/>
        <ellipse class="cls-1" cx="182.09" cy="135.23" rx="12.74" ry="27.07" transform="translate(-43.52 111.93) rotate(-30.7)"/>
        <path class="cls-1" d="M139.5,150.8c-7.67,4.33-14.72,8.96-16.24,10.08,3.96-1.77,16.24-10.08,16.24-10.08Z"/>
        <path class="cls-1" d="M149.01,166.81c-7.67,4.33-14.72,8.96-16.24,10.08,3.96-1.77,16.24-10.08,16.24-10.08Z"/>
        <path class="cls-1" d="M158.17,181.94c-7.67,4.33-14.72,8.96-16.24,10.08,3.96-1.77,16.24-10.08,16.24-10.08Z"/>
        <path class="cls-1" d="M172.08,193.91c-7.67,4.33-14.72,8.96-16.24,10.08,3.96-1.77,16.24-10.08,16.24-10.08Z"/>
        <path class="cls-1" d="M191.07,205.71c-7.67,4.33-14.72,8.96-16.24,10.08,3.96-1.77,16.24-10.08,16.24-10.08Z"/>
        <path class="cls-1" d="M128.66,127.71c-7.67,4.33-14.72,8.96-16.24,10.08,3.96-1.77,16.24-10.08,16.24-10.08Z"/>
        <path class="cls-1" d="M123.52,108.22c-7.67,4.33-14.72,8.96-16.24,10.08,3.96-1.77,16.24-10.08,16.24-10.08Z"/>
        <path class="cls-1" d="M125.1,87.06c-7.67,4.33-14.72,8.96-16.24,10.08,3.96-1.77,16.24-10.08,16.24-10.08Z"/>
      </g>
    </g>
  </g>
</svg>