<?xml version="1.0" encoding="UTF-8"?>
<svg id="Layer_2" data-name="Layer 2" xmlns="http://www.w3.org/2000/svg" viewBox="0 0 176.35 186.46">
  <defs>
    <style>
      .cls-1 {
        fill: #060606;
      }

      .cls-2 {
        fill: #7f7f7f;
      }

      .cls-3 {
        fill: #414142;
      }
    </style>
  </defs>
  <g id="Layer_1-2" data-name="Layer 1">
    <g>
      <g>
        <path class="cls-3" d="M160.23,116.39c0-8.39-10.9-16.32-10.9-16.32l-.05,29.83c-13.35-9.78-38.06-15.6-66.26-15.6-.11,0-.22,0-.33,0-.11,0-.22,0-.33,0-28.37,0-52.87,5.22-66.16,14.6l-1.76-27.83s-8.91,6.93-8.91,15.32c0,5.9-.5,19.35.09,28.84-.01.24-.03.48-.03.72-.06,2.98.39,5.82,1.28,8.51,1.46,6.09,6.13,11.71,13.2,16.5,13.97,9.9,36.72,15.5,62.31,15.5.11,0,.22,0,.33,0,.11,0,.22,0,.34,0,2.95,0,5.87-.1,8.74-.28.02,0,.03,0,.05,0,.4-.03.79-.05,1.19-.08,35.52-2.41,60.86-16.77,66.27-33.62,1.83-7.86.97-28.39.97-36.08Z"/>
        <path class="cls-1" d="M157.58,119.67c0,19.92-36.99,31.62-69.81,31.74-38.69.14-70.3-11.81-70.3-31.74s31.36-36.08,70.05-36.08,70.05,16.15,70.05,36.08Z"/>
        <path class="cls-3" d="M159.16,117.66c0,19.92-34.31,32.58-76.65,32.58S5.84,137.59,5.84,117.66s34.32-36.08,76.66-36.08,76.66,16.15,76.66,36.08Z"/>
        <ellipse class="cls-2" cx="82.5" cy="117.66" rx="43.9" ry="20.66"/>
        <ellipse class="cls-1" cx="82.5" cy="117.66" rx="25.64" ry="12.06"/>
        <path class="cls-1" d="M74.58,159.88c-.18,8.34.18,16.32.35,18.1.47-4.08-.35-18.1-.35-18.1Z"/>
        <path class="cls-1" d="M92.21,159.88c-.18,8.34.18,16.32.35,18.1.47-4.08-.35-18.1-.35-18.1Z"/>
        <path class="cls-1" d="M108.97,159.73c-.18,8.34.18,16.32.35,18.1.47-4.08-.35-18.1-.35-18.1Z"/>
        <path class="cls-1" d="M125.44,154.2c-.18,8.34.18,16.32.35,18.1.47-4.08-.35-18.1-.35-18.1Z"/>
        <path class="cls-1" d="M144.24,144.43c-.18,8.34.18,16.32.35,18.1.47-4.08-.35-18.1-.35-18.1Z"/>
        <path class="cls-1" d="M50.54,157.55c-.18,8.34.18,16.32.35,18.1.47-4.08-.35-18.1-.35-18.1Z"/>
        <path class="cls-1" d="M32.17,152.3c-.18,8.34.18,16.32.35,18.1.47-4.08-.35-18.1-.35-18.1Z"/>
        <path class="cls-1" d="M15.71,140.79c-.18,8.34.18,16.32.35,18.1.47-4.08-.35-18.1-.35-18.1Z"/>
      </g>
      <g>
        <path class="cls-3" d="M176.15,74.18c0-8.39-10.9-16.32-10.9-16.32l-.05,29.83c-13.35-9.78-38.06-15.6-66.26-15.6-.11,0-.22,0-.33,0-.11,0-.22,0-.33,0-28.37,0-52.87,5.22-66.16,14.6l-1.76-27.83s-8.91,6.93-8.91,15.32c0,5.9-.5,19.35.09,28.84-.01.24-.03.48-.03.72-.06,2.98.39,5.82,1.28,8.51,1.46,6.09,6.13,11.71,13.2,16.5,13.97,9.9,36.72,15.5,62.31,15.5.11,0,.22,0,.33,0,.11,0,.22,0,.34,0,2.95,0,5.87-.1,8.74-.28.02,0,.03,0,.05,0,.4-.03.79-.05,1.19-.08,35.52-2.41,60.86-16.77,66.27-33.62,1.83-7.86.97-28.39.97-36.08Z"/>
        <path class="cls-1" d="M173.5,77.46c0,19.92-36.99,31.62-69.81,31.74-38.69.14-70.3-11.81-70.3-31.74s31.36-36.08,70.05-36.08,70.05,16.15,70.05,36.08Z"/>
        <path class="cls-3" d="M175.08,75.45c0,19.92-34.31,32.58-76.65,32.58s-76.67-12.66-76.67-32.58,34.32-36.08,76.66-36.08,76.66,16.15,76.66,36.08Z"/>
        <ellipse class="cls-2" cx="98.42" cy="75.45" rx="43.9" ry="20.66"/>
        <ellipse class="cls-1" cx="98.42" cy="75.45" rx="25.64" ry="12.06"/>
        <path class="cls-1" d="M90.5,117.66c-.18,8.34.18,16.32.35,18.1.47-4.08-.35-18.1-.35-18.1Z"/>
        <path class="cls-1" d="M108.14,117.66c-.18,8.34.18,16.32.35,18.1.47-4.08-.35-18.1-.35-18.1Z"/>
        <path class="cls-1" d="M124.9,117.52c-.18,8.34.18,16.32.35,18.1.47-4.08-.35-18.1-.35-18.1Z"/>
        <path class="cls-1" d="M141.36,111.98c-.18,8.34.18,16.32.35,18.1.47-4.08-.35-18.1-.35-18.1Z"/>
        <path class="cls-1" d="M160.16,102.22c-.18,8.34.18,16.32.35,18.1.47-4.08-.35-18.1-.35-18.1Z"/>
        <path class="cls-1" d="M66.46,115.33c-.18,8.34.18,16.32.35,18.1.47-4.08-.35-18.1-.35-18.1Z"/>
        <path class="cls-1" d="M48.1,110.08c-.18,8.34.18,16.32.35,18.1.47-4.08-.35-18.1-.35-18.1Z"/>
        <path class="cls-1" d="M31.63,98.57c-.18,8.34.18,16.32.35,18.1.47-4.08-.35-18.1-.35-18.1Z"/>
      </g>
      <g>
        <path class="cls-3" d="M154.9,34.81c0-8.39-10.9-16.32-10.9-16.32l-.05,29.83c-13.35-9.78-38.06-15.6-66.26-15.6-.11,0-.22,0-.33,0-.11,0-.22,0-.33,0-28.37,0-52.87,5.22-66.16,14.6l-1.76-27.83S.2,26.41.2,34.81c0,5.9-.5,19.35.09,28.84-.01.24-.03.48-.03.72-.06,2.98.39,5.82,1.28,8.51,1.46,6.09,6.13,11.71,13.2,16.5,13.97,9.9,36.72,15.5,62.31,15.5.11,0,.22,0,.33,0,.11,0,.22,0,.34,0,2.95,0,5.87-.1,8.74-.28.02,0,.03,0,.05,0,.4-.03.79-.05,1.19-.08,35.52-2.41,60.86-16.77,66.27-33.62,1.83-7.86.97-28.39.97-36.08Z"/>
        <path class="cls-1" d="M152.25,38.08c0,19.92-36.99,31.62-69.81,31.74-38.69.14-70.3-11.81-70.3-31.74S43.51,2.01,82.2,2.01s70.05,16.15,70.05,36.08Z"/>
        <path class="cls-3" d="M153.83,36.08c0,19.92-34.31,32.58-76.65,32.58S.51,56,.51,36.08,34.83,0,77.17,0s76.66,16.15,76.66,36.08Z"/>
        <ellipse class="cls-2" cx="77.17" cy="36.08" rx="43.9" ry="20.66"/>
        <ellipse class="cls-1" cx="77.17" cy="36.08" rx="25.64" ry="12.06"/>
        <path class="cls-1" d="M69.25,78.29c-.18,8.34.18,16.32.35,18.1.47-4.08-.35-18.1-.35-18.1Z"/>
        <path class="cls-1" d="M86.89,78.29c-.18,8.34.18,16.32.35,18.1.47-4.08-.35-18.1-.35-18.1Z"/>
        <path class="cls-1" d="M103.64,78.15c-.18,8.34.18,16.32.35,18.1.47-4.08-.35-18.1-.35-18.1Z"/>
        <path class="cls-1" d="M120.11,72.61c-.18,8.34.18,16.32.35,18.1.47-4.08-.35-18.1-.35-18.1Z"/>
        <path class="cls-1" d="M138.91,62.84c-.18,8.34.18,16.32.35,18.1.47-4.08-.35-18.1-.35-18.1Z"/>
        <path class="cls-1" d="M45.21,75.96c-.18,8.34.18,16.32.35,18.1.47-4.08-.35-18.1-.35-18.1Z"/>
        <path class="cls-1" d="M26.85,70.71c-.18,8.34.18,16.32.35,18.1.47-4.08-.35-18.1-.35-18.1Z"/>
        <path class="cls-1" d="M10.38,59.2c-.18,8.34.18,16.32.35,18.1.47-4.08-.35-18.1-.35-18.1Z"/>
      </g>
    </g>
  </g>
</svg>