<?xml version="1.0" encoding="UTF-8"?>
<svg id="Layer_2" data-name="Layer 2" xmlns="http://www.w3.org/2000/svg" viewBox="0 0 243.72 180.44">
  <defs>
    <style>
      .cls-1 {
        fill: #060606;
      }

      .cls-2 {
        fill: #7f7f7f;
      }

      .cls-3 {
        fill: #414142;
      }
    </style>
  </defs>
  <g id="Layer_1-2" data-name="Layer 1">
    <g>
      <g>
        <path class="cls-3" d="M163.54,36.75c0-8.86-11.51-17.23-11.51-17.23l-.05,31.5c-14.1-10.32-40.18-16.47-69.96-16.47-.12,0-.23,0-.35,0-.12,0-.23,0-.35,0-29.95,0-55.82,5.51-69.85,15.41l-1.86-29.38S.21,27.89.21,36.75c0,6.23-.53,20.43.09,30.45-.02.25-.03.5-.04.76-.06,3.14.41,6.14,1.35,8.99,1.54,6.42,6.47,12.37,13.93,17.42,14.75,10.46,38.77,16.36,65.78,16.36.12,0,.23,0,.34,0,.12,0,.24,0,.35,0,3.12,0,6.2-.1,9.22-.29.02,0,.03,0,.05,0,.42-.03.84-.05,1.25-.08,37.5-2.55,64.26-17.71,69.96-35.5,1.93-8.3,1.02-29.97,1.02-38.1Z"/>
        <path class="cls-1" d="M160.74,40.21c0,21.04-39.05,33.38-73.7,33.51-40.85.15-74.22-12.47-74.22-33.51S45.93,2.12,86.78,2.12s73.96,17.05,73.96,38.09Z"/>
        <path class="cls-3" d="M162.41,38.09c0,21.04-36.22,34.4-80.92,34.4S.54,59.12.54,38.09,36.78,0,81.48,0s80.94,17.05,80.94,38.09Z"/>
        <ellipse class="cls-2" cx="81.48" cy="38.09" rx="46.35" ry="21.81"/>
        <ellipse class="cls-1" cx="81.48" cy="38.09" rx="27.07" ry="12.74"/>
        <path class="cls-1" d="M73.12,82.66c-.19,8.8.19,17.23.37,19.11.5-4.31-.37-19.11-.37-19.11Z"/>
        <path class="cls-1" d="M91.73,82.66c-.19,8.8.19,17.23.37,19.11.5-4.31-.37-19.11-.37-19.11Z"/>
        <path class="cls-1" d="M109.43,82.5c-.19,8.8.19,17.23.37,19.11.5-4.31-.37-19.11-.37-19.11Z"/>
        <path class="cls-1" d="M126.81,76.66c-.19,8.8.19,17.23.37,19.11.5-4.31-.37-19.11-.37-19.11Z"/>
        <path class="cls-1" d="M146.66,66.35c-.19,8.8.19,17.23.37,19.11.5-4.31-.37-19.11-.37-19.11Z"/>
        <path class="cls-1" d="M47.73,80.2c-.19,8.8.19,17.23.37,19.11.5-4.31-.37-19.11-.37-19.11Z"/>
        <path class="cls-1" d="M28.34,74.66c-.19,8.8.19,17.23.37,19.11.5-4.31-.37-19.11-.37-19.11Z"/>
        <path class="cls-1" d="M10.96,62.5c-.19,8.8.19,17.23.37,19.11.5-4.31-.37-19.11-.37-19.11Z"/>
      </g>
      <g>
        <path class="cls-3" d="M243.51,106.46c0-8.86-11.51-17.23-11.51-17.23l-.05,31.5c-14.1-10.32-40.18-16.47-69.96-16.47-.12,0-.23,0-.35,0-.12,0-.23,0-.35,0-29.95,0-55.82,5.51-69.85,15.41l-1.86-29.38s-9.4,7.31-9.4,16.17c0,6.23-.53,20.43.09,30.45-.02.25-.03.5-.04.76-.06,3.14.41,6.14,1.35,8.99,1.54,6.42,6.47,12.37,13.93,17.42,14.75,10.46,38.77,16.36,65.78,16.36.12,0,.23,0,.34,0,.12,0,.24,0,.35,0,3.12,0,6.2-.1,9.22-.29.02,0,.03,0,.05,0,.42-.03.84-.05,1.25-.08,37.5-2.55,64.26-17.71,69.96-35.5,1.93-8.3,1.02-29.97,1.02-38.1Z"/>
        <path class="cls-1" d="M240.71,109.92c0,21.04-39.05,33.38-73.7,33.51-40.85.15-74.22-12.47-74.22-33.51s33.11-38.09,73.96-38.09,73.96,17.05,73.96,38.09Z"/>
        <path class="cls-3" d="M242.38,107.8c0,21.04-36.22,34.4-80.92,34.4s-80.95-13.36-80.95-34.4,36.24-38.09,80.94-38.09,80.94,17.05,80.94,38.09Z"/>
        <ellipse class="cls-2" cx="161.44" cy="107.8" rx="46.35" ry="21.81"/>
        <ellipse class="cls-1" cx="161.44" cy="107.8" rx="27.07" ry="12.74"/>
        <path class="cls-1" d="M153.08,152.37c-.19,8.8.19,17.23.37,19.11.5-4.31-.37-19.11-.37-19.11Z"/>
        <path class="cls-1" d="M171.7,152.37c-.19,8.8.19,17.23.37,19.11.5-4.31-.37-19.11-.37-19.11Z"/>
        <path class="cls-1" d="M189.39,152.22c-.19,8.8.19,17.23.37,19.11.5-4.31-.37-19.11-.37-19.11Z"/>
        <path class="cls-1" d="M206.78,146.37c-.19,8.8.19,17.23.37,19.11.5-4.31-.37-19.11-.37-19.11Z"/>
        <path class="cls-1" d="M226.63,136.06c-.19,8.8.19,17.23.37,19.11.5-4.31-.37-19.11-.37-19.11Z"/>
        <path class="cls-1" d="M127.7,149.91c-.19,8.8.19,17.23.37,19.11.5-4.31-.37-19.11-.37-19.11Z"/>
        <path class="cls-1" d="M108.31,144.37c-.19,8.8.19,17.23.37,19.11.5-4.31-.37-19.11-.37-19.11Z"/>
        <path class="cls-1" d="M90.92,132.22c-.19,8.8.19,17.23.37,19.11.5-4.31-.37-19.11-.37-19.11Z"/>
      </g>
    </g>
  </g>
</svg>