<?xml version="1.0" encoding="UTF-8"?>
<svg id="Layer_2" data-name="Layer 2" xmlns="http://www.w3.org/2000/svg" viewBox="0 0 164.91 111.5">
  <defs>
    <style>
      .cls-1 {
        fill: #060606;
      }

      .cls-2 {
        fill: #7f7f7f;
      }

      .cls-3 {
        fill: #414142;
      }
    </style>
  </defs>
  <g id="Layer_1-2" data-name="Layer 1">
    <g>
      <path class="cls-3" d="M164.7,37.01c0-8.92-11.59-17.35-11.59-17.35l-.05,31.72c-14.2-10.4-40.46-16.59-70.45-16.59-.12,0-.23,0-.35,0-.12,0-.23,0-.35,0-30.17,0-56.21,5.54-70.34,15.52l-1.88-29.59S.21,28.09.21,37.01c0,6.28-.53,20.57.09,30.67-.02.25-.03.51-.04.76-.06,3.17.41,6.18,1.36,9.05,1.55,6.47,6.51,12.45,14.03,17.54,14.86,10.53,39.05,16.48,66.25,16.48.12,0,.23,0,.35,0,.12,0,.24,0,.36,0,3.14,0,6.24-.1,9.29-.29.02,0,.03,0,.05,0,.42-.03.84-.05,1.26-.08,37.77-2.57,64.71-17.83,70.46-35.75,1.95-8.35,1.03-30.18,1.03-38.37Z"/>
      <path class="cls-1" d="M161.88,40.49c0,21.18-39.33,33.62-74.22,33.74-41.14.15-74.75-12.56-74.75-33.74S46.26,2.14,87.4,2.14s74.49,17.17,74.49,38.36Z"/>
      <path class="cls-3" d="M163.56,38.36c0,21.18-36.48,34.64-81.49,34.64S.55,59.54.55,38.36,37.04,0,82.05,0s81.51,17.17,81.51,38.36Z"/>
      <ellipse class="cls-2" cx="82.05" cy="38.36" rx="46.68" ry="21.97"/>
      <ellipse class="cls-1" cx="82.05" cy="38.36" rx="27.26" ry="12.83"/>
      <path class="cls-1" d="M73.63,83.24c-.19,8.87.19,17.35.38,19.24.5-4.34-.38-19.24-.38-19.24Z"/>
      <path class="cls-1" d="M92.38,83.24c-.19,8.87.19,17.35.38,19.24.5-4.34-.38-19.24-.38-19.24Z"/>
      <path class="cls-1" d="M110.2,83.09c-.19,8.87.19,17.35.38,19.24.5-4.34-.38-19.24-.38-19.24Z"/>
      <path class="cls-1" d="M127.71,77.2c-.19,8.87.19,17.35.38,19.24.5-4.34-.38-19.24-.38-19.24Z"/>
      <path class="cls-1" d="M147.7,66.82c-.19,8.87.19,17.35.38,19.24.5-4.34-.38-19.24-.38-19.24Z"/>
      <path class="cls-1" d="M48.07,80.76c-.19,8.87.19,17.35.38,19.24.5-4.34-.38-19.24-.38-19.24Z"/>
      <path class="cls-1" d="M28.54,75.19c-.19,8.87.19,17.35.38,19.24.5-4.34-.38-19.24-.38-19.24Z"/>
      <path class="cls-1" d="M11.04,62.95c-.19,8.87.19,17.35.38,19.24.5-4.34-.38-19.24-.38-19.24Z"/>
    </g>
  </g>
</svg>