<?xml version="1.0" encoding="UTF-8"?>
<svg id="Layer_2" data-name="Layer 2" xmlns="http://www.w3.org/2000/svg" viewBox="0 0 107.12 97.31">
  <defs>
    <style>
      .cls-1 {
        fill: #6693a1;
      }

      .cls-2 {
        fill: #848484;
      }

      .cls-3 {
        fill: #2a3e43;
      }

      .cls-4 {
        fill: #8bb7c4;
      }

      .cls-5 {
        fill: #27272b;
      }
    </style>
  </defs>
  <g id="Layer_1-2" data-name="Layer 1">
    <g>
      <rect class="cls-2" x="56.44" y="89.66" width="4.58" height="1.62" rx=".31" ry=".31" transform="translate(-23.41 20.57) rotate(-16.61)"/>
      <rect class="cls-2" x="57.49" y="93.75" width="4.58" height="1.62" rx=".31" ry=".31" transform="translate(-24.54 21.04) rotate(-16.61)"/>
      <path class="cls-5" d="M99.15,92.8c-1.11,0-2.35-.05-3.71-.16-7.52-.6-12.87-1.12-16.77-1.49-7.61-.74-9.66-.94-11.81-.18l-.78-2.24c2.64-.93,4.8-.72,12.82.06,3.89.38,9.23.89,16.73,1.49,8.34.66,9.04-.98,9.1-1.17.22-.79-.92-2.82-4.85-5.96-3.17-2.53-7.07-4.91-9.35-6.05-1.69-.84-3.36-1.38-4.84-1.86-2.55-.82-4.75-1.53-5.48-3.48-.59-1.58-.04-3.6,1.76-6.57,1.7-2.79,4.14-5.47,6.5-8.06,4.82-5.3,9.38-10.31,8.07-15.99-.28-1.22-.7-1.94-1.24-2.14-1.58-.59-5.21,2.04-8.72,4.59-3.57,2.59-7.61,5.52-11.78,7.05l-.82-2.23c3.86-1.42,7.76-4.25,11.2-6.74,4.56-3.31,8.17-5.93,10.95-4.89,1.36.51,2.25,1.76,2.73,3.83,1.59,6.89-3.6,12.6-8.63,18.12-2.29,2.51-4.65,5.11-6.23,7.7-1.66,2.73-1.77,3.96-1.57,4.5.32.87,2.02,1.41,3.98,2.04,1.56.5,3.33,1.07,5.18,2,2.39,1.19,6.46,3.68,9.77,6.32,4.41,3.52,6.26,6.28,5.66,8.45-.58,2.07-3.1,3.07-7.86,3.07Z"/>
      <path class="cls-4" d="M4.8,82.69l21.91,6.41c1.63.43,3.35.2,4.82-.63l47.46-24.84c1.99-1.13,3.22-3.22,3.26-5.5.15-10.99.5-43.09-.65-48.69-.88-4.3-16.9-11.34-29.27-8.96C39.95,2.86,11.18,15.78,7.85,17.2S0,24.82,0,31.48v44.99c0,2.93,1.97,5.48,4.8,6.23Z"/>
      <path class="cls-1" d="M29.35,39.98c-.8,3.21-.68,41.01-.72,42.03,0,0,1.57-33.86.72-42.03Z"/>
      <path class="cls-1" d="M27.26,31.47c-1.16-1.25-18.36-5.75-18.81-5.92,0,0,14.78,5.84,18.81,5.92Z"/>
      <path class="cls-1" d="M46.53,27.8c2.49-.21,15.7-4.93,26.54-10.2,3.78-1.84,5.91-3.87,6.14-3.94,0,0-2.97,1.5-6.8,3.4-10.31,5.12-20.44,8.25-25.88,10.74Z"/>
      <path class="cls-3" d="M14.95,35.14c.46.28-.31,8.96-.36,19.46-.05,11.56.55,25.04-.4,25.44,0,0-1.33-42.99.75-44.91Z"/>
      <path class="cls-3" d="M18.07,40.46c.11-.84-.74-1.65-1.89-1.83h0s-3.36-.43-3.36-.43c-1.21-.15-2.28.43-2.39,1.3s.78,1.7,1.99,1.85c0,0,.01,0,.02,0l3.23.41s.01,0,.02,0,.01,0,.02,0h.08s0,0,0,0c1.17.11,2.18-.46,2.29-1.3Z"/>
      <path class="cls-5" d="M18.46,21.14c2.84.12,33.37-12.54,34.32-13.25s2.48-3.43.83-3.19-22.13,8.4-22.96,8.76-14.55,4.73-15.26,5.68c-.71.95,3.08,2.01,3.08,2.01Z"/>
      <path class="cls-5" d="M31.55,23.73c2.84.12,33.37-12.54,34.32-13.25s2.48-3.43.83-3.19c-1.66.24-22.13,8.4-22.96,8.76s-14.55,4.73-15.26,5.68,3.08,2.01,3.08,2.01Z"/>
      <path class="cls-5" d="M59.2,87.32s.14,2.95.79,5.29c.65,2.34,2.48,4.7,2.48,4.7,0,0,6.26-2.15,7-4.01s-1.77-7.19-2.8-7.56-7.47,1.59-7.47,1.59Z"/>
    </g>
  </g>
</svg>