<?xml version="1.0" encoding="UTF-8"?>
<svg id="Layer_2" data-name="Layer 2" xmlns="http://www.w3.org/2000/svg" viewBox="0 0 131.72 85.84">
  <defs>
    <style>
      .cls-1 {
        fill: #8b8e90;
      }

      .cls-2 {
        fill: #999b9d;
      }

      .cls-3 {
        fill: #fff;
      }

      .cls-4 {
        fill: #252626;
      }
    </style>
  </defs>
  <g id="Layer_1-2" data-name="Layer 1">
    <g>
      <path class="cls-2" d="M88.68,32.2c.49-2.83-3.71-30.34-7.03-32.1s-20.57,20.38-20.87,22,27.89,10.1,27.89,10.1Z"/>
      <path class="cls-4" d="M85.64,24.72c.13-.85-.97-9.16-1.85-9.69s-5.41,6.15-5.49,6.64,7.33,3.05,7.33,3.05Z"/>
      <path class="cls-2" d="M24.95,78.09L0,63.48s5.84-5.86,10.22-13.26c5.71-9.65,12.77-17.3,20.06-24.07,12.77-11.88,43.52-10.91,60.25-3.24,8.75,4.01,39.17,40.45,39.17,40.45l-25.66,16.27c-8,2.26-15.03,3.17-39.19,5.43-7,.65-34.43-5.22-39.9-6.97Z"/>
      <path class="cls-2" d="M31.7,38.78c-1.21-2.62-2.95-28.73.18-31.32,3.13-2.59,27.42,14.15,27.68,15.77.59,3.76-25.93,17.23-27.86,15.55Z"/>
      <path class="cls-4" d="M46.27,32.31c-.44-1.05-1.46-11.39-.47-12.36s9.32,6.05,9.43,6.69c.26,1.5-8.3,6.36-8.96,5.67Z"/>
      <path class="cls-4" d="M101.79,47.89c-3.17-1.78-16.1-5.66-25.05-5.88-12.79-.31-14.8,1.83-20.12,3.58,0,0,10.12,16.69,20.75,17.8s20.91-11.78,24.42-15.49Z"/>
      <circle class="cls-3" cx="89.25" cy="50.19" r="2.53"/>
      <path class="cls-4" d="M122.41,63.08c0-1.71,1.31-3.1,2.98-3.24h0s3.07-.01,3.07-.01c1.79,0,3.25,1.45,3.25,3.25s-1.45,3.25-3.25,3.25h-3.07c-1.67-.15-2.98-1.54-2.98-3.25Z"/>
      <polygon class="cls-2" points="17.34 63.46 12.95 81.34 30.12 76.01 17.34 63.46"/>
      <path class="cls-1" d="M37.29,80.7c21.66,3.4,15.3,3.14,26.16,3.85,8.08.53,25.56-2.77,30.11-3.2,0,0-26.04,4.48-30.32,4.48s-25.94-5.14-25.94-5.14Z"/>
    </g>
  </g>
</svg>