<?xml version="1.0" encoding="UTF-8"?>
<svg id="Layer_2" data-name="Layer 2" xmlns="http://www.w3.org/2000/svg" viewBox="0 0 28.61 39.7">
  <defs>
    <style>
      .cls-1 {
        fill: #252626;
      }

      .cls-2 {
        fill: #787a7b;
      }
    </style>
  </defs>
  <g id="Layer_1-2" data-name="Layer 1">
    <g>
      <path class="cls-2" d="M13.37,0c5.47,11.08,14.88,30.65,15.24,36.55,0,0-2.78-.57-3.02-1.03s.76,1.95.61,2.77c0,0-2.62-1.31-2.92-1.59,0,0,.4,2.47.3,3.01,0,0-5.5-4.31-13.58-16.57C6.62,18.02,0,7.21,0,7.21"/>
      <path class="cls-1" d="M15.8,31.25c2.44,3.71,7.77,8.45,7.77,8.45.1-.54-.3-3.01-.3-3.01.3.28,2.92,1.59,2.92,1.59.15-.82-.85-3.22-.61-2.77s3.02,1.03,3.02,1.03c-.12-1.96-1.24-5.44-2.89-9.62l-2.64-.93-.42,1.96-1.7-.35-.86,1.71-1.76-.52-.48,1.41-1.56-.34-.5,1.38Z"/>
    </g>
  </g>
</svg>