<?xml version="1.0" encoding="UTF-8"?>
<svg id="Layer_2" data-name="Layer 2" xmlns="http://www.w3.org/2000/svg" viewBox="0 0 29.65 44.9">
  <defs>
    <style>
      .cls-1 {
        fill: #252626;
      }

      .cls-2 {
        fill: #787a7b;
      }
    </style>
  </defs>
  <g id="Layer_1-2" data-name="Layer 1">
    <g>
      <path class="cls-2" d="M1.04,12.41s6.62,10.81,9.99,15.92c8.08,12.26,13.58,16.57,13.58,16.57.1-.54-.3-3.01-.3-3.01.3.28,2.92,1.59,2.92,1.59.15-.82-.85-3.22-.61-2.77s3.02,1.03,3.02,1.03c-.36-5.9-9.77-25.47-15.24-36.55,0,0-3.72-7.33-10.42-4.57S1.04,12.41,1.04,12.41Z"/>
      <path class="cls-1" d="M16.85,36.45c2.44,3.71,7.77,8.45,7.77,8.45.1-.54-.3-3.01-.3-3.01.3.28,2.92,1.59,2.92,1.59.15-.82-.85-3.22-.61-2.77s3.02,1.03,3.02,1.03c-.12-1.96-1.24-5.44-2.89-9.62l-2.64-.93-.42,1.96-1.7-.35-.86,1.71-1.76-.52-.48,1.41-1.56-.34-.5,1.38Z"/>
    </g>
  </g>
</svg>