<?xml version="1.0" encoding="UTF-8"?>
<svg id="Layer_2" data-name="Layer 2" xmlns="http://www.w3.org/2000/svg" viewBox="0 0 17.52 50.02">
  <defs>
    <style>
      .cls-1 {
        fill: #8d8f91;
      }

      .cls-2 {
        fill: #999b9d;
      }

      .cls-3 {
        fill: #252626;
      }
    </style>
  </defs>
  <g id="Layer_1-2" data-name="Layer 1">
    <g>
      <path class="cls-1" d="M17.52,11.5c-2.07,12.19-5.96,33.55-9.32,38.52,0,0-2.1-2.11-2.04-2.62s-.55,2.02-1.19,2.59c0,0-1.51-2.61-1.59-3.02,0,0-1.19,2.23-1.61,2.6,0,0-2.18-6.74-1.68-21.43.21-6.12,1.09-18.77,1.09-18.77"/>
      <path class="cls-2" d="M16.94,11.33c-2.03,12.19-5.84,33.57-8.99,38.57,0,0-1.92-2.08-1.85-2.6s-.53,2.02-1.12,2.6c0,0-1.36-2.6-1.44-3,0,0-1.12,2.24-1.51,2.61,0,0-1.94-6.71-1.34-21.38.25-6.12,1.19-18.76,1.19-18.76C1.88,9.37,3.36-1.05,11.19.09s5.75,11.24,5.75,11.24Z"/>
      <path class="cls-3" d="M.62,38.11c-.18,4.44,1.37,11.4,1.37,11.4.4-.38,1.51-2.61,1.51-2.61.08.4,1.44,3,1.44,3,.6-.58,1.19-3.11,1.12-2.6s1.85,2.6,1.85,2.6c1.05-1.66,2.17-5.14,3.27-9.49l-1.59-2.3-1.48,1.35-1.18-1.28-1.7.89-1.12-1.45-1.22.87-1.07-1.19-1.21.83Z"/>
    </g>
  </g>
</svg>