<?xml version="1.0" encoding="UTF-8"?>
<svg id="Layer_2" data-name="Layer 2" xmlns="http://www.w3.org/2000/svg" viewBox="0 0 52.72 59.58">
  <defs>
    <style>
      .cls-1 {
        fill: #8d8f91;
      }

      .cls-2 {
        fill: #353535;
      }
    </style>
  </defs>
  <g id="Layer_1-2" data-name="Layer 1">
    <g>
      <path class="cls-1" d="M52.72,57.83c-15.47,4.25-26.9,0-32.13-4.57C15.37,48.69-.63,16.68.02,6.89.1,5.66.49,2.75,2.24,1.98,8.89-.95,14.91-.62,21.23,2.92c7.54,4.23,25.63,24.99,28.08,27.08s3.42,27.84,3.42,27.84Z"/>
      <path class="cls-2" d="M43.3,23.72s-21.83,21.29-22.71,29.54c0,0-2.71-3.1-4.38-5.92s19.8-27.57,22.51-28.47c0,0,4.58,4.85,4.58,4.85Z"/>
      <path class="cls-2" d="M31.48,11.51S11.35,30.01,10.56,37.1c0,0-1.79-3.28-3.13-6.62-1.06-2.64,17.39-22.14,19.81-22.92,0,0,4.23,3.96,4.23,3.96Z"/>
    </g>
  </g>
</svg>