<?xml version="1.0" encoding="UTF-8"?>
<svg id="Layer_2" data-name="Layer 2" xmlns="http://www.w3.org/2000/svg" viewBox="0 0 90.65 51">
  <defs>
    <style>
      .cls-1 {
        fill: #93ba79;
      }

      .cls-2 {
        fill: #457128;
      }

      .cls-3 {
        fill: #719958;
      }
    </style>
  </defs>
  <g id="Layer_1-2" data-name="Layer 1">
    <g>
      <path class="cls-3" d="M90.65,42.35s-10.56,8.32-44.63,5.78c-19.95-1.49-32.32.75-39.14,2.86L0,9.59S16.13,2.19,45.06,3.8c18.91,1.06,32.58-1.74,39.78-3.8l5.81,42.35Z"/>
      <path class="cls-2" d="M87.69,40.54s-9.87,7.35-41.71,5.1c-18.65-1.32-30.21.66-36.59,2.53L2.96,11.64s15.08-6.53,42.12-5.11c17.68.93,30.45-1.53,37.18-3.35l5.43,37.37Z"/>
      <path class="cls-3" d="M85.29,39.21s-9.31,6.56-39.35,4.55c-17.59-1.18-28.49.59-34.51,2.26L5.36,13.4s14.23-5.83,39.73-4.56c16.67.83,28.73-1.37,35.07-2.99l5.12,33.37Z"/>
      <path class="cls-2" d="M10.91,46.45l8.33-1.72s0-.03,0-.04c-.92-4.46-5.28-7.32-9.73-6.4-.09.02-.17.05-.26.07l1.67,8.09Z"/>
      <path class="cls-2" d="M4.73,12.5l1.76,8.32s.03,0,.04,0c4.45-.94,7.3-5.31,6.36-9.76-.02-.09-.05-.17-.07-.26l-8.08,1.71Z"/>
      <path class="cls-2" d="M80.33,5.39l-8.32,1.76s0,.03,0,.04c.94,4.45,5.31,7.3,9.76,6.36.09-.02.17-.05.26-.07l-1.71-8.08Z"/>
      <path class="cls-2" d="M86.54,40.15l-1.76-8.32s-.03,0-.04,0c-4.45.94-7.3,5.31-6.36,9.76.02.09.05.17.07.26l8.08-1.71Z"/>
      <circle class="cls-1" cx="45.56" cy="25.48" r="9.46"/>
      <circle class="cls-1" cx="24.47" cy="25.82" r="4.78"/>
      <circle class="cls-1" cx="69.15" cy="23.99" r="4.78"/>
      <path class="cls-2" d="M50.41,22.25l-3.06.69c-.19-.29-.35-.49-.49-.6-.14-.11-.36-.21-.66-.3l.17,1.71c0,.1.09.17.19.18,1.63.18,2.74.43,3.33.75.8.45,1.24,1.08,1.32,1.88.05.47-.04.92-.27,1.34-.23.42-.54.79-.94,1.09-.39.31-.82.54-1.28.71-.46.17-1.03.29-1.71.38l.12,1.23-1.22.12-.12-1.23c-.82.02-1.5-.01-2.02-.11-.52-.1-.98-.26-1.38-.49-.4-.23-.71-.48-.94-.77-.23-.28-.42-.64-.56-1.06l3.34-.64c.14.42.31.71.5.89.19.17.49.31.89.42l-.21-2.13c0-.1-.09-.17-.19-.18-1.06-.12-1.82-.25-2.28-.37-.49-.13-.92-.37-1.31-.73-.38-.36-.6-.82-.66-1.38-.08-.77.2-1.45.84-2.03.64-.59,1.64-.98,3-1.17l-.06-.64,1.22-.12.06.64c1.25-.06,2.23.07,2.92.4.7.33,1.18.83,1.45,1.5ZM44.98,22.14c-.35.13-.58.26-.71.41-.12.15-.18.31-.16.5.02.19.11.35.26.48s.41.22.77.28l-.17-1.67ZM46.84,28.41c.46-.13.8-.3,1-.51.2-.21.29-.43.27-.67-.02-.2-.13-.38-.33-.53-.2-.15-.58-.28-1.14-.37l.21,2.08Z"/>
    </g>
  </g>
</svg>