<?xml version="1.0" encoding="UTF-8"?>
<svg id="Layer_2" data-name="Layer 2" xmlns="http://www.w3.org/2000/svg" viewBox="0 0 41.86 69.42">
  <defs>
    <style>
      .cls-1 {
        fill: #b0b0b0;
      }

      .cls-2 {
        fill: #7d7d7d;
      }

      .cls-3 {
        fill: #3e4e35;
      }

      .cls-4 {
        fill: #568832;
      }
    </style>
  </defs>
  <g id="Layer_1-2" data-name="Layer 1">
    <g>
      <path class="cls-2" d="M38.25,0H8.53c-.58,0-1.13.14-1.61.38h0s-.02.01-.02.01c-.06.03-.12.07-.18.1L2.21,2.96c-.23.1-.45.22-.65.36h0s0,0,0,0c-.94.65-1.56,1.74-1.56,2.97v59.52c0,1.99,1.62,3.61,3.61,3.61h31.32c.14,0,.27-.01.4-.03h0s.02,0,.02,0c.57-.07,1.09-.26,1.55-.55,0,0,3.19-2.59,3.38-2.72l-.48.48.48-.48c.95-.65,1.58-1.74,1.58-2.98V3.61c0-1.99-1.62-3.61-3.61-3.61Z"/>
      <rect class="cls-1" x="1.23" y="4.31" width="34.29" height="63.77" rx="2.78" ry="2.78"/>
      <circle class="cls-2" cx="6.63" cy="46.27" r="2.33"/>
      <circle class="cls-2" cx="11.29" cy="50.23" r="2.33"/>
      <circle class="cls-2" cx="15.96" cy="46.27" r="2.33"/>
      <circle class="cls-2" cx="11.29" cy="42.56" r="2.33"/>
      <path class="cls-2" d="M29.88,56.95h-1.99c-.34,0-.62-.28-.62-.62v-1.85c0-.34-.28-.62-.62-.62h-1.87c-.34,0-.62.28-.62.62v1.85c0,.34-.28.62-.62.62h-1.99c-.34,0-.62.28-.62.62v2.16c0,.34.28.62.62.62h1.99c.34,0,.62.28.62.62v1.85c0,.34.28.62.62.62h1.87c.34,0,.62-.28.62-.62v-1.85c0-.34.28-.62.62-.62h1.99c.34,0,.62-.28.62-.62v-2.16c0-.34-.28-.62-.62-.62Z"/>
      <rect class="cls-3" x="2.07" y="5.55" width="32.43" height="30.65" rx="2.21" ry="2.21"/>
      <g>
        <path class="cls-4" d="M4.09,9.37c-.33,0-.6.27-.6.6v17.78c0,.33.27.6.6.6s.6-.27.6-.6V9.97c0-.33-.27-.6-.6-.6Z"/>
        <path class="cls-4" d="M12.43,7.06h-7.7c-.33,0-.6.27-.6.6s.27.6.6.6h7.7c.33,0,.6-.27.6-.6s-.27-.6-.6-.6Z"/>
      </g>
    </g>
  </g>
</svg>