<?xml version="1.0" encoding="UTF-8"?>
<svg id="Layer_2" data-name="Layer 2" xmlns="http://www.w3.org/2000/svg" viewBox="0 0 52.26 45.03">
  <defs>
    <style>
      .cls-1 {
        fill: #cf9439;
      }

      .cls-2 {
        fill: #eed297;
      }
    </style>
  </defs>
  <g id="Layer_1-2" data-name="Layer 1">
    <g>
      <path class="cls-1" d="M44.68,42.93v-24.11c2.76-.93,5.05-3.31,4.25-7.41-.64-3.26-4.34-5.54-8.15-6.87-3.79-1.33-7.69-2.39-15.96-2.32-8.27-.07-12.17.99-15.96,2.32-3.81,1.34-7.51,3.61-8.15,6.87-.78,3.97,1.68,4.8,4.32,5.79l-.78,10.44c1.71.07,3.65,1.73,4.52,3.13.9-1.45,2.47-2.42,4.26-2.42,2.8,0,5.07,2.34,5.07,5.23,0,.44-.4.41-.5.82,1.08.96,1.98,2,1.98,3.58,0,.26-.04.5-.07.75.18-.02.91.18,1.09.23,2.76.89,4.52,3.14,4.52,6.03,0,.39,4.84-2.2,4.76-1.83"/>
      <path class="cls-1" d="M52.14,10.52c-.34-2.83-4.13-6.51-8.02-7.84C40.25,1.37,34.96-.06,26.51,0c-8.45-.07-11.56.66-15.43,1.98C7.19,3.31,1.28,6.28.63,9.51c-.8,3.94,3.94,6.25,6.64,7.23v12.03c.44.35.83.77,1.13,1.25.92-1.44,2.52-2.39,4.35-2.39,2.86,0,5.18,2.32,5.18,5.18,0,.44-.07.86-.17,1.26,1.11.95,1.82,2.34,1.82,3.91,0,.25-.04.5-.07.74.19-.02.37-.06.56-.06,2.79,0,5.05,2.21,5.16,4.98h16.32c.29.5.72,1.21.93,1.32.27.16,3.38-1.08,4.47-1.91.02-.01.03-.03.05-.04.03-.02.07-.05.1-.08h0c.11-.1.22-.21.32-.32.43-.51.7-1.17.7-1.89l-.46-22.04c4.03-1.77,4.99-4.05,4.5-8.17Z"/>
      <path class="cls-2" d="M49.42,10.84c-.65-3.23-4.43-5.49-8.32-6.81-3.87-1.32-7.85-2.37-16.3-2.3-8.45-.07-12.43.99-16.3,2.3C4.6,5.35.82,7.61.17,10.84c-.8,3.94,1.38,6.26,4.08,7.25v9.56c1.75.07,3.27,1,4.16,2.38.92-1.44,2.52-2.39,4.35-2.39,2.86,0,5.18,2.32,5.18,5.18,0,.44-.07.86-.17,1.26,1.11.95,1.82,2.34,1.82,3.91,0,.25-.04.5-.07.74.19-.02.37-.06.56-.06,2.86,0,5.18,2.32,5.18,5.18,0,.39-.05.77-.13,1.14h17.05c1.61,0,2.91-1.31,2.91-2.92v-23.9c2.82-.93,5.16-3.28,4.34-7.34Z"/>
    </g>
  </g>
</svg>