<?xml version="1.0" encoding="UTF-8"?>
<svg id="Layer_2" data-name="Layer 2" xmlns="http://www.w3.org/2000/svg" viewBox="0 0 56.34 55.32">
  <defs>
    <style>
      .cls-1 {
        fill: #917214;
      }

      .cls-2 {
        fill: #ac2406;
      }

      .cls-3 {
        fill: #d8a804;
      }

      .cls-4 {
        fill: #e2bd52;
      }

      .cls-5 {
        fill: #f7e8bf;
      }

      .cls-6 {
        fill: #947414;
      }

      .cls-7 {
        fill: #6fce0a;
      }

      .cls-8 {
        fill: #ad2006;
      }

      .cls-9 {
        fill: #3671f5;
      }

      .cls-10 {
        fill: #f8ebc5;
      }

      .cls-11 {
        fill: #f7e9c0;
      }

      .cls-12 {
        fill: #3872f0;
      }

      .cls-13 {
        fill: #ad240b;
      }

      .cls-14 {
        fill: #6ad00a;
      }

      .cls-15 {
        fill: #fefefe;
      }

      .cls-16 {
        fill: #5fd201;
      }

      .cls-17 {
        fill: #eedba3;
      }

      .cls-18 {
        fill: #d8ac1f;
      }
    </style>
  </defs>
  <g id="Layer_1-2" data-name="Layer 1">
    <g>
      <path class="cls-15" d="M35.41,1.9c-.9-3.39-4.85-1.68-6.49.73-.94,1.38-4.9,9.85-5.39,10.14-.44.27-1.92-.07-3.16.56-.6.31-1.04,1.11-1.61,1.45-2.77,1.63-3.99,1.68-5.66,4.62-.59,1.04-.93,1.93-1.31,3.06-1.67-.17-.93,2.69-1.52,3.52-.41.59-1.88-.02-1.54,1.29-.42.05-.92-.07-1.31,0-1.95.35-2.74.93-3.5,2.63-.05.12.06.32,0,.44-1.08-.07-1.11.67-1.54,1.31-3.81,5.64-2.92,10.47,2.21,14.9,7.6,6.57,18.2,8.1,28.01,8.74,4.65.3,14.03-2.96,17.68-5.94,4.71-3.83,8.68-14.69,3.99-19.67-.72-.77-2.3-1.01-2.57-1.81-.37-1.12.11-2.97-.09-4.29-.13-.8-2.14-4-2.73-4.49-.56-.46-1.35-.37-1.62-.57-.72-.52-2.12-1.34-2.63-1.75-.07-.06.13-.66-.05-.84-.36-.36-.78.4-.83.4-.29.02-.59,0-.88,0l-.5-2.13-.81-.05c-.08-.58-.39-1.16-.44-1.75,0-.05.63-.44.43-.86-.25-.12-.79.06-.87-.02-1.04-.99-4.05-6.39-4.38-7.88-.05-.25.06-.59,0-.87h-.87c0-.28.06-.67,0-.88Z"/>
      <path class="cls-3" d="M34.53,1.9l-2.62.65c2.03,1.63,2.76,4.72,3.5,7.23.29.99-.17,3.41,1.31,3.06-.19.25-.26,1.26-.86,1.98-2.12,2.55-4.89,1.26-7.41.82-.41-.07-1.37-.41-.92.48,1.22,2.43,7.29,1.66,9.31,2.07,1.67.34,4.55,2.34,6.61,2.58,1.62,1.06,2.25,4.16.95,5.65-2.94,3.34-12.03,3.97-16.18,3.45-3.78-.48-7.63-2.95-11.63-2.37,1.35,1.37,4.52,2.32,6.45,2.74,6.13,1.36,13.88,2.52,19.92.86,1.15-.32,2.71-1.79,3.86-1,2.15,1.47.65,11.71-1.77,13.38-1.55-2.01-4.56-.26-4.84,1.95.82.16,1.53,1.41,1.78,1.56l-6.45,2.52-12.81.98c-.03.28.58.87.66.87h13.57c3.89,0,9.6-3.79,12.05-6.77,2.8-3.42,4.91-7.98,2.63-12.28-.74-1.39-2.65-2.9-2.98-4.5-.4-1.87-.35-3.72-.97-6.22l1.09-.87c3.02,1.98,1.3,5.8,2.04,8.03.33,1,3.8,1.41,4.31,5.76.94,8.14-4.64,14.64-11.83,17.5-7.63,3.03-13.27,2.04-21.21,1.1-3.85-.46-8.12-2.25-11.61-3.93,1.35-3.59-1.94-5.94-5.25-4.38-.09-.12-1.57-.69-2.38-1.78-3.5-4.71-.95-8.35,1.07-12.66.06-.12-.05-.32,0-.44,1.06-.58,3.59-1.53,3.5-2.63.39-.07.89.05,1.31,0,.66-.08,1.44.25,1.97-.43.64-.78.74-3.34,1.09-4.38.38-1.13.72-2.02,1.31-3.06l7.76-5.15c4.36-.63,2.77-.4,4.55-2.91.47-.66,1.22-.63,1.26-.69l1.31,1.31c-.07-1.64,1.25-2.67,1.84-4.08.3-.71,1.88-4.39-.08-4.24.94-2.14,2.69-3.9,4.82-1.75ZM30.38,9.78c-1.21.42-1.59,3.27-.44,3.5,1.4.28,2.5-3.3.44-3.5ZM22.27,15.91c-4.01.71-7.86,3.87-7,8.32h1.74c-.25-1.78.91-3.9,2.18-5.06,1.14-1.04,3.38-1.2,3.08-3.26ZM23.66,19.93c-3.15,3.97,3.93,6.14,3.91,2.33-.01-1.96-2.19-2.87-3.91-2.33ZM39.63,21.2c-2.06.36-1.64,3.47.37,3.48,2.5.01,1.21-3.75-.37-3.48ZM11.77,29.48c-4.8.21-8.71,4.88-8.31,9.63l1.35-.26c.39-3.15,2.27-5.21,4.55-7.19.83-.71,2.5-.83,2.41-2.19ZM19.17,33.01c-2.27-.45-1.91,1.29-2.58,1.93-.77.75-2.21.21-2.46,1.52-.26,1.38,2.51,3.09,2.46,4.83l4.74-3.78-2.16-4.5ZM27.96,43.05h6.35c.11,0,1.51-.52,1.56-.71l-.91-6.74h-6.13c.44,2.49-.51,4.87-.88,7.44Z"/>
      <path class="cls-17" d="M47.23,18.54c.27.19,1.06.1,1.62.57.59.49,2.61,3.69,2.73,4.49.21,1.31-.28,3.17.09,4.29.27.8,1.85,1.04,2.57,1.81,4.69,4.98.72,15.84-3.99,19.67-3.66,2.98-13.04,6.24-17.68,5.94-9.81-.64-20.41-2.16-28.01-8.74-5.13-4.43-6.02-9.26-2.21-14.9.43-.63.46-1.37,1.54-1.31-2.02,4.31-4.56,7.96-1.07,12.66.81,1.09,2.29,1.66,2.38,1.78.11.16-.1.96.64,1.76,1.22,1.33,3.08,1.88,4.61,2.62,3.48,1.68,7.76,3.48,11.61,3.93,7.95.94,13.58,1.93,21.21-1.1,7.19-2.86,12.77-9.36,11.83-17.5-.5-4.34-3.98-4.76-4.31-5.76-.74-2.23.98-6.05-2.04-8.03l-1.09.87c-.16-.66-.24-1.39-.44-2.19-.06-.24.04-.6,0-.88Z"/>
      <path class="cls-4" d="M35.41,1.9c-.2.05-.41.24-.44.44-.15-.14-.29-.29-.44-.44-2.12-2.15-3.87-.39-4.82,1.75-.96,2.18-1.68,4.94-3.06,7-.04.06-.79.03-1.26.69-1.79,2.51-.19,2.27-4.55,2.91l-7.76,5.15c1.68-2.94,2.89-3,5.66-4.62.57-.34,1.01-1.14,1.61-1.45,1.24-.63,2.72-.29,3.16-.56.49-.3,4.45-8.77,5.39-10.14,1.65-2.41,5.6-4.12,6.49-.73Z"/>
      <path class="cls-18" d="M36.28,3.65c.33,1.48,3.33,6.89,4.38,7.88l.44.88c.04.59.36,1.17.44,1.75.09.71-.07,1.48,0,2.19.44,0,.88.01,1.31,0,.29,0,.59.02.88,0l.88.44c.5.41,1.91,1.23,2.63,1.75.04.28-.06.63,0,.88l-7.03-1.95c-.8-.52-.03-2.07-.26-3.2-.29-1.4-1.27-1.86-1.47-2.29-.74-1.6-.23-1.04-1.31-2.63-.87-1.27-1.95-4.17-2.19-5.69h1.31Z"/>
      <path class="cls-17" d="M11.77,22.48c-.35,1.04-.45,3.61-1.09,4.38-.53.68-1.31.35-1.97.43-.33-1.31,1.13-.7,1.54-1.29.59-.84-.15-3.7,1.52-3.52Z"/>
      <path class="cls-17" d="M7.39,27.29c.09,1.09-2.44,2.05-3.5,2.63.77-1.69,1.56-2.27,3.5-2.63Z"/>
      <path class="cls-17" d="M41.54,14.16l.81.05.5,2.13c-.44.01-.88,0-1.31,0-.07-.71.1-1.48,0-2.19Z"/>
      <path class="cls-3" d="M35.41,2.78v.88h-.44c-.05-.34-.04-.96,0-1.31.02-.2.23-.39.44-.44.06.21,0,.6,0,.88Z"/>
      <path class="cls-4" d="M35.41,2.78h.87c.06.28-.05.63,0,.88h-.88v-.88Z"/>
      <path class="cls-17" d="M40.66,11.53c.08.07.62-.1.87.02.2.41-.44.81-.43.86l-.44-.88Z"/>
      <path class="cls-17" d="M43.72,16.35s.46-.76.83-.4c.18.18-.02.78.05.84l-.88-.44Z"/>
      <path class="cls-1" d="M47.23,19.41c.2.8.28,1.53.44,2.19.62,2.5.57,4.35.97,6.22.34,1.6,2.24,3.11,2.98,4.5,2.29,4.3.18,8.86-2.63,12.28-2.45,2.99-8.16,6.77-12.05,6.77h-13.57c-.07,0-.69-.59-.66-.87l12.81-.98,6.45-2.52c.33.19,1.37.48,1.74.24l1.66-2.29c.05-.21-.24-1.33-.34-1.46,2.42-1.67,3.92-11.91,1.77-13.38-1.15-.78-2.71.69-3.86,1-6.04,1.66-13.78.5-19.92-.86-1.92-.43-5.1-1.37-6.45-2.74,4-.58,7.86,1.9,11.63,2.37,4.14.52,13.24-.11,16.18-3.45,1.31-1.49.67-4.59-.95-5.65-2.06-.25-4.94-2.24-6.61-2.58-2.02-.41-8.09.35-9.31-2.07-.45-.89.51-.55.92-.48,2.52.44,5.29,1.73,7.41-.82.6-.72.67-1.73.86-1.98.21-.27,1.36-.59,1.75-.88.2.43,1.18.89,1.47,2.29.23,1.13-.54,2.68.26,3.2l7.03,1.95Z"/>
      <path class="cls-16" d="M27.96,43.05c.37-2.57,1.32-4.95.88-7.44h6.13s.91,6.73.91,6.73c-.05.18-1.45.71-1.56.71h-6.35Z"/>
      <path class="cls-8" d="M19.17,33.01l2.16,4.5-4.74,3.78c.05-1.74-2.72-3.45-2.46-4.83s1.69-.77,2.46-1.52c.67-.65.31-2.38,2.58-1.93Z"/>
      <path class="cls-11" d="M11.77,29.48c.1,1.36-1.58,1.47-2.41,2.19-2.29,1.98-4.16,4.04-4.55,7.19l-1.35.26c-.4-4.75,3.51-9.42,8.31-9.63Z"/>
      <path class="cls-10" d="M22.27,15.91c.3,2.06-1.94,2.22-3.08,3.26-1.27,1.16-2.43,3.28-2.18,5.05h-1.74c-.86-4.44,2.99-7.6,7-8.31Z"/>
      <path class="cls-12" d="M10.45,49.18c-1.53-.74-3.39-1.29-4.61-2.62-.74-.8-.53-1.61-.64-1.76,3.31-1.56,6.6.79,5.25,4.38Z"/>
      <path class="cls-9" d="M23.66,19.93c1.73-.54,3.9.37,3.91,2.33.02,3.81-7.07,1.64-3.91-2.33Z"/>
      <path class="cls-13" d="M45.04,43.49c.1.13.39,1.25.34,1.46l-1.66,2.29c-.37.23-1.41-.05-1.74-.24-.25-.14-.95-1.39-1.78-1.56.28-2.21,3.3-3.95,4.84-1.95Z"/>
      <path class="cls-6" d="M34.53,1.9c.14.15.28.3.44.44-.04.35-.05.97,0,1.31.24,1.52,1.32,4.42,2.19,5.69l-1.75.44c-.74-2.51-1.46-5.6-3.5-7.23l2.62-.65Z"/>
      <path class="cls-5" d="M29.72,3.65c1.97-.15.38,3.53.08,4.24-.59,1.41-1.91,2.44-1.84,4.08l-1.31-1.31c1.38-2.07,2.1-4.82,3.06-7Z"/>
      <path class="cls-2" d="M37.16,9.34c1.08,1.59.58,1.03,1.31,2.63-.39.29-1.54.61-1.75.88-1.48.34-1.02-2.07-1.31-3.06l1.75-.44Z"/>
      <path class="cls-14" d="M39.63,21.2c1.59-.27,2.88,3.49.37,3.48-2.02-.01-2.44-3.12-.37-3.48Z"/>
      <path class="cls-7" d="M30.38,9.78c2.06.19.96,3.78-.44,3.5-1.15-.23-.77-3.08.44-3.5Z"/>
    </g>
  </g>
</svg>