<?xml version="1.0" encoding="UTF-8"?>
<svg id="Layer_2" data-name="Layer 2" xmlns="http://www.w3.org/2000/svg" viewBox="0 0 80.29 49.23">
  <defs>
    <style>
      .cls-1 {
        fill: #c19310;
      }

      .cls-2 {
        fill: #daab0e;
      }

      .cls-3 {
        fill: #e5ba41;
      }
    </style>
  </defs>
  <g id="Layer_1-2" data-name="Layer 1">
    <g>
      <polygon class="cls-1" points="40.43 14.29 24.04 1.21 13.29 17.88 22.47 32.85 40.43 14.29"/>
      <polygon class="cls-1" points="42.63 14.29 59.72 1.21 69.77 17.88 60.59 32.85 42.63 14.29"/>
      <path class="cls-2" d="M42.85,49.23c14.43-.39,36.66-3.9,36.66-3.9v-23.01L80.29.08l-26.52,21.06L40.19,3.31l-.02-.19-13.65,17.94L0,0l.78,22.23v23.01s22.23,3.51,36.66,3.9l5.4.08Z"/>
      <path class="cls-3" d="M5.27,40c13.66,3.8,23.57,4.19,26.79,4.19s2.3,1.27,1.39,1.17-23.01-3.03-25.14-3.54-3.04-1.82-3.04-1.82Z"/>
    </g>
  </g>
</svg>