<?xml version="1.0" encoding="UTF-8"?>
<svg id="Layer_2" data-name="Layer 2" xmlns="http://www.w3.org/2000/svg" viewBox="0 0 61.72 49.1">
  <defs>
    <style>
      .cls-1 {
        fill: #cb953c;
      }

      .cls-2 {
        fill: #801f25;
      }

      .cls-3 {
        fill: #af8031;
      }

      .cls-4 {
        fill: #492413;
      }

      .cls-5 {
        fill: #f3d332;
      }

      .cls-6 {
        fill: #bf8c38;
      }

      .cls-7 {
        fill: #568720;
      }

      .cls-8 {
        fill: #f2cf31;
      }
    </style>
  </defs>
  <g id="Layer_1-2" data-name="Layer 1">
    <g>
      <path class="cls-1" d="M6.32,36.38c-.99,2.19-.31,6.51.21,7.14s9.86,6.91,27.16,5.34,20.99-2.26,21.46-3.41c.47-1.16,2.42-7.63.39-8.14s-11.21,2.18-15.65,1.11-33.57-2.03-33.57-2.03Z"/>
      <path class="cls-7" d="M9.01,32.03c-6.77,2.69-8.79,2.31-7.57,4.25,1.22,1.94,1.73-.15,3.71,1.11s.63,3.9,3.39,4.06,2.49-2.29,5.48-1.39,6.7,3.92,7.18,3.05-2.86-4.34.47-3.46c3.33.89,1.48,1.46,3.12,1.61s3.49-.75,3.96.29,1.65,2.74,3.8,1.59c2.15-1.16,2.01-3.33,5.73-2.22,3.71,1.11,4.09,2.13,7.52.79,3.44-1.33,1.31-2.87,4.78-2.05s5.87,1.42,6.71-.24c.84-1.66.67-2.61,1.44-2.94s2.07-2.41,1.54-3.25-.07-1.26-6.29-1.89c-6.22-.63-44.97.68-44.97.68Z"/>
      <path class="cls-4" d="M4.57,31.75c0,1.52.84,4.09,4.13,4.56,5.88.85,23.03,1.37,24.7,1.45,2.09.1,19.51-.11,22.68-1.44,3.17-1.33,1.47-5.86,0-7.24s-.14.6-8.13.01c-7.99-.59-26.85-1.52-29.65-2.24-2.8-.73-9.32.44-10.08,1s-3.65,1.95-3.65,3.9Z"/>
      <path class="cls-5" d="M36.16,39.08c-.75-.23-10.1-4.66-13.75-5.28-3.79-.64-22.22-4.19-22.41-5.38,1.63-1.45,6.34-4.18,10.09-6.52l46.48,4.56c.73.27,5-.23,5.15.36.15.58-24.29,12.03-25.56,12.26Z"/>
      <ellipse class="cls-2" cx="34.19" cy="32.47" rx="8.9" ry="3.68"/>
      <ellipse class="cls-2" cx="13.82" cy="29.45" rx="3.68" ry="8.9" transform="translate(-18.06 35.9) rotate(-76.3)"/>
      <ellipse class="cls-2" cx="47.79" cy="28.96" rx="8.9" ry="3.68" transform="translate(-5.28 11.48) rotate(-12.99)"/>
      <path class="cls-3" d="M33.16.03c-4.61-.14-8.46.47-11.83,1.36.1.47.11.81.11,1.31,0,2.31-1.14,4.34-2.88,5.59.75,1.11,1.2,2.44,1.2,3.88,0,3.81-3.01,6.84-6.83,6.84-.35,0-.52-.13-.86-.19-1.26,1.65-3.48,2.88-5.72,2.88-.72,0-.7-.14-1.36-.35-.1.92,1.94,1.76,1.92,2.69-.08,2.84,14.37,8.36,26.68,7.75,12.01-.6,24.86-2.25,25.6-7.15C60.2,18,54.82.71,33.16.03Z"/>
      <path class="cls-6" d="M33.86.03c-4.61-.14-8.52.32-11.88,1.22.1.47.16.96.16,1.45,0,2.31-1.14,4.34-2.88,5.59.75,1.11,1.2,2.44,1.2,3.88,0,3.81-3.09,6.9-6.9,6.9-.35,0-.69-.05-1.03-.1-1.26,1.65-3.23,2.74-5.47,2.74-.72,0-1.41-.14-2.06-.35-.1.92-.17,1.84-.2,2.77-.08,2.84,17.18,8.28,29.5,7.67,12.01-.6,24.86-2.25,25.6-7.15C60.9,18,55.52.71,33.86.03Z"/>
      <path class="cls-8" d="M40.97,16.11c.62.86,2.41-.24,1.57-.34-.84-.1-1.57.34-1.57.34Z"/>
      <path class="cls-8" d="M29.09,12.66c.62.86,2.41-.24,1.57-.34s-1.57.34-1.57.34Z"/>
      <path class="cls-8" d="M35.63,7.59c.62.86,2.41-.24,1.57-.34-.84-.1-1.57.34-1.57.34Z"/>
      <path class="cls-8" d="M35.42,12.24c.62.86,2.41-.24,1.57-.34s-1.57.34-1.57.34Z"/>
      <path class="cls-8" d="M20.2,9.57c.62.86,2.41-.24,1.57-.34s-1.57.34-1.57.34Z"/>
      <path class="cls-8" d="M22.24,15.75c.62.86,2.41-.24,1.57-.34-.84-.1-1.57.34-1.57.34Z"/>
      <path class="cls-8" d="M29.41,5.49c.62.86,2.41-.24,1.57-.34s-1.57.34-1.57.34Z"/>
      <path class="cls-8" d="M43.01,10.57c.62.86,2.41-.24,1.57-.34s-1.57.34-1.57.34Z"/>
      <path class="cls-8" d="M26.69,9.69c.62.86,2.41-.24,1.57-.34s-1.57.34-1.57.34Z"/>
      <path class="cls-8" d="M34.2,17.67c.62.86,2.41-.24,1.57-.34s-1.57.34-1.57.34Z"/>
    </g>
  </g>
</svg>