<?xml version="1.0" encoding="UTF-8"?>
<svg id="Layer_2" data-name="Layer 2" xmlns="http://www.w3.org/2000/svg" viewBox="0 0 28.68 89.49">
  <defs>
    <style>
      .cls-1 {
        fill: #5a8a21;
      }

      .cls-2 {
        fill: #29380f;
      }

      .cls-3 {
        fill: #adadad;
      }
    </style>
  </defs>
  <g id="Layer_1-2" data-name="Layer 1">
    <g>
      <ellipse class="cls-1" cx="14.03" cy="31.45" rx="14.03" ry="16.43" transform="translate(-.4 .18) rotate(-.73)"/>
      <path class="cls-1" d="M28.05,31.27L0,31.63l.63,50c.03,2.62,1.39,5,3.47,5.97,2.2,1.02,5.61,1.96,10.65,1.9,4.45-.06,7.61-.87,9.79-1.79,2.51-1.07,4.17-3.87,4.13-7.01l-.63-49.41Z"/>
      <path class="cls-1" d="M19.82,1.98l-12.32.16.38,29.84s1.47,2.48,6.19,2.42c4.72-.06,6.13-2.57,6.13-2.57l-.38-29.84Z"/>
      <path class="cls-3" d="M14.13,39.97C3.38,40.1.05,35.66.05,35.66l.39,30.43s3.33,4.44,14.08,4.3c10.75-.14,13.97-4.66,13.97-4.66l-.39-30.43s-3.22,4.52-13.97,4.66Z"/>
      <path class="cls-1" d="M19.93,1.01C19.42.19,17.89-.05,13.5.01h0c-4.82.02-5.59.28-6.12,1.13-.17.27-.28,1.06.39,1.9,0,0,2.79-.04,5.68-.08h0c3.13-.02,5.98.11,5.98.11.65-.85.78-1.65.52-2.07Z"/>
      <path class="cls-2" d="M10.27,2.05c3.43.51,6.93.31,8.53-.3-2.97,1.53-8.53.3-8.53.3Z"/>
      <path class="cls-2" d="M10.14,3.57c3.43.51,6.93.31,8.53-.3-2.97,1.53-8.53.3-8.53.3Z"/>
      <path class="cls-2" d="M10.24,86.51c3.43.51,6.93.31,8.53-.3-2.97,1.53-8.53.3-8.53.3Z"/>
    </g>
  </g>
</svg>