<?xml version="1.0" encoding="UTF-8"?>
<svg id="Layer_2" data-name="Layer 2" xmlns="http://www.w3.org/2000/svg" viewBox="0 0 105.65 65.44">
  <defs>
    <style>
      .cls-1 {
        fill: #f3e5b3;
      }

      .cls-2 {
        fill: #bf300a;
      }

      .cls-3 {
        fill: #e2c76f;
      }

      .cls-4 {
        fill: #cccaca;
      }

      .cls-5 {
        fill: #e8e8e8;
      }
    </style>
  </defs>
  <g id="Layer_1-2" data-name="Layer 1">
    <g>
      <polygon class="cls-2" points="98.29 18.46 105.65 31 47.07 11.32 39.96 0 98.29 18.46"/>
      <polygon class="cls-4" points="32.45 45.17 38.44 63.4 47.07 11.32 39.96 0 32.45 45.17"/>
      <polygon class="cls-5" points="45.12 8.35 102.98 26.64 100.17 21.82 41.67 2.85 45.12 8.35"/>
      <g>
        <g>
          <circle class="cls-3" cx="37.34" cy="54.6" r="2.16"/>
          <circle class="cls-3" cx="39.72" cy="52.6" r="2.16"/>
          <circle class="cls-3" cx="37.04" cy="51.5" r="2.16"/>
        </g>
        <g>
          <circle class="cls-1" cx="37.39" cy="54.37" r="2.16"/>
          <circle class="cls-1" cx="39.78" cy="52.36" r="2.16"/>
          <circle class="cls-1" cx="37.1" cy="51.26" r="2.16"/>
        </g>
      </g>
      <g>
        <g>
          <circle class="cls-3" cx="34.62" cy="50.27" r="2.16"/>
          <circle class="cls-3" cx="35.23" cy="47.21" r="2.16"/>
          <circle class="cls-3" cx="32.46" cy="48.02" r="2.16"/>
        </g>
        <g>
          <circle class="cls-1" cx="34.52" cy="50.05" r="2.16"/>
          <circle class="cls-1" cx="35.13" cy="47" r="2.16"/>
          <circle class="cls-1" cx="32.35" cy="47.81" r="2.16"/>
        </g>
      </g>
      <g>
        <g>
          <circle class="cls-3" cx="40.66" cy="58.33" r="2.16"/>
          <circle class="cls-3" cx="43.05" cy="56.32" r="2.16"/>
          <circle class="cls-3" cx="40.37" cy="55.22" r="2.16"/>
        </g>
        <g>
          <circle class="cls-1" cx="40.72" cy="58.09" r="2.16"/>
          <circle class="cls-1" cx="43.1" cy="56.09" r="2.16"/>
          <circle class="cls-1" cx="40.42" cy="54.99" r="2.16"/>
        </g>
      </g>
      <g>
        <g>
          <circle class="cls-3" cx="39.42" cy="47.84" r="2.16"/>
          <circle class="cls-3" cx="40.69" cy="45" r="2.16"/>
          <circle class="cls-3" cx="37.8" cy="45.18" r="2.16"/>
        </g>
        <g>
          <circle class="cls-1" cx="39.37" cy="47.61" r="2.16"/>
          <circle class="cls-1" cx="40.64" cy="44.77" r="2.16"/>
          <circle class="cls-1" cx="37.75" cy="44.95" r="2.16"/>
        </g>
      </g>
      <g>
        <g>
          <circle class="cls-3" cx="43.23" cy="41.98" r="2.16"/>
          <circle class="cls-3" cx="44.5" cy="39.14" r="2.16"/>
          <circle class="cls-3" cx="41.61" cy="39.32" r="2.16"/>
        </g>
        <g>
          <circle class="cls-1" cx="43.18" cy="41.75" r="2.16"/>
          <circle class="cls-1" cx="44.45" cy="38.9" r="2.16"/>
          <circle class="cls-1" cx="41.56" cy="39.08" r="2.16"/>
        </g>
      </g>
      <g>
        <g>
          <circle class="cls-3" cx="20.23" cy="53.06" r="2.16"/>
          <circle class="cls-3" cx="23.23" cy="52.23" r="2.16"/>
          <circle class="cls-3" cx="21.25" cy="50.11" r="2.16"/>
        </g>
        <g>
          <circle class="cls-1" cx="20.38" cy="52.87" r="2.16"/>
          <circle class="cls-1" cx="23.38" cy="52.04" r="2.16"/>
          <circle class="cls-1" cx="21.4" cy="49.92" r="2.16"/>
        </g>
      </g>
      <g>
        <g>
          <circle class="cls-3" cx="25.26" cy="56.97" r="2.16"/>
          <circle class="cls-3" cx="28.26" cy="56.13" r="2.16"/>
          <circle class="cls-3" cx="26.28" cy="54.02" r="2.16"/>
        </g>
        <g>
          <circle class="cls-1" cx="25.4" cy="56.77" r="2.16"/>
          <circle class="cls-1" cx="28.4" cy="55.94" r="2.16"/>
          <circle class="cls-1" cx="26.43" cy="53.83" r="2.16"/>
        </g>
      </g>
      <g>
        <g>
          <circle class="cls-3" cx="31.37" cy="40.83" r="2.16"/>
          <circle class="cls-3" cx="34.37" cy="40" r="2.16"/>
          <circle class="cls-3" cx="32.39" cy="37.89" r="2.16"/>
        </g>
        <g>
          <circle class="cls-1" cx="31.52" cy="40.64" r="2.16"/>
          <circle class="cls-1" cx="34.52" cy="39.81" r="2.16"/>
          <circle class="cls-1" cx="32.54" cy="37.7" r="2.16"/>
        </g>
      </g>
      <g>
        <g>
          <circle class="cls-3" cx="41.69" cy="36.71" r="2.16"/>
          <circle class="cls-3" cx="44.69" cy="35.88" r="2.16"/>
          <circle class="cls-3" cx="42.71" cy="33.77" r="2.16"/>
        </g>
        <g>
          <circle class="cls-1" cx="41.84" cy="36.52" r="2.16"/>
          <circle class="cls-1" cx="44.84" cy="35.69" r="2.16"/>
          <circle class="cls-1" cx="42.86" cy="33.58" r="2.16"/>
        </g>
      </g>
      <g>
        <g>
          <circle class="cls-3" cx="35.91" cy="42.63" r="2.16"/>
          <circle class="cls-3" cx="38.91" cy="41.79" r="2.16"/>
          <circle class="cls-3" cx="36.93" cy="39.68" r="2.16"/>
        </g>
        <g>
          <circle class="cls-1" cx="36.05" cy="42.43" r="2.16"/>
          <circle class="cls-1" cx="39.05" cy="41.6" r="2.16"/>
          <circle class="cls-1" cx="37.08" cy="39.49" r="2.16"/>
        </g>
      </g>
      <g>
        <g>
          <circle class="cls-3" cx="3.16" cy="55.57" r="2.16"/>
          <circle class="cls-3" cx="5.02" cy="53.07" r="2.16"/>
          <circle class="cls-3" cx="2.16" cy="52.62" r="2.16"/>
        </g>
        <g>
          <circle class="cls-1" cx="3.16" cy="55.33" r="2.16"/>
          <circle class="cls-1" cx="5.02" cy="52.83" r="2.16"/>
          <circle class="cls-1" cx="2.16" cy="52.38" r="2.16"/>
        </g>
      </g>
      <g>
        <g>
          <circle class="cls-3" cx="9.9" cy="60.35" r="2.16"/>
          <circle class="cls-3" cx="11.76" cy="57.85" r="2.16"/>
          <circle class="cls-3" cx="8.9" cy="57.4" r="2.16"/>
        </g>
        <g>
          <circle class="cls-1" cx="9.9" cy="60.11" r="2.16"/>
          <circle class="cls-1" cx="11.76" cy="57.61" r="2.16"/>
          <circle class="cls-1" cx="8.9" cy="57.16" r="2.16"/>
        </g>
      </g>
      <g>
        <g>
          <circle class="cls-3" cx="28.49" cy="63.28" r="2.16"/>
          <circle class="cls-3" cx="29.49" cy="60.34" r="2.16"/>
          <circle class="cls-3" cx="26.63" cy="60.77" r="2.16"/>
        </g>
        <g>
          <circle class="cls-1" cx="28.41" cy="63.05" r="2.16"/>
          <circle class="cls-1" cx="29.42" cy="60.11" r="2.16"/>
          <circle class="cls-1" cx="26.56" cy="60.55" r="2.16"/>
        </g>
      </g>
      <g>
        <g>
          <circle class="cls-3" cx="33.89" cy="59.71" r="2.16"/>
          <circle class="cls-3" cx="34.9" cy="56.76" r="2.16"/>
          <circle class="cls-3" cx="32.04" cy="57.2" r="2.16"/>
        </g>
        <g>
          <circle class="cls-1" cx="33.82" cy="59.48" r="2.16"/>
          <circle class="cls-1" cx="34.83" cy="56.53" r="2.16"/>
          <circle class="cls-1" cx="31.97" cy="56.97" r="2.16"/>
        </g>
      </g>
      <g>
        <g>
          <circle class="cls-3" cx="27.6" cy="47.43" r="2.16"/>
          <circle class="cls-3" cx="29.46" cy="44.92" r="2.16"/>
          <circle class="cls-3" cx="26.6" cy="44.48" r="2.16"/>
        </g>
        <g>
          <circle class="cls-1" cx="27.6" cy="47.19" r="2.16"/>
          <circle class="cls-1" cx="29.45" cy="44.68" r="2.16"/>
          <circle class="cls-1" cx="26.59" cy="44.23" r="2.16"/>
        </g>
      </g>
      <g>
        <g>
          <circle class="cls-3" cx="28.94" cy="53.39" r="2.16"/>
          <circle class="cls-3" cx="30.8" cy="50.89" r="2.16"/>
          <circle class="cls-3" cx="27.94" cy="50.44" r="2.16"/>
        </g>
        <g>
          <circle class="cls-1" cx="28.94" cy="53.15" r="2.16"/>
          <circle class="cls-1" cx="30.8" cy="50.65" r="2.16"/>
          <circle class="cls-1" cx="27.94" cy="50.2" r="2.16"/>
        </g>
      </g>
      <g>
        <g>
          <circle class="cls-3" cx="45.94" cy="42.9" r="2.16"/>
          <circle class="cls-3" cx="47.79" cy="40.4" r="2.16"/>
          <circle class="cls-3" cx="44.93" cy="39.95" r="2.16"/>
        </g>
        <g>
          <circle class="cls-1" cx="45.94" cy="42.66" r="2.16"/>
          <circle class="cls-1" cx="47.79" cy="40.16" r="2.16"/>
          <circle class="cls-1" cx="44.93" cy="39.71" r="2.16"/>
        </g>
      </g>
      <polygon class="cls-2" points="38.44 63.4 101.45 60.51 105.65 31 47.07 11.32 38.44 63.4"/>
      <polygon class="cls-5" points="39.47 57.9 101.85 58.3 102.5 53.11 41.22 46.61 39.47 57.9"/>
      <polygon class="cls-5" points="42.25 40.71 103.42 46.82 104.09 42.27 44.25 29.5 42.25 40.71"/>
      <polygon class="cls-5" points="45.28 22.3 104.63 37.81 105.52 31.87 46.79 12.97 45.28 22.3"/>
    </g>
  </g>
</svg>