<?xml version="1.0" encoding="UTF-8"?>
<svg id="Layer_2" data-name="Layer 2" xmlns="http://www.w3.org/2000/svg" viewBox="0 0 127.35 135.62">
  <defs>
    <style>
      .cls-1 {
        fill: #949594;
      }

      .cls-2 {
        fill: gray;
      }

      .cls-3 {
        fill: #42672b;
      }

      .cls-4 {
        fill: #868686;
      }

      .cls-5 {
        fill: #4d4d4d;
      }

      .cls-6 {
        fill: #727471;
      }

      .cls-7 {
        fill: #4e4e4e;
      }

      .cls-8 {
        fill: #b0b0b0;
      }

      .cls-9 {
        fill: #848484;
      }

      .cls-10 {
        fill: #df0e11;
      }

      .cls-11 {
        fill: #3f622a;
      }

      .cls-12 {
        fill: #7e7e7e;
      }

      .cls-13 {
        fill: #5e5e5e;
      }

      .cls-14 {
        fill: #457128;
      }

      .cls-15 {
        fill: #8cf407;
      }

      .cls-16 {
        fill: #9e9e9e;
      }

      .cls-17 {
        fill: #7b7c7b;
      }

      .cls-18 {
        fill: #888;
      }

      .cls-19 {
        fill: #34402e;
      }
    </style>
  </defs>
  <g id="Layer_1-2" data-name="Layer 1">
    <g>
      <path class="cls-12" d="M39.7,32.24c-.2.71-.46,2-.22,2.67.04.12,1.8,1.32,2.1,1.5,2.72,1.63,6.65,1.99,9.82,2.26,1.21.1,5.77.5,6.55.13,1.31-.62.69-3.4.26-4.5,5.4.8,10.82,1.44,16.19,2.43,3.96.74,8.4,1.62,12.28,2.62,3.23.83,7.12,2.04,8.39,5.48.25.67.38,2.19.64,2.45.45.45,4.54,1.67,5.58,2.13,2.85,1.26,6.38,2.84,9.13,4.23,3.98,2.02,3.5,3.77,3.3,8.03-.2,4.17-1.07,8.58-1.31,12.83-.31,5.6-.33,11.36-.51,16.96-.1,2.96-.02,5.92-.25,8.87-.9,1.57-.1,1.56,0,2.57.41,3.94-.48,8.32-3.48,11.04-1.46,1.32-3.48,2.26-5.08,3.4-.89.64-1.72,1.58-2.51,2.12-2.4,1.64-5.2,3.03-7.56,4.77-.16,4.2-1.39,8.75-5.44,10.74-2.46,1.21-7.79.4-10.62.3-.03-.58-.59-.93-.72-1.47-.36-1.57,1.13-6.22,1.45-8.21,3.51-21.81,3.13-44.98,3.37-67.03.03-2.92.71-5.04-.38-8.08-.99-2.76-1.88-3.2-4.53-3.94-21.08-5.91-42.79-8.25-64.57-7.88-3.19.05-6.51,1.55-9.64,2.06,4.15-8.64,20.16-7.72,28.14-8.73l9.63.25ZM95.07,47.91v.26c.17-.09.17-.17,0-.26ZM93.14,99.55c-.27,5.43-.49,11.06-1.04,16.56l-.12,9.65c.95.03.59-9.43.63-10.42.21-5.25.54-10.55.78-15.79.72-15.59,2.48-31.9,2.32-47.41-.01-1.16-.41-2.52-.39-3.72-.3,3.02-.05,6.1-.12,9.13-.32,13.97-1.37,28.01-2.07,42Z"/>
      <path class="cls-8" d="M76.96,135.26c-12.04-.4-25.43-1.2-37.32-3.15-6.23-1.02-12.99-3.37-19.15-5-5.32-1.41-10.99-1.98-15.71-4.84-.3-.18-.5-.6-.8-.75-.58-.28-1.42-.06-1.92-.65-1.64-7.74-1.25-15.44-1.4-23.27-.21-10.65-.49-21.45-.54-32.09-.03-6.33-.77-19.44,1.81-24.81,3.12-.5,6.45-2,9.64-2.06,21.79-.37,43.49,1.97,64.57,7.88,2.66.75,3.55,1.19,4.53,3.94,1.09,3.04.41,5.15.38,8.08-.24,22.06.14,45.22-3.37,67.03-.32,1.99-1.81,6.64-1.45,8.21.12.54.68.88.72,1.47ZM70.53,71.29c0-3.22.79-6.8.19-10.08-.33-1.82-1.87-4.71-3.78-5.21-11.89-3.14-24.31-5.83-36.62-7.05-4.11-.41-14.45-1.57-17.83-.11-.36.15-1.63.84-1.57,1.39-1.35.52-1.67,1.34-2.06,2.57l-.47.03c-.35.56-.03,1.12-.04,1.25-.32,2.91-1.1,5.79-1.28,8.74l-.27.62c.02.47.28.38.27.41-.2,1.88-.62,3.75-.51,5.65h-.51c-.1.26.25.48.26.51.03.44-.15.87-.26,1.28l-.25.36c-.02.19.25.14.25.15-.15,1.87-.42,3.75-.26,5.65v.77l.52,18.37c.27,3.39,1.26,6.62,2.05,9.89-.4.39-.35,1.64-.25,2.19s.41.5.51.64c.39.57.7.9,1.28,1.28.79,1.65,3.98,3.14,5.71,3.67,1.53.47,11.71,2.3,13.05,2.24.21.23.47.27.77.26.17,0,.34,0,.51,0,2.89.83,5.97,1.51,8.94,1.98,1.44.23,3.26.59,4.68.59.17,0,.35.01.51,0,.12.34.49.25.77.26,2.99.12,6.36,1.22,9.25,1.03.12.33.49.25.77.26.42.02.87.03,1.28,0,.27.43.97.26,1.41.26,5.39.07,6.98.45,9.25-4.89,2.93-6.91,3.37-22.67,3.73-30.57.23-4.9,0-9.54,0-14.39ZM7.75,115.02c-2.26.21-2.3,5.28.18,5.02,2.12-.23,1.98-5.22-.18-5.02ZM11.44,118.56l-1.17.24c-.88,1.24,1.61,2.23,1.17-.24ZM59.15,126.32c-1.18.36-.91,2.51.52,2.73,2.02.31,1.87-3.45-.52-2.73ZM56.57,126.56c-.91.3-.3,1.98.68,1.74,1.07-.27,1-2.3-.68-1.74Z"/>
      <path class="cls-5" d="M39.7,32.24c.71-2.5,2.66-3.72,4.88-4.75-.52-.86-1.54-1.12-2.18-1.67-1.28-1.1-6.85-7.12-7.54-8.39-.62-1.14-.68-2.54-1.22-3.66-1.46-3.02-4.07-6.06-5.8-9.36-.55-1.05-2.44-2.87-1.52-4.13s2.92,2.16,3.32,2.85c1.78,3.13,3.75,6.26,5.49,9.41.93,1.67,1.01,3.2,2.05,4.88,2.38,3.85,5.5,6.68,8.8,9.7.49.32,2.81.4,3.17.19.1-.06,1.16-1.63,1.31-1.9.77-1.48,2.41-6.15,2.34-7.67-.11-2.36-.9-4.8-1.02-7.2-.06-1.08-.18-3.42,0-4.37.06-.31.09-.5.42-.61,2.37-.79,1.09,3.33,1.11,4.45.05,2.78,1.35,6.7,1.01,9.24-.15,1.1-2.27,6.43-2.94,7.34-.39.53-1.06.33-.89,1.03,3.3,1.02,6.41,3.39,7.71,6.68.43,1.1,1.05,3.87-.26,4.5-.78.37-5.34-.03-6.55-.13-3.17-.27-7.1-.63-9.82-2.26-.29-.18-2.06-1.38-2.1-1.5-.24-.67.02-1.96.22-2.67Z"/>
      <path class="cls-7" d="M111.64,100.32c.98-1.71,6.4-5.42,8.34-5.66.64-.08,2.21-.09,2.84,0,1.65.23,4.33,2.99,4.5,4.75.13,1.37-.23,6.11-.6,7.39-.47,1.62-2.83,4.55-2.97,5.53-.09.6.59,1.5.7,2.27.24,1.69-.32,5.59-2.64,5.43-1.12-.08-1.38-1.05-2.23.84-1.07-.24.02-2.05-.25-2.31-1.97-.43-1.5,1.39-2.57,2.31l.75-3.18-1.16-.66c-.21-2.13,1.86-3.75,3.57-4.69.47-.26,1-.12,1.48-.58.16-.15,2.06-3.31,2.23-3.68,1.19-2.59,1.59-9.6-1.54-10.92-.26-.11-2.27-.18-2.57-.14-1.06.15-2.49,1.68-3.28,2.37-.31.27-.83.35-1.15.65-.88.82-1.56,3.05-3.46,2.83-.1-1-.9-1,0-2.57Z"/>
      <path class="cls-13" d="M93.4,99.55h-.26c.7-13.98,1.75-28.03,2.07-42,.07-3.04-.18-6.11.12-9.13-.01,1.2.38,2.55.39,3.72.16,15.51-1.6,31.83-2.32,47.41Z"/>
      <path class="cls-13" d="M93.4,99.55c-.24,5.24-.57,10.54-.78,15.79-.04.99.32,10.45-.63,10.42l.12-9.65c.55-5.5.77-11.13,1.04-16.56h.26Z"/>
      <path class="cls-13" d="M95.07,47.91c.17.09.17.17,0,.26v-.26Z"/>
      <path class="cls-19" d="M42.53,52.02c1.28.26,2.57.5,3.85.77.22.05.53-.03.77,0h.26c5.31,2.03,11.49,1.69,16.84,3.85,1.45.59,3.35,1.31,3.66,3.02,1.85,10.3.48,20.62.05,31.02-.32,7.76.05,16.19-1.3,23.88-.78,4.45-2.56,3.81-5.88,5.29-7.64,1.01-15.14-1.46-22.56-2.75-7.16-1.24-22.61-2.72-28.31-6.5-.58-.39-.89-.72-1.28-1.28.11-1.08-.02-1.84-.26-2.83-.79-3.27-1.78-6.5-2.05-9.89l-.52-18.37c.39-.04.39-.73,0-.77-.16-1.91.11-3.78.26-5.65l.23-.35-.23-.16c.1-.42.29-.84.26-1.28l.26-.51c-.11-1.9.32-3.78.51-5.65.32-.25.43-.88,0-1.03.19-2.94.96-5.82,1.28-8.74.41-.33.38-.84.51-1.28.38-1.23.7-2.05,2.06-2.57,2.16-.83,4.1-1.6,6.56-1.55,6.95.13,16.77,2.22,23.84,3.4.35.06.99.41,1.2-.05ZM8.87,78.74c-.19,5.18-1.47,11.87-1.04,17.1.12,1.49.81,3.62,1.02,5.15.19,1.33.25,2.87.28,4.22.45.06.24-.58.25-.9.04-.95.08-2.16,0-3.09-.14-1.63-1.04-4.36-1.05-5.91,0-.96.49-2.05.54-3.08.23-4.3-.07-8.94.25-13.24.16-2.2.52-4.77.8-7.04.49-3.94,1.38-12.73,2.75-16.01.31-.75,1.18-2.4,1.91-2.72,3.99-.44,8.11.38,12.14.59l.39-.52c-1.88-.31-3.93-.78-5.81-1-1.85-.22-4.86-.55-6.65-.55-2.3,0-3.71,3.64-4.25,5.51-.65,2.25-.13,3.07-.25,5.15-.24,4.04-1.46,8.43-1.55,12.58-.03,1.32.32,2.44.27,3.74ZM37.26,55.1c-1.24-.1-2.59.07-3.85,0l-.38.39.38.39h4.88c.15,0,.58-.36.9-.26v-.25c-.68.25-1.46-.22-1.93-.26Z"/>
      <path class="cls-17" d="M70.53,71.29h-.77c-.16.83.16,1.56.26,2.31.04,3.25-.06,6.51,0,9.76.01.77-.01,1.55,0,2.31h.51c-.36,7.9-.8,23.66-3.73,30.57-2.27,5.34-3.86,4.96-9.25,4.89-.43,0-1.14.16-1.41-.26.96-.07,3.61-.25,4.44-.52.31-.1.16-.5.18-.51,3.33-1.49,5.1-.85,5.88-5.29,1.35-7.69.98-16.12,1.3-23.88.43-10.4,1.8-20.71-.05-31.02-.31-1.71-2.21-2.43-3.66-3.02-5.34-2.16-11.52-1.82-16.84-3.85h-.26c-.24-.03-.55.05-.77,0,.04-.84-1.63-1.07-2.25-1.21-2.26-.51-4.94-.73-7.25-.84l3.61.63c.66.03,1.51.55,2.04.66-.21.45-.85.11-1.2.05-7.07-1.18-16.89-3.27-23.84-3.4-2.46-.05-4.4.72-6.56,1.55-.07-.55,1.21-1.23,1.57-1.39,3.38-1.46,13.72-.3,17.83.11,12.31,1.23,24.73,3.92,36.62,7.05,1.91.5,3.45,3.4,3.78,5.21.6,3.28-.2,6.86-.19,10.08Z"/>
      <path class="cls-6" d="M60.77,119.85s.13.41-.18.51c-.83.27-3.48.45-4.44.52-.41.03-.87.02-1.28,0,.13-1.05-.56-.27-.77-.26-2.89.19-6.26-.91-9.25-1.03.13-1.05-.56-.27-.77-.26-.17.01-.34,0-.51,0,.15-.73-.36-.49-.81-.59-3.59-.83-9.34-2.1-12.81-1.98-.17,0-.34,0-.51,0v-.51c-.64-.2-.72.25-.77.26-1.33.06-11.51-1.77-13.05-2.24-1.73-.53-4.92-2.02-5.71-3.67,5.7,3.78,21.15,5.27,28.31,6.5,7.42,1.28,14.92,3.76,22.56,2.75Z"/>
      <path class="cls-2" d="M7.75,115.02c2.16-.2,2.3,4.79.18,5.02-2.48.27-2.44-4.81-.18-5.02Z"/>
      <path class="cls-18" d="M29.94,116.77c3.47-.12,9.21,1.15,12.81,1.98.45.1.96-.14.81.59-1.42,0-3.24-.36-4.68-.59-2.97-.47-6.05-1.15-8.94-1.98Z"/>
      <path class="cls-4" d="M70.53,71.29c0,4.85.23,9.49,0,14.39h-.51c-.01-.77.01-1.54,0-2.31.43-.27.26-.97.26-1.41.03-2.79.11-5.63-.26-8.35-.1-.75-.42-1.49-.26-2.31h.77Z"/>
      <path class="cls-15" d="M59.15,126.32c2.39-.72,2.54,3.04.52,2.73-1.43-.22-1.7-2.38-.52-2.73Z"/>
      <path class="cls-10" d="M56.57,126.56c1.68-.56,1.75,1.47.68,1.74-.99.25-1.59-1.43-.68-1.74Z"/>
      <path class="cls-9" d="M11.44,118.56c.44,2.47-2.05,1.48-1.17.24l1.17-.24Z"/>
      <path class="cls-6" d="M8.61,109.31c-.09-.14-.41-.08-.51-.64s-.14-1.8.25-2.19c.24.99.36,1.75.26,2.83Z"/>
      <path class="cls-17" d="M8.87,52.79c-.14.44-.11.95-.51,1.28.01-.13-.31-.69.04-1.25l.47-.03Z"/>
      <path class="cls-17" d="M7.07,63.84s-.25.07-.27-.41l.27-.62c.43.15.32.78,0,1.03Z"/>
      <path class="cls-17" d="M5.78,78.23v-.77c.39.04.39.73,0,.77Z"/>
      <path class="cls-18" d="M28.65,116.51s.13-.45.77-.26v.51c-.3.01-.56-.03-.77-.26Z"/>
      <path class="cls-18" d="M44.07,119.33c.21-.02.9-.79.77.26-.28-.01-.65.08-.77-.26Z"/>
      <path class="cls-17" d="M54.09,120.62c.21-.01.9-.79.77.26-.28-.01-.65.08-.77-.26Z"/>
      <path class="cls-17" d="M6.04,71.8s-.27.04-.25-.15l.25-.36.23.16-.23.35Z"/>
      <path class="cls-17" d="M6.55,69.49l-.26.51s-.35-.26-.26-.51h.51Z"/>
      <path class="cls-14" d="M8.87,78.74c.05-1.29-.29-2.42-.27-3.74.09-4.15,1.31-8.54,1.55-12.58.12-2.08-.4-2.9.25-5.15.54-1.87,1.95-5.51,4.25-5.51,1.79,0,4.8.33,6.65.55,1.88.22,3.93.69,5.81,1l-.39.52c-4.03-.21-8.14-1.03-12.14-.59-.73.31-1.6,1.96-1.91,2.72-1.37,3.27-2.26,12.06-2.75,16.01-.28,2.27-.64,4.83-.8,7.04l-.26-.26Z"/>
      <path class="cls-3" d="M9.12,79c-.32,4.3-.02,8.94-.25,13.24-.05,1.03-.55,2.11-.54,3.08.01,1.55.91,4.28,1.05,5.91.08.93.04,2.14,0,3.09-.01.31.19.96-.25.9-.03-1.35-.09-2.89-.28-4.22-.22-1.52-.9-3.65-1.02-5.15-.43-5.23.85-11.92,1.04-17.1l.26.26Z"/>
      <path class="cls-1" d="M46.38,52.79c-1.28-.27-2.57-.51-3.85-.77-.53-.11-1.38-.63-2.04-.66l-3.61-.63c2.31.11,4.99.33,7.25.84.63.14,2.29.37,2.25,1.21Z"/>
      <path class="cls-11" d="M37.26,55.1c.47.04,1.24.51,1.93.26v.25c-.32-.1-.74.26-.9.26h-4.88l-.38-.39.38-.39c1.26.07,2.61-.1,3.85,0Z"/>
      <path class="cls-16" d="M70.02,83.36c-.06-3.25.04-6.51,0-9.76.37,2.72.3,5.56.26,8.35,0,.43.16,1.14-.26,1.41Z"/>
    </g>
  </g>
</svg>