<?xml version="1.0" encoding="UTF-8"?>
<svg id="Layer_2" data-name="Layer 2" xmlns="http://www.w3.org/2000/svg" viewBox="0 0 50.57 114.73">
  <defs>
    <style>
      .cls-1 {
        fill: #d8ad25;
      }

      .cls-2 {
        fill: #e8cd81;
      }

      .cls-3 {
        fill: #977714;
      }

      .cls-4 {
        fill: #937414;
      }

      .cls-5 {
        fill: #987818;
      }

      .cls-6 {
        fill: #dbac12;
      }

      .cls-7 {
        fill: #a17f1b;
      }

      .cls-8 {
        fill: #9e7d15;
      }

      .cls-9 {
        fill: #9e8027;
      }

      .cls-10 {
        fill: #daab0e;
      }

      .cls-11 {
        fill: #b79325;
      }

      .cls-12 {
        fill: #9c7b17;
      }

      .cls-13 {
        fill: #dfb745;
      }

      .cls-14 {
        fill: #e1bc4f;
      }

      .cls-15 {
        fill: #9c7c1b;
      }
    </style>
  </defs>
  <g id="Layer_1-2" data-name="Layer 1">
    <g>
      <path class="cls-10" d="M17.66,70.76c-.06-.17.12-.49-.03-.72-2.21-.11-4.33-.32-6.11-1.74-.43-.34-.62-1.15-.82-1.27-.84-.49-2.09-.08-3.74-1.42-2.67-2.17-1.78-3.93-2.77-5.45-.16-.25-.89-.37-1.22-.87-1.63-2.45-.83-3.76-1.42-5.84-.18-.64-1.14-1.08-1.37-2.07-.68-2.94.69-4.6.99-6.89.39-2.93-.98-5.14.76-8.78,1.6-3.33.47-2.02.83-5.28.16-1.44,1.26-4.74,1.81-6.2.17-.46.8-.42.87-.74.42-1.99.71-5.03,1.82-6.9.45-.75,1.39-1,1.56-1.5.7-2.06.25-4.51,1.7-7.48.9-1.85,1.82-1.5,2.1-1.9.75-1.05-.14-2.05,2.39-3.53,2.74-1.6,3.02-.37,4.7-.69.6-.11.91-1.23,1.96-1.43,1.26-.25,2.39.32,3.38.25,4.97-.34,5.26-.58,10.18,1.06,3.08,1.02,2.26,1.83,3.11,2.43.56.4,1.68.47,3.17,1.62.98.76,1.69-.21,1.35,2.27,3.75-.49,3.82,4.7,5.06,6.4,1.33,1.83,1.65,1.49,1.81,4.49s.16,2.83.66,5.45c.36,1.91.44,6.2-2.2,6.03.65.71,1.85,1.96,2.11,2.85.6,2-.73,9.03-1.14,11.5-.34,2.06-.49,2.44-.66,4.65-.3,3.73-3.54,6.27-3.74,7.07-.34,1.31.08,2.97-1.12,4.42-.56.68-2.82,1.29-2.99,1.5-.33.41.01,1.77-1.2,2.81-.5.43-2.29,1.23-2.92,1.31-.79.1-1.79-.35-2-.29-.54.16-1.25,3.31-3.28,4.14-1.88.78-4.13.37-5.68.81-.44.13-.73.72-1.07.84-1.76.63-3.15.51-4.92-.15v4.21s1.46-.07,1.46-.07l1.21-2.61c1.17-.19.59.29.76.76-1.43-.19-1.1,2.13-1.17,3.23.13.48.9.09,1.17.21.4.18,1.06.53,1.53.76l1.15,3.26-1.53,2.09c-.25,0-.51-.01-.76,0-.18-.46-.73-.42-1.14-.38-1.49.13-1.75,3.46-1.14,4.59.41.77,1.22,1.4,1.91,1.91-2.33.27,1.45,2.07,1.72,2.29,5.85,4.92.64,11.29-5.16,12.81l-.33.43c-.07.28.34.48.34.52,0,.38-.04.77,0,1.15.02.25-.01.51,0,.76h-.38c-.07-.73.25-.88-.76-.76.29,1.76-.4,3.47-.4,5.15,0,1.23-.3,1.51,1.16,1.34-.05.37-.22,1.44-.64,1.54l-1.59-.07c-1.02-.62.6-6.25.32-7.58l-6.1-.76c.15,1.9-.06,3.57-.8,5.31l-1.51-.13c-.67-.47.21-4.59.02-5.95-.17-1.23-2.71-2.25-3.24-3.44-.33-.76-.05-2.01-.25-2.24-.18-.2-1.54.02-1.83-1.44-.13-.67.53-.45.61-.61.08-.17-.2-.46-.14-.59.06-.11.56-.11.77-.55.43-.91-.09-2.2,1.41-2.21-.37,1.12,2.31,3.62,3.05,3.05.07-.23-.06-.6,0-.76.32-.77.25-.82.38-1.53.18-.99.64-1.91.38-3.06.02.12.36.4.4.92.14,1.72-.12,3.62-.04,5.37.13.48.96.09,1.17.21.05.03.59.6.76.76.04.04-.14.5.24.79.33.24,2.98,1,3.48,1.04.69.05,1.91-.08,1.62-1.06-.79.3-1.44-.29-1.91-.38l2.49-.37.53-5.32c-2.59-.23-4.84-1.62-7.21-2.33-.54-.16-.73-.44-1.53,0-.37-1.55-.52-2.03-1.53-3.44.5.05,1.02-.03,1.52,0l-.18-1.17c-.29-.49-1.98-.07-2.49.03-.23.04-.52-.03-.76,0-.03-.12.03-.26,0-.38-.1-.46-.39-1.13-.38-1.53h1.53s-.57-1.9-.57-1.9c-.13,0-.91,1.32-.95,1.52h-.38c-.03-.87.1-1.85,0-2.68.7-.17.58-.69.76-1.15.15-.39.4-.35.38-1.15.18-.05.34-.2.38-.38l.38.38c-.21.31-.97,1.69-.76,1.91,1.34.08,1.28-1.61,1.9-2.49,1.23-1.73,1.26-.79,1.91-3.24.4-1.5.36-3.06,1.34-4.2,1.18-.17.16.87.16,1.31l.79.4c.2.87-.6.39-.77.84-.11.3.05.66,0,.87-.01.06-.55.27-.38.76l4.58-.38c.15-.39-.38-.72-.38-.76-.01-.43.3-1.05.38-1.53l1.12-.02c.15-1.1.38-1.61.03-2.65ZM31.39,3.11c.85-2.07-4.75-2.12-4.96-1.91,0,.7-.2,2.03.62,2.27l4.34-.36ZM21.09,4.64c-1.17.2-1.41,1.52-2.53,2.25-.49.31-1.55.38-1.62.47-.16.18.02,2.03-.13,2.74-.39,1.86-1.97,5.19-2.95,6.88-.21.36-.9.38-1.08.91-.53,1.51-.57,4.2-1.44,5.84-.53,1.01-2.12,1.51-2.38,2.2-.94,2.51-.11,5.33-2.2,8.12-.3.39-1.18.59-1.29,1.02-.07.27.76,1.6.77,2.63.02,1.96-1.48,4.61-1.49,5.82,0,.71.9.96,1.07,1.84.38,1.93-.62,5.34-.41,6.42.08.42,1.2.39,1.48,1.29.36,1.17-.05,4.86.12,5.05.09.1.88.06,1.31.4.32.26.4.77.68,1.03,1.19,1.13,2.65,1.99,2.93,3.95l1.28-.41c.26.58,4.24,2.27,4.64,2.31,1.18.12,3.05-.89,4.56-.78,1.14.08,2.47,1.1,3.52,1.09.84,0,1.45-1.46,2.67-1.74,1.45-.33,2.9.05,4.31.3.39.07.85.38,1.14.19l-1.14-.58c-.51-2.1,1.17-3.76,2.96-4.49.86-.35,2.43-.39,2.69-.55.14-.09.99-2.37,1.43-2.96.57-.77,1.94-1.51,2.01-1.63.28-.48-.44-2.14-.16-3.39.12-.56,2.21-4.44,2.52-4.57.52-.21,1.41.51,1.14-.76l-1.14.38c-1.71-1.41-.55-4.65.3-6.39.27-.55,1.13-1.19,1.19-1.5.07-.42-.63-.91-.71-1.49-.32-2.3,0-4.83,1.51-6.67-4.27.04-1.5-5.26-1.49-7.46,0-1.31-.76-2.28-.82-3.45-.04-.87.59-2.4.25-2.87-.25-.33-1.14-.31-1.71-.98-.71-.84-1.16-3.49-1.56-3.79-.36-.27-1.27-.21-1.81-.48-1.97-.94-2.46-4.32-2.81-4.63-.25-.22-2.1.07-2.81-.06-.84-.16-1.31-.94-2.32-1.11-1.47-.24-3.56.28-4.87-.03-.33-.08-.12-.82-.82-.8-1.62.05-1.69,1.82-4.02.81-.42-1.54,1.43-1.33,2.24-1.96.96-1.71-3.34-2.48-3.3.14,0,.12.27,1.37.3,1.44ZM17.93,5.29c.39-.33.91-1.39.87-1.97-.54-1.97-5.47,1.48-4.57,2.46,1.21-.69,2.76.28,3.7-.5ZM36.71,3.53l-3.02-.8v1.91s3.05,0,3.05,0l-.03-1.11ZM41.28,6.98c-1.12-.39-1.65-1.51-3.02-1.19-.12,1.3.8,2.29,1.74,3.04.68.16,1.51-1.51,1.27-1.85ZM14.99,8.85c-.85-.16-2.15-.87-2.86,0-.65.79-2.18,5.68-.75,6.11,1.79.51,3.83-5.8,3.61-6.1ZM43.43,9.61c-2.4.53.92,7.03,2.47,3.64-.25-.65-1.71-3.81-2.47-3.64ZM47.8,16.11c-2.82.75-1.51,3.44-.76,5.35,2.09-1.25.51-3.48.76-5.35ZM10.77,18.04c-.28-.31-1.75-.5-2.23.2-.63.93-2.22,5.02-.55,5.47,1.8.48,3.13-5.28,2.77-5.67ZM48.57,23.75l-1.95.23c-.16.87-.76,1.79-.76,2.66,0,.59,1.12.69.83,1.65h1.26s.56-.58.56-.58l.06-3.96ZM5.44,32.92c.46-1.22,2.53-6.46.57-6.88-.61-.13-.84.46-.94.97-.3,1.6-.76,3.84-.39,5.34.14.57-.27.68.75.57ZM47.8,29.48h-.76v.76h.76v-.76ZM48.56,37.89c.26-2.44.88-4.09-.95-6.11-1.39.66-1.33,6.11.95,6.11ZM2.78,42.48c1.09-1.22,2.15-4.71.95-6.11-1.17,1.85-.99,4.02-.95,6.11ZM47.38,45.11l.36-4.68-.3-.46-1.14-.15c-.74,1.83-1.52,3.24-1.17,5.34l2.25-.04ZM3.92,46.3l-1.85.63-.05,4.34c2.78.12,1.74-3.11,1.9-4.97ZM46.66,47.83l-1.46.07c-.25,1.03-3.29,5.48-1.38,6.05,2.07.62,2.92-4.72,2.85-6.11ZM3.16,53.56c-.17,1.71.1,3.32,1.34,4.58,1.14-.99,1.08-2.57.9-3.95-.29-.88-1.49-.61-2.23-.63ZM43.22,55.86c-.84-.88-2.66,2.27-3.05,2.87-.33.5-.73.56,0,1.15,1.84,1.22,3.43-2.55,3.06-4.02ZM10.41,65.02c.23-1.7-.95-2.81-2.09-3.82-.37-.33-1.06-.33-1.34-.57-.56-.49-.06-1.39-.76-1.33-.54,2.69,1.17,5.92,4.19,5.73ZM39.03,60.82c-1.81-.7-5.4,1.38-3.86,3.27,1.33,1.63,4.88-1.14,3.86-3.27ZM34.26,65.03v.38c.25-.13.25-.25,0-.38ZM17.28,68.46c.07-2.42-3.15-2.63-4.96-3.05-.06,2.69,3.15,2.31,4.96,3.05ZM32.54,65.79c-1.09.06-1.95-.57-3.06-.23-.45.14-3.94,2.84-3.42,3.28,2.42.12,5.72-.34,6.48-3.05ZM19.21,66.96l.34,2.87c2.09.39,5.15,1.44,4.6-1.91-.37-2.27-3.39-1.08-4.94-.96ZM15.37,82.23c.25-1.51-2.32-.62-2.82-.34-2.95,1.68.8,5.23,2.8,5.89,1.27.42,1.26.26,1.16-.97.93.32,2.41.38,3.43.77l.33-4.35c-.4-1.15-3.92-1.11-4.91-1.01ZM20.71,95.22c-.21-.06-.5-.65-1.14-.38v3.98c0,.38.9.28,1.14.23,1.46-.3,3.35-1.79,2.21-3.36-.74-.15-1.48-.26-2.21-.46Z"/>
      <path class="cls-1" d="M19.57,106.69c-.04-.37,0-.77,0-1.15,6.12-.41,12.21-7.82,7.42-13.35-1.16-1.34-2.76-1.79-3.98-2.7-.69-.52-1.49-1.14-1.91-1.91.9-.23.55-1.36,1.14-1.91.04.71-.19,1.67.19,2.3.61,1.01,4.79,1.67,6.61,4.85,4.07,7.11-2.25,13.66-9.46,13.88Z"/>
      <path class="cls-2" d="M9.65,95.22c-.13.71-.06.76-.38,1.53-.6-.96-1.85-2.3-3.05-2.29-1.49.01-.98,1.3-1.41,2.21-.21.45-.71.44-.77.55-.06.12.22.41.14.59-.08.16-.74-.06-.61.61.28,1.46,1.65,1.25,1.83,1.44.2.23-.08,1.48.25,2.24.52,1.2,3.07,2.21,3.24,3.44-3.81-.63-9.18-10.53-3.54-11.77,2.2-.49,2.56.81,4.3,1.45Z"/>
      <path class="cls-11" d="M24.15,83.37l1.53-2.09-1.15-3.26c3.13,1.54,4.39,5.92.56,5.77-.51-.02-.89-.42-.94-.42Z"/>
      <path class="cls-15" d="M11.55,91.78v6.88c-.21-.12-1.04.27-1.17-.21-.08-1.75.18-3.64.04-5.37-.04-.52-.38-.81-.4-.92-.02-.13.03-.27,0-.38.79-.44.99-.16,1.53,0Z"/>
      <path class="cls-3" d="M19.19,113.18c-1.46.17-1.16-.11-1.16-1.34,0-1.68.69-3.39.4-5.15,1.01-.11.69.03.76.76.13,1.35.07,3.2,0,4.59-.02.38.05.78,0,1.15Z"/>
      <path class="cls-9" d="M23,73.82c.38,1.04.86,2.46,0,3.44-.27-.12-1.03.27-1.17-.21.06-1.1-.26-3.42,1.17-3.23Z"/>
      <path class="cls-5" d="M22.24,82.99v.76c0,.63-.04,1.28,0,1.91-.59.55-.24,1.68-1.14,1.91-.61-1.13-.35-4.46,1.14-4.59Z"/>
      <path class="cls-10" d="M10.79,76.11c-.65,2.46-.69,1.51-1.91,3.24-.62.87-.56,2.56-1.9,2.49-.21-.22.55-1.6.76-1.91.32-.46,1.64-.71,1.09-2.03l-.33-.26s-.13-.42.25-.79c.41-.4,1.42-.77,2.04-.74Z"/>
      <path class="cls-13" d="M16.13,74.96s.53.37.38.76l-4.58.38c-.17-.49.37-.7.38-.76l3.82-.38Z"/>
      <path class="cls-14" d="M7.36,87.19c.51-.1,2.19-.52,2.49-.03l.18,1.17c-.5-.03-1.03.05-1.52,0-.45-.04-.76-.25-1.14-.38v-.76Z"/>
      <path class="cls-13" d="M17.66,70.76c.35,1.04.12,1.56-.03,2.65l-1.12.02c.17-1.01-.09-2.12,1.14-2.68Z"/>
      <path class="cls-1" d="M19.19,112.04c.07-1.39.13-3.23,0-4.59h.38c0,.05.4.38.4.92,0,.87-.43,2.8-.78,3.66Z"/>
      <path class="cls-14" d="M7.74,79.93l-.38-.38c.05-.22-.03-.52,0-.76.7-.39.72-.64,1.14-1.15l.33.26c.55,1.31-.77,1.56-1.09,2.03Z"/>
      <path class="cls-2" d="M6.21,84.9c-.02.12,0,.26,0,.38,0,.39.28,1.07.38,1.53-1.43.24-.75-1.4-.76-1.91h.38Z"/>
      <path class="cls-2" d="M6.59,81.08c-.18.46-.07.97-.76,1.15-.02-.13-.63-.58-.38-1.14h1.14Z"/>
      <path class="cls-2" d="M7.36,78.79c-.03.24.05.55,0,.76-.04.18-.2.33-.38.38,0-.08-.62-.62-.38-1.15.23-.06.63.07.76,0Z"/>
      <path class="cls-11" d="M23.38,83.37c-.09,0-.71.59-1.14.38v-.76c.41-.04.97-.08,1.14.38Z"/>
      <path class="cls-2" d="M7.36,87.19v.76c-.16-.06-.5.11-.72-.04-.14-.23,0-.53-.04-.73.24-.03.53.04.76,0Z"/>
      <path class="cls-4" d="M23,89.49c1.22.91,2.82,1.36,3.98,2.7,4.8,5.53-1.3,12.94-7.42,13.35,0-.04-.42-.24-.34-.52l.33-.43c5.81-1.52,11.01-7.89,5.16-12.81-.27-.22-4.05-2.02-1.72-2.29Z"/>
      <path class="cls-15" d="M16.51,86.81c.1,1.23.11,1.39-1.16.97-2.01-.67-5.75-4.22-2.8-5.89.5-.28,3.07-1.17,2.82.34-5.08.53-1.79,3.56,1.14,4.59Z"/>
      <path class="cls-8" d="M15.75,99.81c.46.09,1.12.69,1.91.38.29.98-.93,1.11-1.62,1.06-.5-.04-3.16-.8-3.48-1.04-.38-.28-.2-.75-.24-.79,1.06.38,2.47.19,3.43.38Z"/>
      <path class="cls-7" d="M20.71,95.22v3.82c-.24.05-1.15.16-1.15-.23v-3.98c.65-.27.94.32,1.15.38Z"/>
      <path class="cls-12" d="M9.27,96.75c-.07.16.06.53,0,.76-.74.56-3.41-1.93-3.05-3.05,1.2-.01,2.45,1.33,3.05,2.29Z"/>
      <path class="cls-14" d="M6.21,84.9c.04-.2.82-1.52.95-1.52l.57,1.9h-1.53c0-.12-.02-.26,0-.38Z"/>
      <path class="cls-6" d="M44.37,45.92l1.14-.38c.27,1.27-.62.55-1.14.76v-.38Z"/>
      <rect class="cls-6" x="47.04" y="29.48" width=".76" height=".76"/>
      <path class="cls-6" d="M32.92,64.26v-.38l1.14.58c-.28.18-.74-.13-1.14-.19Z"/>
      <path class="cls-6" d="M34.26,65.03c.25.13.25.25,0,.38v-.38Z"/>
    </g>
  </g>
</svg>