<?xml version="1.0" encoding="UTF-8"?>
<svg id="Layer_2" data-name="Layer 2" xmlns="http://www.w3.org/2000/svg" viewBox="0 0 72.18 48.25">
  <defs>
    <style>
      .cls-1 {
        fill: #f3e5b3;
      }

      .cls-2 {
        fill: #ca9638;
      }

      .cls-3 {
        fill: #bf8c38;
      }
    </style>
  </defs>
  <g id="Layer_1-2" data-name="Layer 1">
    <g>
      <path class="cls-1" d="M50.17,19.48c4.28-1.48,9.98-3.94,11.09-3.54,2.23.8,8.42,3.2,10.51-1.36,2.13-4.66-4.6-6.77-4.6-6.77.41-2.23.45-7.61-3-7.79s-5.46,3.42-5.94,4.51c-.48,1.09-.76,4.07-1.02,4.26s-9.57,4.28-9.57,4.28l2.53,6.43Z"/>
      <path class="cls-3" d="M45.17,21.23c-4.19-.88,7.19.2,4.65.76-2.33.52-14.34,6.84-17.27,9.49-2.93,2.65-8.51,12.42-11.71,14.33-3.21,1.91-11.78,5.21-20.84-1.98,9.41-2.19,8.66-6.64,8.39-6.93,2.54-.29,3.57-1.27,4.14-4.23.56-2.96-1.87-5.82-1.87-5.82.9-1.43,1.48-3.81-.48-5.98-1.96-2.17-6.58-.21-6.58-.21,1.71-2.86,5.7-6.82,11.16-6.68,5.46.14,1.21,2.84,6.83,2.67s2.58,11.34,6.19,5.55c1.58,3.45,2.99,2.56,2.99,2.56,2.3-.94,3.18-.88,3.47-1.23-.85,3.22-.17,2.73-.17,2.73,1.4.48,10.76-7.02,11.09-5.01Z"/>
      <path class="cls-2" d="M59.28,22.05c-4.19-.88-4.93-1.14-7.47-.57-2.33.52-14.34,6.84-17.27,9.49-2.93,2.65-8.51,12.42-11.71,14.33-3.21,1.91-13.76,5.73-22.83-1.47,11-.27,8.66-6.64,8.39-6.93,2.54-.29,5.56-1.79,6.13-4.75.56-2.96-3.18-5.36-3.18-5.36.9-1.43,2.79-4.27.83-6.44-1.96-2.17-8.57.3-8.57.3,1.71-2.86,5.99-9.26,11.45-9.12s14.77,2.5,20.39,2.32c5.62-.18,15.26-2.68,18.87-8.47,1.58,3.45.54,5.58.54,5.58,2.3-.94,3.18-.88,3.47-1.23-.85,3.22-4.94,6.74-4.94,6.74,1.4.48,5.56,3.59,5.89,5.59Z"/>
    </g>
  </g>
</svg>