<?xml version="1.0" encoding="UTF-8"?>
<svg id="Layer_2" data-name="Layer 2" xmlns="http://www.w3.org/2000/svg" viewBox="0 0 72.47 93.79">
  <defs>
    <style>
      .cls-1 {
        fill: #c97e11;
      }

      .cls-2 {
        fill: #ba5b0d;
      }

      .cls-3 {
        fill: #5b5b5b;
      }

      .cls-4 {
        fill: #ea6f00;
      }

      .cls-5 {
        fill: #ecc800;
      }

      .cls-6 {
        fill: #578fa3;
      }

      .cls-7 {
        fill: #6b6b6b;
      }

      .cls-8 {
        fill: none;
        stroke: #5b5b5b;
        stroke-miterlimit: 10;
      }

      .cls-9 {
        fill: #73bddd;
      }
    </style>
  </defs>
  <g id="Layer_1-2" data-name="Layer 1">
    <g>
      <rect class="cls-3" x="56.69" y="2.74" width="2.38" height="27.89" transform="translate(19.12 -29.43) rotate(33.87)"/>
      <polygon class="cls-3" points="3.17 84.02 0 76.55 18.79 86.33 21.96 93.79 3.17 84.02"/>
      <polygon class="cls-3" points="18.79 86.33 68.24 24.7 69.68 34.68 21.96 93.79 18.79 86.33"/>
      <polygon class="cls-7" points="0 76.55 38.74 12.77 68.24 24.7 18.79 86.33 0 76.55"/>
      <g>
        <path class="cls-1" d="M44.6,21.07l-.51-1.08-.13.06c-.94-.93-2.58-1.13-4.04-.41-1.48.74-2.31,2.2-2.1,3.53l-.1.05.06.14s.44.86.47.91c.74,1.35,2.58,1.63,4.34.75,1.72-.85,2.63-2.49,2-3.95Z"/>
        <ellipse class="cls-5" cx="40.95" cy="21.7" rx="3.58" ry="3" transform="translate(-5.38 20.47) rotate(-26.39)"/>
      </g>
      <g>
        <path class="cls-1" d="M52.36,24.82l-.51-1.08-.13.06c-.94-.93-2.58-1.13-4.04-.41s-2.31,2.2-2.1,3.53l-.1.05.06.14s.44.86.47.91c.74,1.35,2.58,1.63,4.34.75s2.63-2.49,2-3.95Z"/>
        <ellipse class="cls-5" cx="48.71" cy="25.45" rx="3.58" ry="3" transform="translate(-6.24 24.31) rotate(-26.39)"/>
      </g>
      <g>
        <path class="cls-1" d="M60.57,28.57l-.51-1.08-.13.06c-.94-.93-2.58-1.13-4.04-.41-1.48.74-2.31,2.2-2.1,3.53l-.1.05.06.14s.44.86.47.91c.74,1.35,2.58,1.63,4.34.75s2.63-2.49,2-3.95Z"/>
        <ellipse class="cls-5" cx="56.92" cy="29.2" rx="3.58" ry="3" transform="translate(-7.05 28.35) rotate(-26.39)"/>
      </g>
      <g>
        <path class="cls-1" d="M39.11,28.9l-.51-1.08-.13.06c-.94-.93-2.58-1.13-4.04-.41s-2.31,2.2-2.1,3.53l-.1.05.06.14s.44.86.47.91c.74,1.35,2.58,1.63,4.34.75,1.72-.85,2.63-2.49,2-3.95Z"/>
        <ellipse class="cls-5" cx="35.46" cy="29.53" rx="3.58" ry="3" transform="translate(-9.43 18.84) rotate(-26.39)"/>
      </g>
      <g>
        <path class="cls-1" d="M47.06,32.32l-.51-1.08-.13.06c-.94-.93-2.58-1.13-4.04-.41s-2.31,2.2-2.1,3.53l-.1.05.06.14s.44.86.47.91c.74,1.35,2.58,1.63,4.34.75s2.63-2.49,2-3.95Z"/>
        <ellipse class="cls-5" cx="43.41" cy="32.95" rx="3.58" ry="3" transform="translate(-10.12 22.73) rotate(-26.39)"/>
      </g>
      <g>
        <path class="cls-1" d="M54.34,36.42l-.51-1.08-.13.06c-.94-.93-2.58-1.13-4.04-.41s-2.31,2.2-2.1,3.53l-.1.05.06.14s.44.86.47.91c.74,1.35,2.58,1.63,4.34.75s2.63-2.49,2-3.95Z"/>
        <ellipse class="cls-5" cx="50.69" cy="37.05" rx="3.58" ry="3" transform="translate(-11.19 26.39) rotate(-26.39)"/>
      </g>
      <g>
        <path class="cls-1" d="M25.42,66.7l-1.24-2.6-.29.14c-2.23-2.27-6.04-2.85-9.38-1.19-3.4,1.69-5.24,5.16-4.7,8.35l-.24.12.16.34c.05.12,1.07,2.08,1.13,2.19,1.77,3.28,6.05,4.03,10.11,2.01,3.93-1.95,5.97-5.83,4.45-9.37Z"/>
        <ellipse class="cls-5" cx="16.98" cy="68.03" rx="8.2" ry="7.27" transform="translate(-28.47 14.64) rotate(-26.39)"/>
      </g>
      <g>
        <path class="cls-1" d="M23.21,50.7l-.34-.72-.08.04c-.63-.62-1.72-.76-2.69-.27-.99.49-1.54,1.47-1.4,2.35l-.07.03.04.09s.3.57.31.6c.49.9,1.72,1.08,2.89.5s1.75-1.66,1.33-2.63Z"/>
        <ellipse class="cls-5" cx="20.78" cy="51.12" rx="2.38" ry="2" transform="translate(-20.56 14.57) rotate(-26.39)"/>
      </g>
      <g>
        <path class="cls-6" d="M28.89,53.92l-.34-.72-.08.04c-.63-.62-1.72-.76-2.69-.27-.99.49-1.54,1.47-1.4,2.35l-.07.03.04.09s.3.57.31.6c.49.9,1.72,1.08,2.89.5,1.14-.57,1.75-1.66,1.33-2.63Z"/>
        <ellipse class="cls-9" cx="26.45" cy="54.34" rx="2.38" ry="2" transform="translate(-21.4 17.42) rotate(-26.39)"/>
      </g>
      <g>
        <path class="cls-2" d="M35.68,57.29l-.34-.72-.08.04c-.63-.62-1.72-.76-2.69-.27s-1.54,1.47-1.4,2.35l-.07.03.04.09s.3.57.31.6c.49.9,1.72,1.08,2.89.5s1.75-1.66,1.33-2.63Z"/>
        <ellipse class="cls-4" cx="33.25" cy="57.7" rx="2.38" ry="2" transform="translate(-22.19 20.79) rotate(-26.39)"/>
      </g>
      <circle class="cls-3" cx="66.5" cy="3.45" r="3.45"/>
      <ellipse class="cls-8" cx="62.31" cy="9.34" rx="2.04" ry="10.22" transform="translate(24.58 59.8) rotate(-61.75)"/>
      <ellipse class="cls-8" cx="60.56" cy="12.21" rx="2.56" ry="12.88" transform="translate(21.14 59.77) rotate(-61.75)"/>
    </g>
  </g>
</svg>