<?xml version="1.0" encoding="UTF-8"?>
<svg id="Layer_2" data-name="Layer 2" xmlns="http://www.w3.org/2000/svg" viewBox="0 0 51.64 37.5">
  <defs>
    <style>
      .cls-1 {
        fill: #e8c536;
      }

      .cls-2 {
        fill: #ddb924;
      }

      .cls-3 {
        fill: #f3d332;
      }

      .cls-4 {
        fill: #c6a414;
      }
    </style>
  </defs>
  <g id="Layer_1-2" data-name="Layer 1">
    <g>
      <path class="cls-2" d="M16.83,4.86s.19,3.26-.78,3.26c1.68,1.66.19,4.15-.05,4.54-.45.74-2.61,1.8-4.6.45-.96,1.51-3.4,2.55-3.78,2.55,0,0,3.11-.53,3.75-.85s3.64.92,5.03.17,3.35-2,3.26-3.69-1.13-2.77-1.24-3.07-.83-.68-.83-.68c0,0-.53-2.24-.77-2.68Z"/>
      <path class="cls-3" d="M39.53,1.27c-8.14-2.96-19.61.19-19.61.19l-3.34,3.03c.42.61.66,1.34.66,2.13,0,.58-.14,1.12-.37,1.61.45.62.72,1.38.72,2.21,0,2.1-1.7,3.79-3.79,3.79-.88,0-1.69-.32-2.33-.82-.66,1.11-1.86,1.87-3.25,1.87-.95,0-1.81-.36-2.48-.94L0,19.54l51.37-11.47s-3.71-3.84-11.85-6.8Z"/>
      <polygon class="cls-1" points="0 37.5 0 19.54 51.37 8.07 51.64 25.59 0 37.5"/>
      <ellipse class="cls-4" cx="15.57" cy="28.96" rx="2.68" ry="2.86" transform="translate(-2.61 1.57) rotate(-5.31)"/>
      <ellipse class="cls-2" cx="15.66" cy="28.86" rx="2.86" ry="2.68" transform="translate(-17.15 27.59) rotate(-59.3)"/>
      <path class="cls-4" d="M17.9,30.22c-.8,1.35-2.47,1.84-3.74,1.1.08.06.15.12.23.17,1.27.76,2.96.27,3.76-1.09.81-1.36.43-3.07-.84-3.83,0,0-.01,0-.02,0,1.07.82,1.36,2.39.61,3.65Z"/>
      <ellipse class="cls-4" cx="32.02" cy="24.2" rx="1.34" ry="2.1" transform="translate(7.4 55.9) rotate(-89.25)"/>
      <path class="cls-2" d="M30.28,23.51c-.63.63-.34,1.43.66,1.79,1,.35,2.32.12,2.95-.51s.34-1.43-.66-1.79-2.32-.12-2.95.51Z"/>
      <path class="cls-4" d="M33.84,24.79c-.63.63-1.94.86-2.94.51.06.03.12.06.18.08,1,.35,2.32.12,2.95-.51.63-.63.34-1.43-.66-1.79,0,0-.01,0-.02,0,.84.38,1.07,1.11.48,1.71Z"/>
      <ellipse class="cls-4" cx="22.74" cy="22.71" rx="1.2" ry="1.28" transform="translate(-2 2.2) rotate(-5.31)"/>
      <ellipse class="cls-2" cx="22.78" cy="22.66" rx="1.28" ry="1.2" transform="translate(-8.34 30.68) rotate(-59.3)"/>
      <path class="cls-4" d="M23.78,23.28c-.36.61-1.11.83-1.68.49.03.03.07.06.1.08.57.34,1.33.12,1.69-.49.36-.61.19-1.38-.38-1.72,0,0,0,0,0,0,.48.37.61,1.07.27,1.64Z"/>
      <ellipse class="cls-4" cx="42.69" cy="22.71" rx="1.2" ry="1.28" transform="translate(-1.92 4.05) rotate(-5.31)"/>
      <ellipse class="cls-2" cx="42.73" cy="22.66" rx="1.28" ry="1.2" transform="translate(1.43 47.83) rotate(-59.3)"/>
      <path class="cls-4" d="M43.73,23.27c-.36.61-1.11.83-1.68.49.03.03.07.06.1.08.57.34,1.33.12,1.69-.49.36-.61.19-1.38-.38-1.72,0,0,0,0,0,0,.48.37.61,1.07.27,1.64Z"/>
      <ellipse class="cls-4" cx="45.53" cy="16.34" rx="1.2" ry="1.28" transform="translate(-1.32 4.28) rotate(-5.31)"/>
      <ellipse class="cls-2" cx="45.57" cy="16.29" rx="1.28" ry="1.2" transform="translate(8.3 47.16) rotate(-59.3)"/>
      <path class="cls-4" d="M46.58,16.9c-.36.61-1.11.83-1.68.49.03.03.07.06.1.08.57.34,1.33.12,1.69-.49.36-.61.19-1.38-.38-1.72,0,0,0,0,0,0,.48.37.61,1.07.27,1.64Z"/>
      <ellipse class="cls-4" cx="36.44" cy="16.22" rx="1.2" ry="1.28" transform="translate(-1.34 3.44) rotate(-5.31)"/>
      <ellipse class="cls-2" cx="36.48" cy="16.18" rx="1.28" ry="1.2" transform="translate(3.94 39.28) rotate(-59.3)"/>
      <path class="cls-4" d="M37.48,16.79c-.36.61-1.11.83-1.68.49.03.03.07.06.1.08.57.34,1.33.12,1.69-.49.36-.61.19-1.38-.38-1.72,0,0,0,0,0,0,.48.37.61,1.07.27,1.64Z"/>
      <ellipse class="cls-2" cx="7.87" cy="21.72" rx=".95" ry=".89" transform="translate(-11.41 8.98) rotate(-36.63)"/>
      <path class="cls-4" d="M8.63,22.16c-.27.44-.84.6-1.28.36.03.02.05.04.08.06.43.25,1.01.09,1.28-.35.28-.44.15-1-.29-1.24,0,0,0,0,0,0,.37.27.46.77.21,1.19Z"/>
      <path class="cls-4" d="M19.1,13.99c-.6.44-1.84.6-2.78.36.06.02.11.04.17.06.94.25,2.19.09,2.79-.36.6-.44.32-1-.62-1.25,0,0,0,0-.01,0,.8.27,1.01.78.45,1.19Z"/>
      <path class="cls-4" d="M19.96,7.96c-.6.44-1.84.6-2.78.36.06.02.11.04.17.06.94.25,2.19.09,2.79-.36.6-.44.32-1-.62-1.25,0,0,0,0-.01,0,.8.27,1.01.78.45,1.19Z"/>
      <path class="cls-2" d="M27.39,6.96c-1,.74-.53,1.68,1.05,2.09,1.58.41,3.67.14,4.67-.6s.53-1.68-1.05-2.09c-1.58-.41-3.67-.14-4.67.6Z"/>
      <path class="cls-4" d="M33.02,8.45c-1,.74-3.07,1-4.65.6.1.03.18.07.29.09,1.58.41,3.67.15,4.67-.6,1-.74.53-1.68-1.05-2.09,0,0-.02,0-.02,0,1.33.45,1.69,1.3.76,1.99Z"/>
      <path class="cls-2" d="M40.44,5.31c-1,.74-.53,1.68,1.05,2.09,1.58.41,3.67.14,4.67-.6s.53-1.68-1.05-2.09-3.67-.14-4.67.6Z"/>
      <path class="cls-4" d="M46.08,6.8c-1,.74-3.07,1-4.65.6.1.03.18.07.29.09,1.58.41,3.67.15,4.67-.6,1-.74.53-1.68-1.05-2.09,0,0-.02,0-.02,0,1.33.45,1.69,1.3.76,1.99Z"/>
      <path class="cls-2" d="M21.53,3.09c-.5.37-.27.84.52,1.04s1.83.07,2.34-.3.27-.84-.52-1.04c-.79-.21-1.83-.07-2.34.3Z"/>
      <path class="cls-4" d="M24.35,3.83c-.5.37-1.54.5-2.32.3.05.02.09.03.14.05.79.21,1.83.07,2.34-.3.5-.37.27-.84-.52-1.04,0,0,0,0-.01,0,.67.22.85.65.38,1Z"/>
      <path class="cls-2" d="M18.53,12.74c-.53-.14-1.15-.14-1.7-.05-.35.47-.81.86-1.35,1.13.12.22.42.41.88.53.94.25,2.19.09,2.79-.36.6-.44.32-1-.62-1.25Z"/>
      <path class="cls-2" d="M19.39,6.72c-.68-.18-1.53-.14-2.17.06-.02.51-.14.99-.34,1.43.1.04.22.08.34.12.94.25,2.19.09,2.79-.36.6-.44.32-1-.62-1.25Z"/>
    </g>
  </g>
</svg>