<?xml version="1.0" encoding="UTF-8"?>
<svg id="Layer_2" data-name="Layer 2" xmlns="http://www.w3.org/2000/svg" viewBox="0 0 124.46 90.83">
  <defs>
    <style>
      .cls-1 {
        fill: #595959;
      }

      .cls-2 {
        fill: #828282;
      }

      .cls-3 {
        fill: none;
        stroke: #595959;
        stroke-miterlimit: 10;
        stroke-width: 3px;
      }

      .cls-4 {
        fill: #b0b0b0;
      }

      .cls-5 {
        fill: #d87939;
      }

      .cls-6 {
        fill: #9e9e9e;
      }

      .cls-7 {
        fill: #ededed;
      }

      .cls-8 {
        fill: #ba5a19;
      }
    </style>
  </defs>
  <g id="Layer_1-2" data-name="Layer 1">
    <g>
      <g>
        <path class="cls-3" d="M37.7,12.6C31.25,7.93,20.78.26,10.77,5.5.97,10.63-1.61,22.17,5.69,31.38c14.72,18.59,63.12,24.65,75.15,28.39,23.06,7.17,19.9,18.61,18.61,22.75-3.54,8.07-11.01,10.98-28.17-2.72"/>
        <polygon class="cls-7" points="115.46 50.69 27.71 2.82 40.03 0 124.46 45.97 115.46 50.69"/>
        <polygon class="cls-4" points="44.41 8.56 41.16 8.29 38.05 6.56 39.28 5.24 43.87 4.27 46.79 4.95 49.31 6.26 47.83 8.02 44.41 8.56"/>
        <rect class="cls-7" x="18.57" y="25.98" width="99.96" height="12.68" transform="translate(23.85 -28.88) rotate(28.61)"/>
        <path class="cls-4" d="M30.09,4.06c10.13,4.88,19.9,10.41,29.63,16.02,16.49,8.86,33.22,17.25,49.23,26.99,0,0-.05.09-.05.09-16.85-8.18-32.97-17.71-49.34-26.78-9.88-5.2-20.24-10.33-29.46-16.33h0Z"/>
        <polygon class="cls-6" points="43.88 6.09 40.17 6.89 39.59 7.4 38.05 6.56 39.28 5.24 43.87 4.27 46.79 4.95 49.31 6.26 48.18 7.59 46.36 6.61 43.88 6.09"/>
        <path class="cls-6" d="M41.52,8.32c.33-.51.77-.49.99-.45s.57.17.62.58c-.28-.04-1.61-.13-1.61-.13Z"/>
        <path class="cls-6" d="M44.97,8.47c-.1-.77.55-.86.77-.81s.57.18.62.59c-.31.04-1.38.22-1.38.22Z"/>
        <polygon class="cls-4" points="54.28 13.94 51.03 13.67 47.92 11.94 49.14 10.62 53.74 9.66 56.66 10.33 59.18 11.65 57.69 13.4 54.28 13.94"/>
        <polygon class="cls-6" points="53.75 11.47 50.03 12.27 49.46 12.78 47.92 11.94 49.14 10.62 53.74 9.66 56.66 10.33 59.18 11.65 58.05 12.98 56.22 11.99 53.75 11.47"/>
        <path class="cls-6" d="M51.39,13.7c.33-.51.77-.49.99-.45s.57.17.62.58c-.28-.04-1.61-.13-1.61-.13Z"/>
        <path class="cls-6" d="M54.84,13.85c-.1-.77.55-.86.77-.81s.57.18.62.59c-.31.04-1.38.22-1.38.22Z"/>
        <polygon class="cls-4" points="64.65 19.6 61.41 19.33 58.3 17.61 59.52 16.29 64.11 15.32 67.03 15.99 69.55 17.31 68.07 19.06 64.65 19.6"/>
        <polygon class="cls-6" points="64.12 17.13 60.41 17.93 59.84 18.45 58.3 17.61 59.52 16.29 64.11 15.32 67.03 15.99 69.55 17.31 68.43 18.64 66.6 17.65 64.12 17.13"/>
        <path class="cls-6" d="M61.77,19.36c.33-.51.77-.49.99-.45s.57.17.62.58c-.28-.04-1.61-.13-1.61-.13Z"/>
        <path class="cls-6" d="M65.21,19.51c-.1-.77.55-.86.77-.81s.57.18.62.59c-.31.04-1.38.22-1.38.22Z"/>
        <polygon class="cls-4" points="74.22 24.82 70.97 24.55 67.86 22.82 69.08 21.5 73.68 20.53 76.6 21.2 79.12 22.52 77.63 24.28 74.22 24.82"/>
        <polygon class="cls-6" points="73.69 22.35 69.98 23.15 69.4 23.66 67.86 22.82 69.08 21.5 73.68 20.53 76.6 21.2 79.12 22.52 77.99 23.85 76.16 22.87 73.69 22.35"/>
        <path class="cls-6" d="M71.33,24.58c.33-.51.77-.49.99-.45s.57.17.62.58c-.28-.04-1.61-.13-1.61-.13Z"/>
        <path class="cls-6" d="M74.78,24.73c-.1-.77.55-.86.77-.81s.57.18.62.59c-.31.04-1.38.22-1.38.22Z"/>
        <polygon class="cls-4" points="84.97 30.68 81.72 30.42 78.62 28.69 79.84 27.37 84.43 26.4 87.35 27.07 89.87 28.39 88.39 30.14 84.97 30.68"/>
        <polygon class="cls-6" points="84.44 28.22 80.73 29.02 80.16 29.53 78.62 28.69 79.84 27.37 84.43 26.4 87.35 27.07 89.87 28.39 88.75 29.72 86.92 28.74 84.44 28.22"/>
        <path class="cls-6" d="M82.09,30.45c.33-.51.77-.49.99-.45s.57.17.62.58c-.28-.04-1.61-.13-1.61-.13Z"/>
        <path class="cls-6" d="M85.53,30.59c-.1-.77.55-.86.77-.81s.57.18.62.59c-.31.04-1.38.22-1.38.22Z"/>
        <polygon class="cls-4" points="97.28 37.4 94.04 37.13 90.93 35.4 92.15 34.08 96.74 33.12 99.66 33.79 102.18 35.11 100.7 36.86 97.28 37.4"/>
        <polygon class="cls-6" points="96.75 34.93 93.04 35.73 92.47 36.24 90.93 35.4 92.15 34.08 96.74 33.12 99.66 33.79 102.18 35.11 101.06 36.44 99.23 35.45 96.75 34.93"/>
        <path class="cls-6" d="M94.4,37.16c.33-.51.77-.49.99-.45s.57.17.62.58c-.28-.04-1.61-.13-1.61-.13Z"/>
        <path class="cls-6" d="M97.84,37.31c-.1-.77.55-.86.77-.81s.57.18.62.59c-.31.04-1.38.22-1.38.22Z"/>
        <rect class="cls-2" x="63.52" y="73.99" width="4.58" height="1.62" rx=".31" ry=".31" transform="translate(45.63 -22.77) rotate(29.66)"/>
        <rect class="cls-2" x="61.29" y="77.57" width="4.58" height="1.62" rx=".31" ry=".31" transform="translate(47.11 -21.19) rotate(29.66)"/>
        <path class="cls-1" d="M68.41,72.96s-2.03,2.15-3.28,4.23c-1.24,2.08-1.68,5.04-1.68,5.04,0,0,5.88,3.04,7.74,2.28s3.97-6.25,3.53-7.25c-.44-1-6.31-4.3-6.31-4.3Z"/>
      </g>
      <polygon class="cls-4" points="118.39 57.1 109.39 61.83 115.46 50.69 124.46 45.97 118.39 57.1"/>
      <rect class="cls-5" x="108.32" y="41.98" width="2.75" height="1.68" transform="translate(33.9 -47.3) rotate(28.61)"/>
      <polygon class="cls-8" points="114.51 43.8 110.5 44.21 111.3 42.73 115.28 42.53 114.51 43.8"/>
      <polygon class="cls-5" points="112.86 41.21 115.28 42.53 111.28 42.74 108.86 41.42 112.86 41.21"/>
    </g>
  </g>
</svg>