<?xml version="1.0" encoding="UTF-8"?>
<svg id="Layer_2" data-name="Layer 2" xmlns="http://www.w3.org/2000/svg" viewBox="0 0 117.93 40.48">
  <defs>
    <style>
      .cls-1 {
        fill: #bf9a64;
      }

      .cls-2 {
        fill: #bf300a;
      }

      .cls-3 {
        fill: #bbbcbc;
      }
    </style>
  </defs>
  <g id="Layer_1-2" data-name="Layer 1">
    <g>
      <rect class="cls-1" x="73.54" y="-17.81" width="9.73" height="80.28" rx="1.92" ry="1.92" transform="translate(121.05 -47.16) rotate(105.64)"/>
      <path class="cls-3" d="M24.5,0l19,5.48s-1.94,8.29-2.18,10.33,4.85,21.98,4.85,21.98c0,0-11.11,4.25-19.03,2.06C19.21,37.66,0,24.27,0,24.27l19.34-15.16L24.5,0Z"/>
      <path class="cls-2" d="M6.29,19.33l13.05-10.23L24.5,0l19,5.48s-1.94,8.29-2.18,10.33c-.16,1.39,2.14,11.06,3.63,17.1,0,0-10.91,1.84-15.51.16-4.6-1.68-23.14-13.74-23.14-13.74Z"/>
    </g>
  </g>
</svg>