<?xml version="1.0" encoding="UTF-8"?>
<svg id="Layer_2" data-name="Layer 2" xmlns="http://www.w3.org/2000/svg" viewBox="0 0 75.98 55.39">
  <defs>
    <style>
      .cls-1 {
        fill: #c97e11;
      }

      .cls-2 {
        fill: #ecc800;
      }

      .cls-3 {
        fill: #a56614;
      }
    </style>
  </defs>
  <g id="Layer_1-2" data-name="Layer 1">
    <g>
      <g>
        <path class="cls-1" d="M33.27,40.8l.93-3.97-.47-.1c-.55-4.5-4.49-8.55-9.94-9.72-5.55-1.19-10.89.97-13.18,4.97l-.39-.08-.13.52c-.05.17-.65,3.25-.68,3.43-.92,5.2,3.43,9.86,10.05,11.29,6.42,1.38,12.36-1.06,13.82-6.32Z"/>
        <ellipse class="cls-2" cx="22.13" cy="34.68" rx="10.29" ry="12.25" transform="translate(-16.44 49.01) rotate(-77.84)"/>
        <rect class="cls-3" x="20.7" y="29.65" width="2.88" height="8.45" rx="1.44" ry="1.44" transform="translate(59.91 19.36) rotate(102.16)"/>
        <rect class="cls-1" x="20.63" y="29.96" width="2.88" height="8.45" rx="1.44" ry="1.44" transform="translate(60.14 19.8) rotate(102.16)"/>
        <path class="cls-3" d="M26.3,45.2c.59.39.27.41,0,.54-.05.05,0,.12.07.2.17.16.2.28.18.4-.04.09-.36.29-.64.22-.29-.18-.38-.32-.4-.45.03-.11.11-.22.33-.29.1-.04.17-.08.15-.15-.02-.06-.16-.16-.21-.23-.09-.13.24-.31.53-.25h0Z"/>
        <path class="cls-3" d="M23.82,45.65c.59.39.27.41,0,.54-.05.05,0,.12.07.2.17.16.2.28.18.4-.04.09-.36.29-.64.22-.29-.18-.38-.32-.4-.45.03-.11.11-.22.33-.29.1-.04.17-.08.15-.15-.02-.06-.16-.16-.21-.23-.09-.13.24-.31.53-.25h0Z"/>
        <path class="cls-3" d="M20.24,45.31c.59.39.27.41,0,.54-.05.05,0,.12.07.2.17.16.2.28.18.4-.04.09-.36.29-.64.22-.29-.18-.38-.32-.4-.45.03-.11.11-.22.33-.29.1-.04.17-.08.15-.15-.02-.06-.16-.16-.21-.23-.09-.13.24-.31.53-.25h0Z"/>
        <path class="cls-3" d="M16.84,44.24c.59.39.27.41,0,.54-.05.05,0,.12.07.2.17.16.2.28.18.4-.04.09-.36.29-.64.22-.29-.18-.38-.32-.4-.45.03-.11.11-.22.33-.29.1-.04.17-.08.15-.15-.02-.06-.16-.16-.21-.23-.09-.13.24-.31.53-.25h0Z"/>
        <path class="cls-3" d="M14.18,42.68c.59.39.27.41,0,.54-.05.05,0,.12.07.2.17.16.2.28.18.4-.04.09-.36.29-.64.22-.29-.18-.38-.32-.4-.45.03-.11.11-.22.33-.29.1-.04.17-.08.15-.15-.02-.06-.16-.16-.21-.23-.09-.13.24-.31.53-.25h0Z"/>
        <path class="cls-3" d="M11.87,40.29c.59.39.27.41,0,.54-.05.05,0,.12.07.2.17.16.2.28.18.4-.04.09-.36.29-.64.22-.29-.18-.38-.32-.4-.45.03-.11.11-.22.33-.29.1-.04.17-.08.15-.15-.02-.06-.16-.16-.21-.23-.09-.13.24-.31.53-.25h0Z"/>
        <path class="cls-3" d="M10.49,38.07c.59.39.27.41,0,.54-.05.05,0,.12.07.2.17.16.2.28.18.4-.04.09-.36.29-.64.22-.29-.18-.38-.32-.4-.45.03-.11.11-.22.33-.29.1-.04.17-.08.15-.15-.02-.06-.16-.16-.21-.23-.09-.13.24-.31.53-.25h0Z"/>
        <path class="cls-3" d="M29.08,44.09c.59.39.27.41,0,.54-.05.05,0,.12.07.2.17.16.2.28.18.4-.04.09-.36.29-.64.22-.29-.18-.38-.32-.4-.45.03-.11.11-.22.33-.29.1-.04.17-.08.15-.15-.02-.06-.16-.16-.21-.23-.09-.13.24-.31.53-.25h0Z"/>
        <path class="cls-3" d="M31.57,42.3c.59.39.27.41,0,.54-.05.05,0,.12.07.2.17.16.2.28.18.4-.04.09-.36.29-.64.22-.29-.18-.38-.32-.4-.45.03-.11.11-.22.33-.29.1-.04.17-.08.15-.15-.02-.06-.16-.16-.21-.23-.09-.13.24-.31.53-.25h0Z"/>
      </g>
      <g>
        <path class="cls-1" d="M52.59,35.62l.07-4.08h-.48c-1.48-4.28-6.19-7.41-11.77-7.41s-10.45,3.24-11.84,7.63h-.4l-.02.53c-.01.18.05,3.31.06,3.49.2,5.28,5.43,8.92,12.2,8.92s11.86-3.64,12.18-9.08Z"/>
        <ellipse class="cls-2" cx="40.41" cy="31.99" rx="12.25" ry="10.29"/>
        <rect class="cls-3" x="38.81" y="26.97" width="2.88" height="8.45" rx="1.44" ry="1.44" transform="translate(71.45 -9.06) rotate(90)"/>
        <rect class="cls-1" x="38.81" y="27.29" width="2.88" height="8.45" rx="1.44" ry="1.44" transform="translate(71.77 -8.74) rotate(90)"/>
        <path class="cls-3" d="M46.71,41.39c.66.25.35.34.11.53-.04.06.02.12.11.18.2.12.26.24.26.35-.02.1-.29.35-.58.35-.32-.12-.44-.24-.48-.35,0-.12.06-.24.26-.35.09-.06.15-.12.11-.18-.03-.06-.19-.12-.25-.18-.12-.11.16-.35.47-.35h0Z"/>
        <path class="cls-3" d="M44.37,42.36c.66.26.35.34.11.53-.04.06.02.12.11.18.2.12.26.24.26.35-.02.1-.29.35-.58.35-.32-.12-.44-.24-.48-.35,0-.12.06-.24.26-.35.09-.06.15-.12.11-.18-.03-.06-.19-.12-.25-.18-.12-.11.16-.35.47-.35h0Z"/>
        <path class="cls-3" d="M40.8,42.78c.66.25.35.34.11.53-.04.06.02.12.11.18.2.12.26.24.26.35-.02.1-.29.35-.58.35-.32-.12-.44-.24-.48-.35,0-.12.06-.24.26-.35.09-.06.15-.12.11-.18-.03-.06-.19-.12-.25-.18-.12-.11.16-.35.47-.35h0Z"/>
        <path class="cls-3" d="M37.26,42.45c.66.26.35.34.11.53-.04.06.02.12.11.18.2.12.26.24.26.35-.02.1-.29.35-.58.35-.32-.12-.44-.24-.48-.35,0-.12.06-.24.26-.35.09-.06.15-.12.11-.18-.03-.06-.19-.12-.25-.18-.12-.11.16-.35.47-.35h0Z"/>
        <path class="cls-3" d="M34.32,41.48c.65.25.36.34.11.53-.04.06.02.12.11.18.2.12.26.24.26.35-.02.1-.29.35-.58.35-.32-.12-.44-.24-.48-.35,0-.12.06-.24.26-.35.09-.06.15-.12.11-.18-.03-.06-.19-.12-.25-.18-.12-.11.16-.35.47-.35h0Z"/>
        <path class="cls-3" d="M31.56,39.63c.66.26.35.34.11.53-.04.06.02.12.11.18.2.12.26.24.26.35-.02.1-.29.35-.58.35-.32-.12-.44-.24-.48-.35,0-.12.06-.24.26-.35.09-.06.15-.12.11-.18-.03-.06-.19-.12-.25-.18-.12-.11.16-.35.47-.35h0Z"/>
        <path class="cls-3" d="M29.75,37.75c.66.25.35.34.11.53-.04.06.02.12.11.18.2.12.26.24.26.35-.02.1-.29.35-.58.35-.32-.12-.44-.24-.48-.35,0-.12.06-.24.26-.35.09-.06.15-.12.11-.18-.03-.06-.19-.12-.25-.18-.12-.11.16-.35.47-.35h0Z"/>
        <path class="cls-3" d="M49.19,39.72c.66.25.35.34.11.53-.04.06.02.12.11.18.2.12.26.24.26.35-.02.1-.29.35-.58.35-.32-.12-.44-.24-.48-.35,0-.12.06-.24.26-.35.09-.06.15-.12.11-.18-.03-.06-.19-.12-.25-.18-.12-.11.16-.35.47-.35h0Z"/>
        <path class="cls-3" d="M51.25,37.45c.66.26.35.34.11.53-.04.06.02.12.11.18.2.12.26.24.26.35-.02.1-.29.35-.58.35-.32-.12-.44-.24-.48-.35,0-.12.06-.24.26-.35.09-.06.15-.12.11-.18-.03-.06-.19-.12-.25-.18-.12-.11.16-.35.47-.35h0Z"/>
      </g>
      <g>
        <path class="cls-1" d="M56.18,32.5l.07-4.08h-.48c-1.48-4.28-6.19-7.41-11.77-7.41s-10.45,3.24-11.84,7.63h-.4l-.02.53c-.01.18.05,3.31.06,3.49.2,5.28,5.43,8.92,12.2,8.92s11.86-3.64,12.18-9.08Z"/>
        <ellipse class="cls-2" cx="44.01" cy="28.87" rx="12.25" ry="10.29"/>
        <rect class="cls-3" x="42.41" y="23.85" width="2.88" height="8.45" rx="1.44" ry="1.44" transform="translate(71.93 -15.77) rotate(90)"/>
        <rect class="cls-1" x="42.41" y="24.17" width="2.88" height="8.45" rx="1.44" ry="1.44" transform="translate(72.24 -15.45) rotate(90)"/>
        <path class="cls-3" d="M50.3,38.27c.66.25.35.34.11.53-.04.06.02.12.11.18.2.12.26.24.26.35-.02.1-.29.35-.58.35-.32-.12-.44-.24-.48-.35,0-.12.06-.24.26-.35.09-.06.15-.12.11-.18-.03-.06-.19-.12-.25-.18-.12-.11.16-.35.47-.35h0Z"/>
        <path class="cls-3" d="M47.97,39.24c.66.26.35.34.11.53-.04.06.02.12.11.18.2.12.26.24.26.35-.02.1-.29.35-.58.35-.32-.12-.44-.24-.48-.35,0-.12.06-.24.26-.35.09-.06.15-.12.11-.18-.03-.06-.19-.12-.25-.18-.12-.11.16-.35.47-.35h0Z"/>
        <path class="cls-3" d="M44.4,39.66c.66.25.35.34.11.53-.04.06.02.12.11.18.2.12.26.24.26.35-.02.1-.29.35-.58.35-.32-.12-.44-.24-.48-.35,0-.12.06-.24.26-.35.09-.06.15-.12.11-.18-.03-.06-.19-.12-.25-.18-.12-.11.16-.35.47-.35h0Z"/>
        <path class="cls-3" d="M40.85,39.33c.66.26.35.34.11.53-.04.06.02.12.11.18.2.12.26.24.26.35-.02.1-.29.35-.58.35-.32-.12-.44-.24-.48-.35,0-.12.06-.24.26-.35.09-.06.15-.12.11-.18-.03-.06-.19-.12-.25-.18-.12-.11.16-.35.47-.35h0Z"/>
        <path class="cls-3" d="M37.92,38.36c.65.25.36.34.11.53-.04.06.02.12.11.18.2.12.26.24.26.35-.02.1-.29.35-.58.35-.32-.12-.44-.24-.48-.35,0-.12.06-.24.26-.35.09-.06.15-.12.11-.18-.03-.06-.19-.12-.25-.18-.12-.11.16-.35.47-.35h0Z"/>
        <path class="cls-3" d="M35.16,36.51c.66.26.35.34.11.53-.04.06.02.12.11.18.2.12.26.24.26.35-.02.1-.29.35-.58.35-.32-.12-.44-.24-.48-.35,0-.12.06-.24.26-.35.09-.06.15-.12.11-.18-.03-.06-.19-.12-.25-.18-.12-.11.16-.35.47-.35h0Z"/>
        <path class="cls-3" d="M33.34,34.64c.66.25.35.34.11.53-.04.06.02.12.11.18.2.12.26.24.26.35-.02.1-.29.35-.58.35-.32-.12-.44-.24-.48-.35,0-.12.06-.24.26-.35.09-.06.15-.12.11-.18-.03-.06-.19-.12-.25-.18-.12-.11.16-.35.47-.35h0Z"/>
        <path class="cls-3" d="M52.79,36.61c.66.25.35.34.11.53-.04.06.02.12.11.18.2.12.26.24.26.35-.02.1-.29.35-.58.35-.32-.12-.44-.24-.48-.35,0-.12.06-.24.26-.35.09-.06.15-.12.11-.18-.03-.06-.19-.12-.25-.18-.12-.11.16-.35.47-.35h0Z"/>
        <path class="cls-3" d="M54.85,34.33c.66.26.35.34.11.53-.04.06.02.12.11.18.2.12.26.24.26.35-.02.1-.29.35-.58.35-.32-.12-.44-.24-.48-.35,0-.12.06-.24.26-.35.09-.06.15-.12.11-.18-.03-.06-.19-.12-.25-.18-.12-.11.16-.35.47-.35h0Z"/>
      </g>
      <g>
        <path class="cls-1" d="M54.15,28.19l.07-4.08h-.48c-1.48-4.28-6.19-7.41-11.77-7.41s-10.45,3.24-11.84,7.63h-.4l-.02.53c-.01.18.05,3.31.06,3.49.2,5.28,5.43,8.92,12.2,8.92s11.86-3.64,12.18-9.08Z"/>
        <ellipse class="cls-2" cx="41.97" cy="24.56" rx="12.25" ry="10.29"/>
        <rect class="cls-3" x="40.37" y="19.54" width="2.88" height="8.45" rx="1.44" ry="1.44" transform="translate(65.57 -18.05) rotate(90)"/>
        <rect class="cls-1" x="40.37" y="19.86" width="2.88" height="8.45" rx="1.44" ry="1.44" transform="translate(65.89 -17.73) rotate(90)"/>
        <path class="cls-3" d="M48.26,33.95c.66.25.35.34.11.53-.04.06.02.12.11.18.2.12.26.24.26.35-.02.1-.29.35-.58.35-.32-.12-.44-.24-.48-.35,0-.12.06-.24.26-.35.09-.06.15-.12.11-.18-.03-.06-.19-.12-.25-.18-.12-.11.16-.35.47-.35h0Z"/>
        <path class="cls-3" d="M45.93,34.92c.66.26.35.34.11.53-.04.06.02.12.11.18.2.12.26.24.26.35-.02.1-.29.35-.58.35-.32-.12-.44-.24-.48-.35,0-.12.06-.24.26-.35.09-.06.15-.12.11-.18-.03-.06-.19-.12-.25-.18-.12-.11.16-.35.47-.35h0Z"/>
        <path class="cls-3" d="M42.36,35.35c.66.25.35.34.11.53-.04.06.02.12.11.18.2.12.26.24.26.35-.02.1-.29.35-.58.35-.32-.12-.44-.24-.48-.35,0-.12.06-.24.26-.35.09-.06.15-.12.11-.18-.03-.06-.19-.12-.25-.18-.12-.11.16-.35.47-.35h0Z"/>
        <path class="cls-3" d="M38.82,35.01c.66.26.35.34.11.53-.04.06.02.12.11.18.2.12.26.24.26.35-.02.1-.29.35-.58.35-.32-.12-.44-.24-.48-.35,0-.12.06-.24.26-.35.09-.06.15-.12.11-.18-.03-.06-.19-.12-.25-.18-.12-.11.16-.35.47-.35h0Z"/>
        <path class="cls-3" d="M35.88,34.05c.65.25.36.34.11.53-.04.06.02.12.11.18.2.12.26.24.26.35-.02.1-.29.35-.58.35-.32-.12-.44-.24-.48-.35,0-.12.06-.24.26-.35.09-.06.15-.12.11-.18-.03-.06-.19-.12-.25-.18-.12-.11.16-.35.47-.35h0Z"/>
        <path class="cls-3" d="M33.12,32.2c.66.26.35.34.11.53-.04.06.02.12.11.18.2.12.26.24.26.35-.02.1-.29.35-.58.35-.32-.12-.44-.24-.48-.35,0-.12.06-.24.26-.35.09-.06.15-.12.11-.18-.03-.06-.19-.12-.25-.18-.12-.11.16-.35.47-.35h0Z"/>
        <path class="cls-3" d="M31.31,30.32c.66.25.35.34.11.53-.04.06.02.12.11.18.2.12.26.24.26.35-.02.1-.29.35-.58.35-.32-.12-.44-.24-.48-.35,0-.12.06-.24.26-.35.09-.06.15-.12.11-.18-.03-.06-.19-.12-.25-.18-.12-.11.16-.35.47-.35h0Z"/>
        <path class="cls-3" d="M50.75,32.29c.66.25.35.34.11.53-.04.06.02.12.11.18.2.12.26.24.26.35-.02.1-.29.35-.58.35-.32-.12-.44-.24-.48-.35,0-.12.06-.24.26-.35.09-.06.15-.12.11-.18-.03-.06-.19-.12-.25-.18-.12-.11.16-.35.47-.35h0Z"/>
        <path class="cls-3" d="M52.81,30.02c.66.26.35.34.11.53-.04.06.02.12.11.18.2.12.26.24.26.35-.02.1-.29.35-.58.35-.32-.12-.44-.24-.48-.35,0-.12.06-.24.26-.35.09-.06.15-.12.11-.18-.03-.06-.19-.12-.25-.18-.12-.11.16-.35.47-.35h0Z"/>
      </g>
      <g>
        <path class="cls-1" d="M56.9,25.07l.07-4.08h-.48c-1.48-4.28-6.19-7.41-11.77-7.41s-10.45,3.24-11.84,7.63h-.4l-.02.53c-.01.18.05,3.31.06,3.49.2,5.28,5.43,8.92,12.2,8.92s11.86-3.64,12.18-9.08Z"/>
        <ellipse class="cls-2" cx="44.73" cy="21.44" rx="12.25" ry="10.29"/>
        <rect class="cls-3" x="43.13" y="16.42" width="2.88" height="8.45" rx="1.44" ry="1.44" transform="translate(65.21 -23.93) rotate(90)"/>
        <rect class="cls-1" x="43.13" y="16.74" width="2.88" height="8.45" rx="1.44" ry="1.44" transform="translate(65.53 -23.61) rotate(90)"/>
        <path class="cls-3" d="M51.02,30.84c.66.25.35.34.11.53-.04.06.02.12.11.18.2.12.26.24.26.35-.02.1-.29.35-.58.35-.32-.12-.44-.24-.48-.35,0-.12.06-.24.26-.35.09-.06.15-.12.11-.18-.03-.06-.19-.12-.25-.18-.12-.11.16-.35.47-.35h0Z"/>
        <path class="cls-3" d="M48.69,31.81c.66.26.35.34.11.53-.04.06.02.12.11.18.2.12.26.24.26.35-.02.1-.29.35-.58.35-.32-.12-.44-.24-.48-.35,0-.12.06-.24.26-.35.09-.06.15-.12.11-.18-.03-.06-.19-.12-.25-.18-.12-.11.16-.35.47-.35h0Z"/>
        <path class="cls-3" d="M45.12,32.23c.66.25.35.34.11.53-.04.06.02.12.11.18.2.12.26.24.26.35-.02.1-.29.35-.58.35-.32-.12-.44-.24-.48-.35,0-.12.06-.24.26-.35.09-.06.15-.12.11-.18-.03-.06-.19-.12-.25-.18-.12-.11.16-.35.47-.35h0Z"/>
        <path class="cls-3" d="M41.57,31.9c.66.26.35.34.11.53-.04.06.02.12.11.18.2.12.26.24.26.35-.02.1-.29.35-.58.35-.32-.12-.44-.24-.48-.35,0-.12.06-.24.26-.35.09-.06.15-.12.11-.18-.03-.06-.19-.12-.25-.18-.12-.11.16-.35.47-.35h0Z"/>
        <path class="cls-3" d="M38.64,30.93c.65.25.36.34.11.53-.04.06.02.12.11.18.2.12.26.24.26.35-.02.1-.29.35-.58.35-.32-.12-.44-.24-.48-.35,0-.12.06-.24.26-.35.09-.06.15-.12.11-.18-.03-.06-.19-.12-.25-.18-.12-.11.16-.35.47-.35h0Z"/>
        <path class="cls-3" d="M35.88,29.08c.66.26.35.34.11.53-.04.06.02.12.11.18.2.12.26.24.26.35-.02.1-.29.35-.58.35-.32-.12-.44-.24-.48-.35,0-.12.06-.24.26-.35.09-.06.15-.12.11-.18-.03-.06-.19-.12-.25-.18-.12-.11.16-.35.47-.35h0Z"/>
        <path class="cls-3" d="M34.06,27.2c.66.25.35.34.11.53-.04.06.02.12.11.18.2.12.26.24.26.35-.02.1-.29.35-.58.35-.32-.12-.44-.24-.48-.35,0-.12.06-.24.26-.35.09-.06.15-.12.11-.18-.03-.06-.19-.12-.25-.18-.12-.11.16-.35.47-.35h0Z"/>
        <path class="cls-3" d="M53.51,29.17c.66.25.35.34.11.53-.04.06.02.12.11.18.2.12.26.24.26.35-.02.1-.29.35-.58.35-.32-.12-.44-.24-.48-.35,0-.12.06-.24.26-.35.09-.06.15-.12.11-.18-.03-.06-.19-.12-.25-.18-.12-.11.16-.35.47-.35h0Z"/>
        <path class="cls-3" d="M55.56,26.9c.66.26.35.34.11.53-.04.06.02.12.11.18.2.12.26.24.26.35-.02.1-.29.35-.58.35-.32-.12-.44-.24-.48-.35,0-.12.06-.24.26-.35.09-.06.15-.12.11-.18-.03-.06-.19-.12-.25-.18-.12-.11.16-.35.47-.35h0Z"/>
      </g>
      <g>
        <path class="cls-1" d="M54.99,21.11l.07-4.08h-.48c-1.48-4.28-6.19-7.41-11.77-7.41s-10.45,3.24-11.84,7.63h-.4l-.02.53c-.01.18.05,3.31.06,3.49.2,5.28,5.43,8.92,12.2,8.92s11.86-3.64,12.18-9.08Z"/>
        <ellipse class="cls-2" cx="42.81" cy="17.48" rx="12.25" ry="10.29"/>
        <rect class="cls-3" x="41.21" y="12.46" width="2.88" height="8.45" rx="1.44" ry="1.44" transform="translate(59.34 -25.96) rotate(90)"/>
        <rect class="cls-1" x="41.21" y="12.78" width="2.88" height="8.45" rx="1.44" ry="1.44" transform="translate(59.66 -25.65) rotate(90)"/>
        <path class="cls-3" d="M49.1,26.88c.66.25.35.34.11.53-.04.06.02.12.11.18.2.12.26.24.26.35-.02.1-.29.35-.58.35-.32-.12-.44-.24-.48-.35,0-.12.06-.24.26-.35.09-.06.15-.12.11-.18-.03-.06-.19-.12-.25-.18-.12-.11.16-.35.47-.35h0Z"/>
        <path class="cls-3" d="M46.77,27.85c.66.26.35.34.11.53-.04.06.02.12.11.18.2.12.26.24.26.35-.02.1-.29.35-.58.35-.32-.12-.44-.24-.48-.35,0-.12.06-.24.26-.35.09-.06.15-.12.11-.18-.03-.06-.19-.12-.25-.18-.12-.11.16-.35.47-.35h0Z"/>
        <path class="cls-3" d="M43.2,28.27c.66.25.35.34.11.53-.04.06.02.12.11.18.2.12.26.24.26.35-.02.1-.29.35-.58.35-.32-.12-.44-.24-.48-.35,0-.12.06-.24.26-.35.09-.06.15-.12.11-.18-.03-.06-.19-.12-.25-.18-.12-.11.16-.35.47-.35h0Z"/>
        <path class="cls-3" d="M39.66,27.94c.66.26.35.34.11.53-.04.06.02.12.11.18.2.12.26.24.26.35-.02.1-.29.35-.58.35-.32-.12-.44-.24-.48-.35,0-.12.06-.24.26-.35.09-.06.15-.12.11-.18-.03-.06-.19-.12-.25-.18-.12-.11.16-.35.47-.35h0Z"/>
        <path class="cls-3" d="M36.72,26.97c.65.25.36.34.11.53-.04.06.02.12.11.18.2.12.26.24.26.35-.02.1-.29.35-.58.35-.32-.12-.44-.24-.48-.35,0-.12.06-.24.26-.35.09-.06.15-.12.11-.18-.03-.06-.19-.12-.25-.18-.12-.11.16-.35.47-.35h0Z"/>
        <path class="cls-3" d="M33.96,25.12c.66.26.35.34.11.53-.04.06.02.12.11.18.2.12.26.24.26.35-.02.1-.29.35-.58.35-.32-.12-.44-.24-.48-.35,0-.12.06-.24.26-.35.09-.06.15-.12.11-.18-.03-.06-.19-.12-.25-.18-.12-.11.16-.35.47-.35h0Z"/>
        <path class="cls-3" d="M32.15,23.25c.66.25.35.34.11.53-.04.06.02.12.11.18.2.12.26.24.26.35-.02.1-.29.35-.58.35-.32-.12-.44-.24-.48-.35,0-.12.06-.24.26-.35.09-.06.15-.12.11-.18-.03-.06-.19-.12-.25-.18-.12-.11.16-.35.47-.35h0Z"/>
        <path class="cls-3" d="M51.59,25.22c.66.25.35.34.11.53-.04.06.02.12.11.18.2.12.26.24.26.35-.02.1-.29.35-.58.35-.32-.12-.44-.24-.48-.35,0-.12.06-.24.26-.35.09-.06.15-.12.11-.18-.03-.06-.19-.12-.25-.18-.12-.11.16-.35.47-.35h0Z"/>
        <path class="cls-3" d="M53.65,22.94c.66.26.35.34.11.53-.04.06.02.12.11.18.2.12.26.24.26.35-.02.1-.29.35-.58.35-.32-.12-.44-.24-.48-.35,0-.12.06-.24.26-.35.09-.06.15-.12.11-.18-.03-.06-.19-.12-.25-.18-.12-.11.16-.35.47-.35h0Z"/>
      </g>
      <g>
        <path class="cls-1" d="M51.99,15.96l.07-4.08h-.48c-1.48-4.28-6.19-7.41-11.77-7.41s-10.45,3.24-11.84,7.63h-.4l-.02.53c-.01.18.05,3.31.06,3.49.2,5.28,5.43,8.92,12.2,8.92s11.86-3.64,12.18-9.08Z"/>
        <ellipse class="cls-2" cx="39.81" cy="12.33" rx="12.25" ry="10.29"/>
        <rect class="cls-3" x="38.21" y="7.31" width="2.88" height="8.45" rx="1.44" ry="1.44" transform="translate(51.18 -28.12) rotate(90)"/>
        <rect class="cls-1" x="38.21" y="7.63" width="2.88" height="8.45" rx="1.44" ry="1.44" transform="translate(51.5 -27.8) rotate(90)"/>
        <path class="cls-3" d="M46.11,21.73c.66.25.35.34.11.53-.04.06.02.12.11.18.2.12.26.24.26.35-.02.1-.29.35-.58.35-.32-.12-.44-.24-.48-.35,0-.12.06-.24.26-.35.09-.06.15-.12.11-.18-.03-.06-.19-.12-.25-.18-.12-.11.16-.35.47-.35h0Z"/>
        <path class="cls-3" d="M43.77,22.69c.66.26.35.34.11.53-.04.06.02.12.11.18.2.12.26.24.26.35-.02.1-.29.35-.58.35-.32-.12-.44-.24-.48-.35,0-.12.06-.24.26-.35.09-.06.15-.12.11-.18-.03-.06-.19-.12-.25-.18-.12-.11.16-.35.47-.35h0Z"/>
        <path class="cls-3" d="M40.2,23.12c.66.25.35.34.11.53-.04.06.02.12.11.18.2.12.26.24.26.35-.02.1-.29.35-.58.35-.32-.12-.44-.24-.48-.35,0-.12.06-.24.26-.35.09-.06.15-.12.11-.18-.03-.06-.19-.12-.25-.18-.12-.11.16-.35.47-.35h0Z"/>
        <path class="cls-3" d="M36.66,22.79c.66.26.35.34.11.53-.04.06.02.12.11.18.2.12.26.24.26.35-.02.1-.29.35-.58.35-.32-.12-.44-.24-.48-.35,0-.12.06-.24.26-.35.09-.06.15-.12.11-.18-.03-.06-.19-.12-.25-.18-.12-.11.16-.35.47-.35h0Z"/>
        <path class="cls-3" d="M33.72,21.82c.65.25.36.34.11.53-.04.06.02.12.11.18.2.12.26.24.26.35-.02.1-.29.35-.58.35-.32-.12-.44-.24-.48-.35,0-.12.06-.24.26-.35.09-.06.15-.12.11-.18-.03-.06-.19-.12-.25-.18-.12-.11.16-.35.47-.35h0Z"/>
        <path class="cls-3" d="M30.97,19.97c.66.26.35.34.11.53-.04.06.02.12.11.18.2.12.26.24.26.35-.02.1-.29.35-.58.35-.32-.12-.44-.24-.48-.35,0-.12.06-.24.26-.35.09-.06.15-.12.11-.18-.03-.06-.19-.12-.25-.18-.12-.11.16-.35.47-.35h0Z"/>
        <path class="cls-3" d="M29.15,18.09c.66.25.35.34.11.53-.04.06.02.12.11.18.2.12.26.24.26.35-.02.1-.29.35-.58.35-.32-.12-.44-.24-.48-.35,0-.12.06-.24.26-.35.09-.06.15-.12.11-.18-.03-.06-.19-.12-.25-.18-.12-.11.16-.35.47-.35h0Z"/>
        <path class="cls-3" d="M48.59,20.06c.66.25.35.34.11.53-.04.06.02.12.11.18.2.12.26.24.26.35-.02.1-.29.35-.58.35-.32-.12-.44-.24-.48-.35,0-.12.06-.24.26-.35.09-.06.15-.12.11-.18-.03-.06-.19-.12-.25-.18-.12-.11.16-.35.47-.35h0Z"/>
        <path class="cls-3" d="M50.65,17.79c.66.26.35.34.11.53-.04.06.02.12.11.18.2.12.26.24.26.35-.02.1-.29.35-.58.35-.32-.12-.44-.24-.48-.35,0-.12.06-.24.26-.35.09-.06.15-.12.11-.18-.03-.06-.19-.12-.25-.18-.12-.11.16-.35.47-.35h0Z"/>
      </g>
      <g>
        <path class="cls-1" d="M59.18,13.92l.07-4.08h-.48c-1.48-4.28-6.19-7.41-11.77-7.41s-10.45,3.24-11.84,7.63h-.4l-.02.53c-.01.18.05,3.31.06,3.49.2,5.28,5.43,8.92,12.2,8.92s11.86-3.64,12.18-9.08Z"/>
        <ellipse class="cls-2" cx="47.01" cy="10.29" rx="12.25" ry="10.29"/>
        <rect class="cls-3" x="45.4" y="5.27" width="2.88" height="8.45" rx="1.44" ry="1.44" transform="translate(56.34 -37.35) rotate(90)"/>
        <rect class="cls-1" x="45.4" y="5.59" width="2.88" height="8.45" rx="1.44" ry="1.44" transform="translate(56.66 -37.04) rotate(90)"/>
        <path class="cls-3" d="M53.3,19.69c.66.25.35.34.11.53-.04.06.02.12.11.18.2.12.26.24.26.35-.02.1-.29.35-.58.35-.32-.12-.44-.24-.48-.35,0-.12.06-.24.26-.35.09-.06.15-.12.11-.18-.03-.06-.19-.12-.25-.18-.12-.11.16-.35.47-.35h0Z"/>
        <path class="cls-3" d="M50.97,20.66c.66.26.35.34.11.53-.04.06.02.12.11.18.2.12.26.24.26.35-.02.1-.29.35-.58.35-.32-.12-.44-.24-.48-.35,0-.12.06-.24.26-.35.09-.06.15-.12.11-.18-.03-.06-.19-.12-.25-.18-.12-.11.16-.35.47-.35h0Z"/>
        <path class="cls-3" d="M47.4,21.08c.66.25.35.34.11.53-.04.06.02.12.11.18.2.12.26.24.26.35-.02.1-.29.35-.58.35-.32-.12-.44-.24-.48-.35,0-.12.06-.24.26-.35.09-.06.15-.12.11-.18-.03-.06-.19-.12-.25-.18-.12-.11.16-.35.47-.35h0Z"/>
        <path class="cls-3" d="M43.85,20.75c.66.26.35.34.11.53-.04.06.02.12.11.18.2.12.26.24.26.35-.02.1-.29.35-.58.35-.32-.12-.44-.24-.48-.35,0-.12.06-.24.26-.35.09-.06.15-.12.11-.18-.03-.06-.19-.12-.25-.18-.12-.11.16-.35.47-.35h0Z"/>
        <path class="cls-3" d="M40.91,19.78c.65.25.36.34.11.53-.04.06.02.12.11.18.2.12.26.24.26.35-.02.1-.29.35-.58.35-.32-.12-.44-.24-.48-.35,0-.12.06-.24.26-.35.09-.06.15-.12.11-.18-.03-.06-.19-.12-.25-.18-.12-.11.16-.35.47-.35h0Z"/>
        <path class="cls-3" d="M38.16,17.93c.66.26.35.34.11.53-.04.06.02.12.11.18.2.12.26.24.26.35-.02.1-.29.35-.58.35-.32-.12-.44-.24-.48-.35,0-.12.06-.24.26-.35.09-.06.15-.12.11-.18-.03-.06-.19-.12-.25-.18-.12-.11.16-.35.47-.35h0Z"/>
        <path class="cls-3" d="M36.34,16.05c.66.25.35.34.11.53-.04.06.02.12.11.18.2.12.26.24.26.35-.02.1-.29.35-.58.35-.32-.12-.44-.24-.48-.35,0-.12.06-.24.26-.35.09-.06.15-.12.11-.18-.03-.06-.19-.12-.25-.18-.12-.11.16-.35.47-.35h0Z"/>
        <path class="cls-3" d="M55.78,18.02c.66.25.35.34.11.53-.04.06.02.12.11.18.2.12.26.24.26.35-.02.1-.29.35-.58.35-.32-.12-.44-.24-.48-.35,0-.12.06-.24.26-.35.09-.06.15-.12.11-.18-.03-.06-.19-.12-.25-.18-.12-.11.16-.35.47-.35h0Z"/>
        <path class="cls-3" d="M57.84,15.75c.66.26.35.34.11.53-.04.06.02.12.11.18.2.12.26.24.26.35-.02.1-.29.35-.58.35-.32-.12-.44-.24-.48-.35,0-.12.06-.24.26-.35.09-.06.15-.12.11-.18-.03-.06-.19-.12-.25-.18-.12-.11.16-.35.47-.35h0Z"/>
      </g>
      <g>
        <path class="cls-1" d="M61.76,46.34l3.66-1.8-.22-.43c3.13-3.28,3.76-8.89,1.21-13.85s-7.66-7.81-12.2-7.04l-.18-.35-.48.23c-.17.07-2.92,1.56-3.08,1.65-4.6,2.59-5.45,8.91-2.35,14.93,3,5.84,8.66,8.88,13.65,6.67Z"/>
        <ellipse class="cls-2" cx="59.42" cy="33.85" rx="10.29" ry="12.25" transform="translate(-8.9 30.92) rotate(-27.22)"/>
        <rect class="cls-3" x="58.61" y="29.12" width="2.88" height="8.45" rx="1.44" ry="1.44" transform="translate(128.71 35.53) rotate(152.78)"/>
        <rect class="cls-1" x="58.33" y="29.27" width="2.88" height="8.45" rx="1.44" ry="1.44" transform="translate(128.24 35.94) rotate(152.78)"/>
        <path class="cls-3" d="M53.94,43.75c.07.7-.14.47-.42.34-.07,0-.09.08-.11.18-.01.23-.09.33-.2.39-.1.03-.45-.1-.58-.36-.04-.34,0-.5.09-.59.11-.05.24-.05.43.07.09.05.17.08.21.02.04-.05.02-.22.04-.31.04-.15.39-.02.53.25h0Z"/>
        <path class="cls-3" d="M52.01,42.12c.07.7-.14.47-.42.34-.07,0-.09.08-.11.18-.01.23-.09.33-.2.39-.1.03-.45-.1-.58-.36-.04-.34,0-.5.09-.59.11-.05.24-.05.43.07.09.05.17.08.21.02.04-.05.02-.22.04-.31.04-.15.39-.02.53.25h0Z"/>
        <path class="cls-3" d="M50,39.13c.07.7-.14.47-.42.34-.07,0-.09.08-.11.18-.01.23-.09.33-.2.39-.1.03-.45-.1-.58-.36-.04-.34,0-.5.09-.59.11-.05.24-.05.43.07.09.05.17.08.21.02.04-.05.02-.23.04-.31.04-.15.39-.02.53.25h0Z"/>
        <path class="cls-3" d="M48.67,35.83c.07.7-.15.47-.42.34-.07,0-.09.08-.11.18-.01.23-.09.33-.2.39-.1.03-.45-.1-.58-.36-.04-.34,0-.5.09-.59.11-.05.24-.05.43.07.09.05.17.08.21.02.04-.05.02-.23.04-.31.04-.15.39-.02.53.25h0Z"/>
        <path class="cls-3" d="M48.19,32.78c.07.7-.14.47-.42.34-.07,0-.09.08-.11.18-.01.23-.09.33-.2.39-.1.03-.45-.1-.58-.36-.04-.34,0-.5.09-.59.11-.05.24-.05.43.07.09.05.17.08.21.02.04-.05.02-.23.04-.31.04-.15.39-.02.53.25h0Z"/>
        <path class="cls-3" d="M48.57,29.48c.07.7-.14.47-.42.34-.07,0-.09.08-.11.18-.01.23-.09.33-.2.39-.09.03-.45-.1-.58-.36-.04-.34,0-.5.09-.59.11-.05.24-.05.43.07.09.05.17.08.21.02.04-.05.02-.22.04-.31.04-.15.39-.02.53.25h0Z"/>
        <path class="cls-3" d="M49.41,27.01c.07.7-.14.47-.42.34-.07,0-.09.08-.11.18-.01.23-.09.33-.2.39-.1.03-.45-.1-.58-.36-.04-.34,0-.5.09-.59.11-.05.24-.05.43.07.09.05.17.08.21.02.04-.05.02-.23.04-.31.04-.15.39-.02.53.25h0Z"/>
        <path class="cls-3" d="M56.55,45.19c.07.7-.14.47-.42.34-.07,0-.09.08-.11.18-.01.23-.09.33-.2.39-.1.03-.45-.1-.58-.36-.04-.34,0-.5.09-.59.11-.05.24-.05.43.07.09.05.17.08.21.02.04-.05.02-.22.04-.31.04-.15.39-.02.53.25h0Z"/>
        <path class="cls-3" d="M59.52,45.99c.07.7-.14.47-.42.34-.07,0-.09.08-.11.18-.01.23-.09.33-.2.39-.1.03-.45-.1-.58-.36-.04-.34,0-.5.09-.59.11-.05.24-.05.43.07.09.05.17.08.21.02.04-.05.02-.22.04-.31.04-.15.39-.02.53.25h0Z"/>
      </g>
      <g>
        <path class="cls-1" d="M67.59,48.34l3.66-1.8-.22-.43c3.13-3.28,3.76-8.89,1.21-13.85-2.6-5.05-7.66-7.81-12.2-7.04l-.18-.35-.48.23c-.17.07-2.92,1.56-3.08,1.65-4.6,2.59-5.45,8.91-2.35,14.93s8.66,8.88,13.65,6.67Z"/>
        <ellipse class="cls-2" cx="65.25" cy="35.86" rx="10.29" ry="12.25" transform="translate(-9.17 33.81) rotate(-27.22)"/>
        <rect class="cls-3" x="64.44" y="31.13" width="2.88" height="8.45" rx="1.44" ry="1.44" transform="translate(140.64 36.65) rotate(152.78)"/>
        <rect class="cls-1" x="64.15" y="31.27" width="2.88" height="8.45" rx="1.44" ry="1.44" transform="translate(140.17 37.06) rotate(152.78)"/>
        <path class="cls-3" d="M59.77,45.75c.07.7-.14.47-.42.34-.07,0-.09.08-.11.18-.01.23-.09.33-.2.39-.1.03-.45-.1-.58-.36-.04-.34,0-.5.09-.59.11-.05.24-.05.43.07.09.05.17.08.21.02.04-.05.02-.22.04-.31.04-.15.39-.02.53.25h0Z"/>
        <path class="cls-3" d="M57.84,44.12c.07.7-.14.47-.42.34-.07,0-.09.08-.11.18-.01.23-.09.33-.2.39-.1.03-.45-.1-.58-.36-.04-.34,0-.5.09-.59.11-.05.24-.05.43.07.09.05.17.08.21.02.04-.05.02-.22.04-.31.04-.15.39-.02.53.25h0Z"/>
        <path class="cls-3" d="M55.83,41.14c.07.7-.14.47-.42.34-.07,0-.09.08-.11.18-.01.23-.09.33-.2.39-.1.03-.45-.1-.58-.36-.04-.34,0-.5.09-.59.11-.05.24-.05.43.07.09.05.17.08.21.02.04-.05.02-.23.04-.31.04-.15.39-.02.53.25h0Z"/>
        <path class="cls-3" d="M54.5,37.83c.07.7-.15.47-.42.34-.07,0-.09.08-.11.18-.01.23-.09.33-.2.39-.1.03-.45-.1-.58-.36-.04-.34,0-.5.09-.59.11-.05.24-.05.43.07.09.05.17.08.21.02.04-.05.02-.23.04-.31.04-.15.39-.02.53.25h0Z"/>
        <path class="cls-3" d="M54.02,34.78c.07.7-.14.47-.42.34-.07,0-.09.08-.11.18-.01.23-.09.33-.2.39-.1.03-.45-.1-.58-.36-.04-.34,0-.5.09-.59.11-.05.24-.05.43.07.09.05.17.08.21.02.04-.05.02-.23.04-.31.04-.15.39-.02.53.25h0Z"/>
        <path class="cls-3" d="M54.4,31.48c.07.7-.14.47-.42.34-.07,0-.09.08-.11.18-.01.23-.09.33-.2.39-.09.03-.45-.1-.58-.36-.04-.34,0-.5.09-.59.11-.05.24-.05.43.07.09.05.17.08.21.02.04-.05.02-.22.04-.31.04-.15.39-.02.53.25h0Z"/>
        <path class="cls-3" d="M55.24,29.01c.07.7-.14.47-.42.34-.07,0-.09.08-.11.18-.01.23-.09.33-.2.39-.1.03-.45-.1-.58-.36-.04-.34,0-.5.09-.59.11-.05.24-.05.43.07.09.05.17.08.21.02.04-.05.02-.23.04-.31.04-.15.39-.02.53.25h0Z"/>
        <path class="cls-3" d="M62.38,47.2c.07.7-.14.47-.42.34-.07,0-.09.08-.11.18-.01.23-.09.33-.2.39-.1.03-.45-.1-.58-.36-.04-.34,0-.5.09-.59.11-.05.24-.05.43.07.09.05.17.08.21.02.04-.05.02-.22.04-.31.04-.15.39-.02.53.25h0Z"/>
        <path class="cls-3" d="M65.34,47.99c.07.7-.14.47-.42.34-.07,0-.09.08-.11.18-.01.23-.09.33-.2.39-.1.03-.45-.1-.58-.36-.04-.34,0-.5.09-.59.11-.05.24-.05.43.07.09.05.17.08.21.02.04-.05.02-.22.04-.31.04-.15.39-.02.53.25h0Z"/>
      </g>
      <g>
        <path class="cls-1" d="M39.46,45.74l-.11-4.08-.48.02c-1.68-4.21-6.52-7.12-12.09-6.87-5.67.26-10.29,3.71-11.48,8.16l-.4.02v.53c0,.18.21,3.3.22,3.49.43,5.26,5.83,8.66,12.59,8.36,6.56-.3,11.68-4.17,11.75-9.63Z"/>
        <ellipse class="cls-2" cx="27.13" cy="42.66" rx="12.25" ry="10.29" transform="translate(-1.91 1.27) rotate(-2.6)"/>
        <rect class="cls-3" x="25.5" y="37.65" width="2.88" height="8.45" rx="1.44" ry="1.44" transform="translate(67.55 13.07) rotate(87.4)"/>
        <rect class="cls-1" x="25.51" y="37.97" width="2.88" height="8.45" rx="1.44" ry="1.44" transform="translate(67.88 13.36) rotate(87.4)"/>
        <path class="cls-3" d="M33.85,51.77c.67.22.37.33.14.52-.04.06.03.12.12.17.2.11.27.22.28.34-.01.1-.27.37-.57.38-.33-.1-.45-.22-.5-.33,0-.12.05-.24.24-.36.08-.06.14-.12.1-.18-.03-.06-.2-.11-.26-.17-.12-.1.15-.36.45-.37h0Z"/>
        <path class="cls-3" d="M31.56,52.84c.67.22.37.33.14.52-.04.06.03.12.12.17.2.11.27.22.28.34-.01.1-.27.37-.57.38-.33-.1-.45-.22-.5-.33,0-.12.05-.24.24-.36.08-.06.14-.12.1-.18-.03-.06-.2-.11-.26-.17-.12-.1.15-.36.45-.37h0Z"/>
        <path class="cls-3" d="M28.01,53.43c.67.22.37.33.14.52-.04.06.03.12.12.17.2.11.27.22.28.34-.01.1-.27.37-.57.38-.33-.1-.45-.22-.5-.33,0-.12.05-.24.24-.36.08-.06.14-.12.1-.18-.03-.06-.2-.11-.26-.17-.12-.1.15-.36.45-.37h0Z"/>
        <path class="cls-3" d="M24.46,53.26c.67.22.37.33.14.52-.04.06.03.12.12.17.2.11.27.22.28.34-.01.1-.27.37-.57.38-.33-.1-.45-.22-.5-.33,0-.12.05-.24.24-.37.08-.06.14-.12.1-.18-.03-.06-.2-.11-.26-.17-.12-.1.15-.36.45-.37h0Z"/>
        <path class="cls-3" d="M21.48,52.42c.66.22.37.32.14.52-.04.06.03.12.12.17.2.11.27.22.28.34-.01.1-.27.37-.57.38-.33-.1-.45-.22-.5-.33,0-.12.05-.24.24-.37.08-.06.14-.12.1-.18-.03-.06-.2-.11-.26-.17-.12-.1.15-.36.45-.37h0Z"/>
        <path class="cls-3" d="M18.64,50.7c.67.22.37.33.14.52-.04.06.03.12.12.17.2.11.27.22.28.34-.01.1-.27.37-.57.38-.33-.1-.45-.22-.5-.33,0-.12.05-.24.24-.36.08-.06.14-.12.1-.18-.03-.06-.2-.11-.26-.17-.12-.1.15-.36.45-.37h0Z"/>
        <path class="cls-3" d="M16.74,48.91c.67.22.37.33.14.52-.04.06.03.12.12.17.2.11.27.22.28.34-.01.1-.27.37-.57.38-.33-.1-.45-.22-.5-.33,0-.12.05-.24.24-.37.08-.06.14-.12.1-.18-.03-.06-.2-.11-.26-.17-.12-.1.15-.36.45-.37h0Z"/>
        <path class="cls-3" d="M36.25,49.99c.67.22.37.33.14.52-.04.06.03.12.12.17.2.11.27.22.28.34-.01.1-.27.37-.57.38-.33-.1-.45-.22-.5-.33,0-.12.05-.24.24-.37.08-.06.14-.12.1-.18-.03-.06-.2-.11-.26-.17-.12-.1.15-.36.45-.37h0Z"/>
        <path class="cls-3" d="M38.21,47.63c.67.23.36.33.14.52-.04.06.03.12.12.17.2.11.27.22.28.34-.01.1-.27.37-.57.38-.33-.1-.45-.22-.5-.33,0-.12.05-.24.24-.36.08-.06.14-.12.1-.18-.03-.06-.2-.11-.26-.17-.12-.1.15-.36.45-.37h0Z"/>
      </g>
      <g>
        <path class="cls-1" d="M24.42,40.08l-1.75-3.69-.43.21c-3.23-3.18-8.84-3.89-13.83-1.41S.48,42.75,1.19,47.3l-.36.18.22.49c.07.17,1.52,2.94,1.61,3.1,2.52,4.64,8.83,5.57,14.89,2.57,5.88-2.92,9.01-8.53,6.87-13.55Z"/>
        <ellipse class="cls-2" cx="11.89" cy="42.24" rx="12.25" ry="10.29" transform="translate(-17.54 9.69) rotate(-26.39)"/>
        <rect class="cls-3" x="9.96" y="37.38" width="2.88" height="8.45" rx="1.44" ry="1.44" transform="translate(43.6 12.9) rotate(63.61)"/>
        <rect class="cls-1" x="10.1" y="37.66" width="2.88" height="8.45" rx="1.44" ry="1.44" transform="translate(43.93 12.93) rotate(63.61)"/>
        <path class="cls-3" d="M21.71,47.86c.7-.06.47.15.34.43,0,.07.07.09.18.11.23.02.33.1.39.2.03.1-.1.45-.37.58-.34.04-.5-.02-.59-.1-.05-.11-.05-.24.08-.43.05-.09.08-.17.02-.21-.05-.04-.22-.02-.31-.05-.15-.04,0-.39.26-.52h0Z"/>
        <path class="cls-3" d="M20.05,49.77c.7-.06.47.15.34.42,0,.07.07.09.18.11.23.02.33.1.39.2.03.1-.1.45-.37.58-.34.04-.5-.02-.59-.1-.05-.11-.05-.24.08-.43.05-.09.08-.17.02-.21-.05-.04-.22-.02-.31-.05-.15-.05,0-.39.26-.52h0Z"/>
        <path class="cls-3" d="M17.04,51.74c.7-.06.47.15.34.42,0,.07.07.09.18.11.23.02.33.1.39.2.03.1-.1.45-.37.58-.34.04-.5-.02-.59-.1-.05-.11-.05-.24.08-.43.05-.09.08-.17.02-.21-.05-.04-.22-.02-.31-.05-.15-.05,0-.39.26-.52h0Z"/>
        <path class="cls-3" d="M13.72,53.01c.7-.06.47.15.34.43,0,.07.07.09.18.11.23.02.33.1.39.2.03.1-.1.45-.37.58-.34.04-.5-.02-.59-.1-.05-.11-.05-.24.08-.43.05-.09.08-.17.02-.21-.05-.04-.22-.02-.31-.05-.15-.04,0-.39.26-.52h0Z"/>
        <path class="cls-3" d="M10.66,53.45c.7-.06.47.15.34.43,0,.07.07.09.18.11.23.02.33.1.39.2.03.1-.1.45-.37.58-.34.04-.5-.02-.59-.1-.05-.11-.05-.24.08-.43.05-.09.08-.17.02-.21-.05-.04-.22-.02-.31-.05-.15-.04,0-.39.26-.52h0Z"/>
        <path class="cls-3" d="M7.37,53.02c.7-.06.46.15.34.43,0,.07.07.09.18.11.23.02.33.1.39.2.03.1-.1.45-.37.58-.34.04-.5-.02-.59-.1-.05-.11-.05-.24.08-.43.05-.09.08-.17.02-.21-.05-.04-.22-.02-.31-.05-.15-.04-.01-.39.26-.52h0Z"/>
        <path class="cls-3" d="M4.91,52.15c.7-.06.47.15.34.42,0,.07.07.09.18.11.23.02.33.1.39.2.03.1-.1.45-.37.58-.34.04-.5-.02-.59-.1-.05-.11-.05-.24.08-.43.05-.09.08-.17.02-.21-.05-.04-.22-.02-.31-.05-.15-.05-.01-.39.26-.52h0Z"/>
        <path class="cls-3" d="M23.2,45.27c.7-.06.47.15.34.43,0,.07.07.09.18.11.23.02.33.1.39.2.03.1-.1.45-.37.58-.34.04-.5-.02-.59-.1-.05-.11-.05-.24.08-.43.05-.09.08-.17.02-.21-.05-.04-.22-.02-.31-.05-.15-.04,0-.39.26-.52h0Z"/>
        <path class="cls-3" d="M24.03,42.32c.7-.06.47.15.34.42,0,.07.07.09.18.11.23.02.33.1.39.2.03.1-.1.45-.37.58-.34.04-.5-.02-.59-.1-.05-.11-.05-.24.08-.43.05-.09.08-.17.02-.21-.05-.04-.22-.02-.31-.05-.15-.05-.01-.39.26-.52h0Z"/>
      </g>
    </g>
  </g>
</svg>