<?xml version="1.0" encoding="UTF-8"?>
<svg id="Layer_2" data-name="Layer 2" xmlns="http://www.w3.org/2000/svg" viewBox="0 0 94.86 116.71">
  <defs>
    <style>
      .cls-1 {
        fill: #eaeaea;
      }

      .cls-2 {
        fill: #a05827;
      }

      .cls-3 {
        fill: #d87939;
      }
    </style>
  </defs>
  <g id="Layer_1-2" data-name="Layer 1">
    <g>
      <path class="cls-3" d="M46.17,70.17L1.85,90.75c-2.46,1.14-2.46,4.65,0,5.79l41.5,19.27c2.59,1.2,5.57,1.2,8.16,0l41.5-19.27c2.46-1.14,2.46-4.65,0-5.79l-44.32-20.58c-.8-.37-1.72-.37-2.52,0Z"/>
      <path class="cls-2" d="M55.6,1.37S52.18,0,47.43,0c-4.74,0-8.11,1.37-8.11,1.37l-18.43,93.22s13.09,7.5,28.83,7.5,24.26-7.5,24.26-7.5L55.6,1.37Z"/>
      <path class="cls-3" d="M55.6,1.37s-3.65,2.06-8.17,2.16c-4.09.09-8.11-2.16-8.11-2.16l-18.43,93.22s13.09,6.85,28.83,6.85,24.26-6.85,24.26-6.85L55.6,1.37Z"/>
      <path class="cls-1" d="M49.49,67.42c-9.37,0-17.71-2.64-22.42-4.5l-1.96,9.89c4.06,1.77,13.54,5.31,24.38,5.31,10.19,0,17.07-3.12,20.26-4.96l-1.91-9.69c-3.67,1.79-9.86,3.95-18.35,3.95Z"/>
      <path class="cls-1" d="M49.19,47.03c-7.61,0-14.38-2.14-18.21-3.65l-1.59,8.04c3.3,1.44,10.99,4.31,19.8,4.31,8.28,0,13.86-2.53,16.45-4.03l-1.55-7.87c-2.98,1.45-8,3.21-14.9,3.21Z"/>
    </g>
  </g>
</svg>