<?xml version="1.0" encoding="UTF-8"?>
<svg id="Layer_2" data-name="Layer 2" xmlns="http://www.w3.org/2000/svg" viewBox="0 0 180.01 206.18">
  <defs>
    <style>
      .cls-1 {
        fill: #231f20;
      }

      .cls-2 {
        fill: #073a42;
        opacity: .43;
      }

      .cls-3 {
        fill: #8d8f91;
      }

      .cls-4 {
        fill: #8b8e90;
      }

      .cls-5 {
        fill: #999b9d;
      }

      .cls-6 {
        fill: #fff;
      }

      .cls-7 {
        fill: #353535;
      }
    </style>
  </defs>
  <g id="Layer_1-2" data-name="Layer 1">
    <g>
      <ellipse class="cls-2" cx="74.97" cy="196.04" rx="60.74" ry="10.15"/>
      <g>
        <path class="cls-3" d="M30.7,88.16c-10.05,7.05-27.57,19.62-30.7,24.59,0,0,2.69.83,3.12.54s-1.59,1.34-1.85,2.12c0,0,2.91.11,3.3,0,0,0-1.52,1.96-1.69,2.48,0,0,6.84-1.14,19.73-7.97,5.37-2.85,16.29-9.11,16.29-9.11"/>
        <path class="cls-5" d="M37.88,31.98c-.48-2.81,3.68-30.14,6.98-31.88,3.29-1.74,20.43,20.25,20.73,21.85s-27.7,10.03-27.7,10.03Z"/>
        <path class="cls-7" d="M48.33,27.62c-.18-.91,1.36-9.78,2.58-10.35s6.15,5.59,6.26,6.11-8.84,4.23-8.84,4.23Z"/>
        <path class="cls-5" d="M128.68,38.87c1.15-2.61,3.72-30.13.94-32.62s-24.72,14.7-25.4,16.19,24.45,16.44,24.45,16.44Z"/>
        <path class="cls-3" d="M127.29,160.04c15.47,4.25,26.9,0,32.13-4.57,5.23-4.57,21.23-36.58,20.57-46.37-.08-1.22-.47-4.13-2.22-4.91-6.65-2.93-12.67-2.6-18.98.94-7.54,4.23-25.63,24.99-28.08,27.08s-3.42,27.84-3.42,27.84Z"/>
        <path class="cls-5" d="M26.11,196.04c-13.65-36.09,4.79-121.07,4.79-121.07L0,52.23s44.43-24.03,53.12-28.02c16.62-7.62,44.75-8.01,60.11,0,15.36,8.01,52.1,50.09,52.1,50.09l-34.73,10.69s4.99,88.57-5.03,111.05l-14.25-17.99s-59.75.94-66.34,1.41l-18.87,16.58Z"/>
        <path class="cls-7" d="M33.76,34.15c11.15-2.66,25.3-1.77,34.8,3.5,0-.44-15.02,17.23-25.18,18.11-10.16.88-20.33-15.98-20.33-15.98l10.7-5.63Z"/>
        <path class="cls-7" d="M82.66,38.87s13.81-2,22.59-.67c12.57,1.89,20.44,11.09,20.44,12.5,0,0-11.58,10.6-22.18,10.1-10.6-.49-18.39-18.73-20.85-21.93Z"/>
        <circle class="cls-6" cx="100.86" cy="45.27" r="2.51"/>
        <circle class="cls-6" cx="52.74" cy="41.38" r="2.51"/>
        <path class="cls-1" d="M78.51,58.77c0-1.69-1.31-3.08-2.96-3.21h0s-5.16-.01-5.16-.01c-1.78,0-3.23,1.44-3.23,3.23s1.44,3.23,3.23,3.23h5.16c1.66-.15,2.96-1.53,2.96-3.23Z"/>
        <path class="cls-7" d="M125.06,31.98c.42-.91,1.16-10.63.05-11.54s-9.5,4.97-9.76,5.49,9.7,6.06,9.7,6.06Z"/>
        <path class="cls-4" d="M118.46,99.73c8.84,8.51,24.54,23.3,30.02,25.41,0,0,.29-2.8-.06-3.17s1.62,1.3,2.44,1.41c0,0-.45-2.88-.63-3.24,0,0,2.22,1.12,2.76,1.19,0,0-2.43-6.5-11.61-17.84-3.83-4.73-12.06-14.25-12.06-14.25"/>
        <path class="cls-5" d="M118.46,99.12c8.84,8.51,24.54,23.3,30.02,25.41,0,0,.29-2.8-.06-3.17s1.62,1.3,2.44,1.41c0,0-.45-2.88-.63-3.24,0,0,2.22,1.12,2.76,1.19,0,0-2.43-6.5-11.61-17.84-3.83-4.73-12.06-14.25-12.06-14.25"/>
        <path class="cls-7" d="M136.71,125.93s21.83,21.29,22.71,29.54c0,0,2.71-3.1,4.38-5.92s-19.8-27.57-22.51-28.47c0,0-4.58,4.85-4.58,4.85Z"/>
        <path class="cls-7" d="M148.54,113.72s20.13,18.5,20.91,25.59c0,0,1.79-3.28,3.13-6.62,1.06-2.64-17.39-22.14-19.81-22.92,0,0-4.23,3.96-4.23,3.96Z"/>
        <path class="cls-7" d="M13.69,114.23c-3.9,2.07-10.8,3.67-10.8,3.67.17-.52,1.69-2.48,1.69-2.48-.39.1-3.3,0-3.3,0,.26-.78,2.28-2.4,1.85-2.12s-3.12-.54-3.12-.54c1.04-1.65,3.68-4.15,7.1-7.01l2.74.44-.57,1.91,1.65.51-.06,1.91,1.78.38-.25,1.46,1.52.44-.22,1.44Z"/>
        <path class="cls-7" d="M147.12,110.85c2.84,3.37,5.86,9.78,5.86,9.78-.54-.06-2.78-1.13-2.78-1.13.18.36.69,3.23.69,3.23-.82-.09-2.83-1.72-2.46-1.36s.13,3.17.13,3.17c-1.84-.67-4.83-2.72-8.34-5.46l-.14-2.77,1.98.16.15-1.72,1.88-.34v-1.82s1.48-.06,1.48-.06l.11-1.58,1.45-.09Z"/>
        <path class="cls-7" d="M118.91,187.62l6.67,8.41c1.15-2.59,2.11-6.05,2.89-10.15l-9.56,1.73Z"/>
        <path class="cls-5" d="M53.12,24.21c16.62-7.62,44.75-8.01,60.11,0"/>
        <path class="cls-7" d="M36.21,187.17l-10.1,8.87c-1.46-3.86-2.55-8.27-3.34-13.08l13.44,4.21Z"/>
        <path class="cls-4" d="M50.24,82.43c21.66,3.4,15.3,3.14,26.16,3.85,8.08.53,25.56.4,30.11-.02,0,0-26.04,1.31-30.32,1.31s-25.94-5.14-25.94-5.14Z"/>
      </g>
    </g>
  </g>
</svg>