<?xml version="1.0" encoding="UTF-8"?>
<svg id="Layer_2" data-name="Layer 2" xmlns="http://www.w3.org/2000/svg" viewBox="0 0 165.33 88.49">
  <defs>
    <style>
      .cls-1 {
        fill: #231f20;
      }

      .cls-2 {
        fill: #8b8e90;
      }

      .cls-3 {
        fill: #999b9d;
      }

      .cls-4 {
        fill: #fff;
      }

      .cls-5 {
        fill: #353535;
      }
    </style>
  </defs>
  <g id="Layer_1-2" data-name="Layer 1">
    <g>
      <g>
        <path class="cls-3" d="M37.88,31.98c-.48-2.81,3.68-30.14,6.98-31.88,3.29-1.74,20.43,20.25,20.73,21.85s-27.7,10.03-27.7,10.03Z"/>
        <path class="cls-5" d="M48.33,27.62c-.18-.91,1.36-9.78,2.58-10.35s6.15,5.59,6.26,6.11-8.84,4.23-8.84,4.23Z"/>
        <path class="cls-3" d="M113.23,24.21c-15.36-8.02-43.49-7.62-60.11,0C44.43,28.2,0,52.23,0,52.23l30.9,22.73c7.46,3.84,21.85,11.53,45.5,12.37,17.5.63,33.79,1.43,54.2-2.35,10.28-1.9,16.5-4.37,34.73-10.69,0,0-36.73-42.08-52.1-50.09Z"/>
        <path class="cls-3" d="M53.12,24.21c16.62-7.62,44.75-8.01,60.11,0"/>
        <path class="cls-3" d="M128.68,38.87c1.15-2.61,3.72-30.13.94-32.62s-24.72,14.7-25.4,16.19,24.45,16.44,24.45,16.44Z"/>
        <path class="cls-5" d="M33.76,34.15c11.15-2.66,25.3-1.77,34.8,3.5,0-.44-15.02,17.23-25.18,18.11-10.16.88-20.33-15.98-20.33-15.98l10.7-5.63Z"/>
        <path class="cls-5" d="M82.66,38.87s13.81-2,22.59-.67c12.57,1.89,20.44,11.09,20.44,12.5,0,0-11.58,10.6-22.18,10.1-10.6-.49-18.39-18.73-20.85-21.93Z"/>
        <circle class="cls-4" cx="100.86" cy="45.27" r="2.51"/>
        <circle class="cls-4" cx="52.74" cy="41.38" r="2.51"/>
        <path class="cls-1" d="M78.51,58.77c0-1.69-1.31-3.08-2.96-3.21h0s-5.16-.01-5.16-.01c-1.78,0-3.23,1.44-3.23,3.23s1.44,3.23,3.23,3.23h5.16c1.66-.15,2.96-1.53,2.96-3.23Z"/>
        <path class="cls-5" d="M125.06,31.98c.42-.91,1.16-10.63.05-11.54s-9.5,4.97-9.76,5.49,9.7,6.06,9.7,6.06Z"/>
      </g>
      <path class="cls-2" d="M50.24,83.35c21.66,3.4,15.3,3.14,26.16,3.85,8.08.53,25.56.4,30.11-.02,0,0-26.04,1.31-30.32,1.31s-25.94-5.14-25.94-5.14Z"/>
    </g>
  </g>
</svg>