<?xml version="1.0" encoding="UTF-8"?>
<svg id="Layer_2" data-name="Layer 2" xmlns="http://www.w3.org/2000/svg" viewBox="0 0 38.91 29.74">
  <defs>
    <style>
      .cls-1 {
        fill: #8d8f91;
      }

      .cls-2 {
        fill: #353535;
      }
    </style>
  </defs>
  <g id="Layer_1-2" data-name="Layer 1">
    <g>
      <path class="cls-1" d="M30.7,0C20.65,7.05,3.13,19.62,0,24.59c0,0,2.69.83,3.12.54s-1.59,1.34-1.85,2.12c0,0,2.91.11,3.3,0,0,0-1.52,1.96-1.69,2.48,0,0,6.84-1.14,19.73-7.97,5.37-2.85,16.29-9.11,16.29-9.11"/>
      <path class="cls-2" d="M13.69,26.07c-3.9,2.07-10.8,3.67-10.8,3.67.17-.52,1.69-2.48,1.69-2.48-.39.1-3.3,0-3.3,0,.26-.78,2.28-2.4,1.85-2.12s-3.12-.54-3.12-.54c1.04-1.65,3.68-4.15,7.1-7.01l2.74.44-.57,1.91,1.65.51-.06,1.91,1.78.38-.25,1.46,1.52.44-.22,1.44Z"/>
    </g>
  </g>
</svg>