<?xml version="1.0" encoding="UTF-8"?>
<svg id="Layer_2" data-name="Layer 2" xmlns="http://www.w3.org/2000/svg" viewBox="0 0 34.52 36.51">
  <defs>
    <style>
      .cls-1 {
        fill: #8b8e90;
      }

      .cls-2 {
        fill: #999b9d;
      }

      .cls-3 {
        fill: #353535;
      }
    </style>
  </defs>
  <g id="Layer_1-2" data-name="Layer 1">
    <path class="cls-1" d="M0,11.09c8.84,8.51,24.54,23.3,30.02,25.41,0,0,.29-2.8-.06-3.17s1.62,1.3,2.44,1.41c0,0-.45-2.88-.63-3.24,0,0,2.22,1.12,2.76,1.19,0,0-2.43-6.5-11.61-17.84C19.09,10.12,10.85.6,10.85.6"/>
    <path class="cls-2" d="M0,10.49c8.84,8.51,24.54,23.3,30.02,25.41,0,0,.29-2.8-.06-3.17s1.62,1.3,2.44,1.41c0,0-.45-2.88-.63-3.24,0,0,2.22,1.12,2.76,1.19,0,0-2.43-6.5-11.61-17.84C19.09,9.52,10.85,0,10.85,0"/>
    <path class="cls-3" d="M28.66,22.21c2.84,3.37,5.86,9.78,5.86,9.78-.54-.06-2.78-1.13-2.78-1.13.18.36.69,3.23.69,3.23-.82-.09-2.83-1.72-2.46-1.36s.13,3.17.13,3.17c-1.84-.67-4.83-2.72-8.34-5.46l-.14-2.77,1.98.16.15-1.72,1.88-.34v-1.82s1.48-.06,1.48-.06l.11-1.58,1.45-.09Z"/>
  </g>
</svg>