<?xml version="1.0" encoding="UTF-8"?>
<svg id="Layer_2" data-name="Layer 2" xmlns="http://www.w3.org/2000/svg" viewBox="0 0 52.72 59.58">
  <defs>
    <style>
      .cls-1 {
        fill: #8d8f91;
      }

      .cls-2 {
        fill: #353535;
      }
    </style>
  </defs>
  <g id="Layer_1-2" data-name="Layer 1">
    <g>
      <path class="cls-1" d="M0,57.83c15.47,4.25,26.9,0,32.13-4.57,5.23-4.57,21.23-36.58,20.57-46.37-.08-1.22-.47-4.13-2.22-4.91-6.65-2.93-12.67-2.6-18.98.94C23.96,7.15,5.86,27.91,3.42,30S0,57.83,0,57.83Z"/>
      <path class="cls-2" d="M9.42,23.72s21.83,21.29,22.71,29.54c0,0,2.71-3.1,4.38-5.92S16.7,19.78,14,18.87c0,0-4.58,4.85-4.58,4.85Z"/>
      <path class="cls-2" d="M21.24,11.51s20.13,18.5,20.91,25.59c0,0,1.79-3.28,3.13-6.62,1.06-2.64-17.39-22.14-19.81-22.92,0,0-4.23,3.96-4.23,3.96Z"/>
    </g>
  </g>
</svg>