<svg xmlns="http://www.w3.org/2000/svg" viewBox="0 0 4094 6825" width="4094" height="6825"><defs></defs><g transform="matrix(20,0,0,20,1105.24948182,1378.590751517)">
<g>
	<path d="M-55.262474,-68.929538L 149.481224,-68.929538 L 149.481224,272.35428 L -55.262474,272.35428 L -55.262474,-68.929538 Z" fill="none"/>
</g>
<g/>
<g>
	<path d="M134.675806,190.78463C134.675806,190.78463 134.98154,157.76539 134.98154,157.76539 L 93.59284,158.223991 L 72.701806,154.64267 L 69.667763,153.733018 L 67.313333,152.473339 L 53.060398,141.971176 L 50.236688,139.329564 L 47.784297,135.974474 L 41.457308,125.03842 L 39.363325,118.961472 L 38.055751,112.28945 L 36.557538,76.916696 L 35.982658,63.343814 C35.982658,63.343814 71.791006,83.729311 71.791006,83.729311 C71.791006,83.729311 15.514108,-9.672335 15.514108,-9.672335 C15.514108,-9.672335 -40.76279,83.729311 -40.76279,83.729311 C-40.76279,83.729311 -3.430404,63.343814 -3.430404,63.343814 L -3.076172,79.654273 L -2.391589,111.175706 L -0.993523,121.713075 L 1.221711,129.555117 L 12.11517,151.577825 L 15.949219,157.560351 L 20.907455,162.722159 L 36.223807,174.849617 L 39.864389,177.26319 L 44.586687,179.374233 L 57.727125,184.086666 L 62.058391,185.438736 L 67.399954,186.407907 L 94.624692,190.478896 L 134.675806,190.78463 Z" fill="#000000"/>
</g></g></svg>