<svg xmlns="http://www.w3.org/2000/svg" viewBox="0 0 204 341" width="204" height="341"><defs></defs><g transform="matrix(1,0,0,1,55.262474091,68.929537576)">
<g>
	<path d="M-55.262474,-68.929538L 149.481224,-68.929538 L 149.481224,272.35428 L -55.262474,272.35428 L -55.262474,-68.929538 Z" fill="none"/>
</g>
<g/>
<g>
	<path d="M-36.912999,59.848933C-36.912999,59.848933 8.412022,-13.167216 8.412022,-13.167216 C8.412022,-13.167216 53.737043,59.636894 53.737043,59.636894 C53.737043,59.636894 28.400075,59.848933 28.400075,59.848933 C28.400075,59.848933 28.400075,157.290063 28.400075,157.290063 C28.400075,157.290063 131.131749,157.290063 131.131749,157.290063 C131.131749,157.290063 131.131749,189.326254 131.131749,189.326254 C131.131749,189.326254 -11.012987,189.326254 -11.012987,189.326254 C-11.012987,189.326254 -11.012987,59.848933 -11.012987,59.848933 C-11.012987,59.848933 -36.912999,59.848933 -36.912999,59.848933 Z" fill="#000000"/>
</g></g></svg>