<svg xmlns="http://www.w3.org/2000/svg" viewBox="0 0 4094 6825" width="4094" height="6825"><defs></defs><g transform="matrix(20,0,0,20,1105.24948182,1378.590751517)">
<g>
	<path d="M-55.262474,-68.929538L 149.481224,-68.929538 L 149.481224,272.35428 L -55.262474,272.35428 L -55.262474,-68.929538 Z" fill="none"/>
</g>
<g/>
<g>
	<path d="M47.953941,259.986898C47.953941,259.986898 2.628919,187.182787 2.628919,187.182787 C2.628919,187.182787 27.965888,186.970749 27.965888,186.970749 C27.965888,186.970749 27.965888,16.453994 27.965888,16.453994 C27.965888,16.453994 2.065876,16.453994 2.065876,16.453994 C2.065876,16.453994 47.390897,-56.562155 47.390897,-56.562155 C47.390897,-56.562155 92.715918,16.241955 92.715918,16.241955 C92.715918,16.241955 67.37895,16.453994 67.37895,16.453994 C67.37895,16.453994 67.37895,186.970749 67.37895,186.970749 C67.37895,186.970749 93.278962,186.970749 93.278962,186.970749 C93.278962,186.970749 47.953941,259.986898 47.953941,259.986898 Z" fill="#000000"/>
</g></g></svg>