<svg xmlns="http://www.w3.org/2000/svg" viewBox="0 0 4094 6825" width="4094" height="6825"><defs></defs><g transform="matrix(20,0,0,20,1105.24948182,1378.590751517)">
<g>
	<path d="M-55.262474,-68.929538L 149.481224,-68.929538 L 149.481224,272.35428 L -55.262474,272.35428 L -55.262474,-68.929538 Z" fill="none"/>
</g>
<g/>
<g>
	<path d="M131.095125,194.7861C131.095125,194.7861 131.400859,161.766861 131.400859,161.766861 L 90.012159,162.225461 L 69.121125,158.644141 L 66.087082,157.734489 L 63.732652,156.474809 L 49.479717,145.972646 L 46.656007,143.331035 L 44.203616,139.975945 L 37.876628,129.039891 L 35.782644,122.962942 L 34.47507,116.29092 L 32.401977,67.345285 C32.401977,67.345285 57.738946,67.133247 57.738946,67.133247 C57.738946,67.133247 12.413924,-5.670864 12.413924,-5.670864 C12.413924,-5.670864 -32.911097,67.345285 -32.911097,67.345285 C-32.911097,67.345285 -7.011085,67.345285 -7.011085,67.345285 L -5.97227,115.177176 L -4.574204,125.714545 L -2.35897,133.556588 L 8.534489,155.579296 L 12.368538,161.561822 L 17.326774,166.723629 L 32.643126,178.851088 L 36.283708,181.26466 L 40.6128,183.234692 L 54.573786,188.24139 L 58.47771,189.440206 L 63.819273,190.409378 L 91.044011,194.480367 L 131.095125,194.7861 Z" fill="#000000"/>
</g></g></svg>