<svg xmlns="http://www.w3.org/2000/svg" viewBox="0 0 4094 6825" width="4094" height="6825"><defs></defs><g transform="matrix(20,0,0,20,1105.24948182,1378.590751517)">
<g>
	<path d="M-55.262474,-68.929538L 149.481224,-68.929538 L 149.481224,272.35428 L -55.262474,272.35428 L -55.262474,-68.929538 Z" fill="none"/>
</g>
<g/>
<g>
	<path d="M50.919472,259.986898C50.919472,259.986898 -5.357426,166.585252 -5.357426,166.585252 C-5.357426,166.585252 30.450922,186.970749 30.450922,186.970749 C30.450922,186.970749 30.450922,16.453994 30.450922,16.453994 C30.450922,16.453994 -6.881465,36.839491 -6.881465,36.839491 C-6.881465,36.839491 49.395433,-56.562155 49.395433,-56.562155 C49.395433,-56.562155 105.672331,36.839491 105.672331,36.839491 C105.672331,36.839491 69.863984,16.453994 69.863984,16.453994 C69.863984,16.453994 69.863984,186.970749 69.863984,186.970749 C69.863984,186.970749 107.19637,166.585252 107.19637,166.585252 C107.19637,166.585252 50.919472,259.986898 50.919472,259.986898 Z" fill="#000000"/>
</g></g></svg>