<svg xmlns="http://www.w3.org/2000/svg" viewBox="0 0 4094 6825" width="4094" height="6825"><defs></defs><g transform="matrix(20,0,0,20,1105.24948182,1378.590751517)">
<g>
	<path d="M-55.262474,-68.929538L 149.481224,-68.929538 L 149.481224,272.35428 L -55.262474,272.35428 L -55.262474,-68.929538 Z" fill="none"/>
</g>
<g/>
<g>
	<path d="M132.917881,195.240926C132.917881,195.240926 133.223614,162.221687 133.223614,162.221687 L 91.834915,162.680287 L 70.94388,159.098967 L 67.909837,158.189315 L 65.555408,156.929635 L 51.302472,146.427472 L 48.478762,143.785861 L 46.026372,140.430771 L 39.699383,129.494717 L 37.605399,123.417768 L 36.297825,116.745746 L 34.224733,67.800111 C34.224733,67.800111 59.561701,67.588073 59.561701,67.588073 C59.561701,67.588073 14.23668,-5.216038 14.23668,-5.216038 C14.23668,-5.216038 -31.088341,67.800111 -31.088341,67.800111 C-31.088341,67.800111 -5.188329,67.800111 -5.188329,67.800111 L -4.149514,115.632002 L -2.751449,126.169371 L -0.536215,134.011414 L 10.357244,156.034122 L 14.191293,162.016648 L 19.14953,167.178455 L 34.465881,179.305914 L 38.106463,181.719486 L 42.435555,183.689518 L 56.396541,188.696216 L 60.300465,189.895032 L 65.642028,190.864204 L 92.866766,194.935193 L 132.917881,195.240926 Z" fill="#5cff00"/>
</g></g></svg>