<svg xmlns="http://www.w3.org/2000/svg" viewBox="0 0 4094 6825" width="4094" height="6825"><defs></defs><g transform="matrix(20,0,0,20,1105.24948182,1378.590751517)">
<g>
	<path d="M-55.262474,-68.929538L 149.481224,-68.929538 L 149.481224,272.35428 L -55.262474,272.35428 L -55.262474,-68.929538 Z" fill="none"/>
</g>
<g/>
<g>
	<path d="M132.612147,195.240926C132.612147,195.240926 132.917881,162.221687 132.917881,162.221687 L 91.529181,162.680287 L 70.638146,159.098967 L 67.604103,158.189315 L 65.249674,156.929635 L 50.996738,146.427472 L 48.173028,143.785861 L 45.720638,140.430771 L 39.393649,129.494717 L 37.299666,123.417768 L 35.992092,116.745746 L 33.918999,67.800111 C33.918999,67.800111 59.255967,67.588073 59.255967,67.588073 C59.255967,67.588073 13.930946,-5.216038 13.930946,-5.216038 C13.930946,-5.216038 -31.394075,67.800111 -31.394075,67.800111 C-31.394075,67.800111 -5.494063,67.800111 -5.494063,67.800111 L -4.455248,115.632002 L -3.057183,126.169371 L -0.841949,134.011414 L 10.051511,156.034122 L 13.88556,162.016648 L 18.843796,167.178455 L 34.160148,179.305914 L 37.800729,181.719486 L 42.129821,183.689518 L 56.090808,188.696216 L 59.994731,189.895032 L 65.336294,190.864204 L 92.561032,194.935193 L 132.612147,195.240926 Z" fill="#ff0000"/>
</g></g></svg>