<svg xmlns="http://www.w3.org/2000/svg" viewBox="0 0 4094 6825" width="4094" height="6825"><defs></defs><g transform="matrix(20,0,0,20,1105.24948182,1378.590751517)">
<g>
	<path d="M-55.262474,-68.929538L 149.481224,-68.929538 L 149.481224,272.35428 L -55.262474,272.35428 L -55.262474,-68.929538 Z" fill="none"/>
</g>
<g/>
<g>
	<path d="M51.681491,259.986898C51.681491,259.986898 -4.595407,166.585252 -4.595407,166.585252 C-4.595407,166.585252 31.212941,186.970749 31.212941,186.970749 C31.212941,186.970749 31.212941,16.453994 31.212941,16.453994 C31.212941,16.453994 -6.119445,36.839491 -6.119445,36.839491 C-6.119445,36.839491 50.157453,-56.562155 50.157453,-56.562155 C50.157453,-56.562155 106.434351,36.839491 106.434351,36.839491 C106.434351,36.839491 70.626003,16.453994 70.626003,16.453994 C70.626003,16.453994 70.626003,186.970749 70.626003,186.970749 C70.626003,186.970749 107.958389,166.585252 107.958389,166.585252 C107.958389,166.585252 51.681491,259.986898 51.681491,259.986898 Z" fill="#fe0000"/>
</g></g></svg>