<svg xmlns="http://www.w3.org/2000/svg" viewBox="0 0 4094 6825" width="4094" height="6825"><defs></defs><g transform="matrix(20,0,0,20,1105.24948182,1378.590751517)">
<g>
	<path d="M-55.262474,-68.929538L 149.481224,-68.929538 L 149.481224,272.35428 L -55.262474,272.35428 L -55.262474,-68.929538 Z" fill="none"/>
</g>
<g/>
<g>
	<path d="M48.516984,259.986898C48.516984,259.986898 3.191963,187.182787 3.191963,187.182787 C3.191963,187.182787 28.528932,186.970749 28.528932,186.970749 C28.528932,186.970749 28.528932,16.453994 28.528932,16.453994 C28.528932,16.453994 2.628919,16.453994 2.628919,16.453994 C2.628919,16.453994 47.953941,-56.562155 47.953941,-56.562155 C47.953941,-56.562155 93.278962,16.241955 93.278962,16.241955 C93.278962,16.241955 67.941993,16.453994 67.941993,16.453994 C67.941993,16.453994 67.941993,186.970749 67.941993,186.970749 C67.941993,186.970749 93.842006,186.970749 93.842006,186.970749 C93.842006,186.970749 48.516984,259.986898 48.516984,259.986898 Z" fill="#fe0000"/>
</g></g></svg>