<svg xmlns="http://www.w3.org/2000/svg" viewBox="0 0 105 207" width="105" height="207"><defs></defs><g transform="matrix(1,0,0,1,5.625,4.921875)">
<g>
	<path d="M-5.625,-4.921875L 99.84375,-4.921875 L 99.84375,202.5 L -5.625,202.5 L -5.625,-4.921875 Z" fill="none"/>
</g>
<g/>
<g>
	<path d="M27.402844,192.02675C27.402844,192.02675 27.402844,78.567524 27.402844,78.567524 C27.402844,78.567524 1.502832,78.567524 1.502832,78.567524 C1.502832,78.567524 46.827853,5.551375 46.827853,5.551375 C46.827853,5.551375 92.152874,78.355486 92.152874,78.355486 C92.152874,78.355486 66.815906,78.567524 66.815906,78.567524 C66.815906,78.567524 66.815906,192.354667 66.815906,192.354667 C66.815906,192.354667 27.402844,192.02675 27.402844,192.02675 Z" fill="#f6fe00"/>
</g></g></svg>