<svg xmlns="http://www.w3.org/2000/svg" viewBox="0 0 4094 6825" width="4094" height="6825"><defs></defs><g transform="matrix(20,0,0,20,1105.24948182,1378.590751517)">
<g>
	<path d="M-55.262474,-68.929538L 149.481224,-68.929538 L 149.481224,272.35428 L -55.262474,272.35428 L -55.262474,-68.929538 Z" fill="none"/>
</g>
<g/>
<g>
	<path d="M24.657495,187.800166C24.657495,187.800166 24.657495,74.34094 24.657495,74.34094 C24.657495,74.34094 -12.674891,94.726437 -12.674891,94.726437 C-12.674891,94.726437 43.602007,1.324791 43.602007,1.324791 C43.602007,1.324791 99.878905,94.726437 99.878905,94.726437 C99.878905,94.726437 64.070557,74.34094 64.070557,74.34094 C64.070557,74.34094 64.070557,188.128082 64.070557,188.128082 C64.070557,188.128082 24.657495,187.800166 24.657495,187.800166 Z" fill="#f7ff00"/>
</g></g></svg>