<svg xmlns="http://www.w3.org/2000/svg" viewBox="0 0 105 207" width="105" height="207"><defs></defs><g transform="matrix(1,0,0,1,5.625,4.921875)">
<g>
	<path d="M-5.625,-4.921875L 99.84375,-4.921875 L 99.84375,202.5 L -5.625,202.5 L -5.625,-4.921875 Z" fill="none"/>
</g>
<g/>
<g>
	<path d="M27.965888,191.698833C27.965888,191.698833 27.965888,78.239607 27.965888,78.239607 C27.965888,78.239607 2.065876,78.239607 2.065876,78.239607 C2.065876,78.239607 47.390897,5.223458 47.390897,5.223458 C47.390897,5.223458 92.715918,78.027569 92.715918,78.027569 C92.715918,78.027569 67.37895,78.239607 67.37895,78.239607 C67.37895,78.239607 67.37895,192.02675 67.37895,192.02675 C67.37895,192.02675 27.965888,191.698833 27.965888,191.698833 Z" fill="#000000"/>
</g></g></svg>