<svg xmlns="http://www.w3.org/2000/svg" viewBox="0 0 4094 6825" width="4094" height="6825"><defs></defs><g transform="matrix(20,0,0,20,1105.24948182,1378.590751517)">
<g>
	<path d="M-55.262474,-68.929538L 149.481224,-68.929538 L 149.481224,272.35428 L -55.262474,272.35428 L -55.262474,-68.929538 Z" fill="none"/>
</g>
<g/>
<g>
	<path d="M26.181534,187.472249C26.181534,187.472249 26.181534,74.013023 26.181534,74.013023 C26.181534,74.013023 -11.150852,94.39852 -11.150852,94.39852 C-11.150852,94.39852 45.126046,0.996874 45.126046,0.996874 C45.126046,0.996874 101.402944,94.39852 101.402944,94.39852 C101.402944,94.39852 65.594596,74.013023 65.594596,74.013023 C65.594596,74.013023 65.594596,187.800166 65.594596,187.800166 C65.594596,187.800166 26.181534,187.472249 26.181534,187.472249 Z" fill="#5cfe00"/>
</g></g></svg>