<svg xmlns="http://www.w3.org/2000/svg" viewBox="0 0 105 207" width="105" height="207"><defs></defs><g transform="matrix(1,0,0,1,5.625,4.921875)">
<g>
	<path d="M-5.625,-4.921875L 99.84375,-4.921875 L 99.84375,202.5 L -5.625,202.5 L -5.625,-4.921875 Z" fill="none"/>
</g>
<g/>
<g>
	<path d="M27.684366,191.862791C27.684366,191.862791 27.684366,78.403566 27.684366,78.403566 C27.684366,78.403566 1.784354,78.403566 1.784354,78.403566 C1.784354,78.403566 47.109375,5.387417 47.109375,5.387417 C47.109375,5.387417 92.434396,78.191527 92.434396,78.191527 C92.434396,78.191527 67.097428,78.403566 67.097428,78.403566 C67.097428,78.403566 67.097428,192.190708 67.097428,192.190708 C67.097428,192.190708 27.684366,191.862791 27.684366,191.862791 Z" fill="#fefefe"/>
</g></g></svg>