<svg xmlns="http://www.w3.org/2000/svg" viewBox="0 0 4094 6825" width="4094" height="6825"><defs></defs><g transform="matrix(20,0,0,20,1105.24948182,1378.590751517)">
<g>
	<path d="M-55.262474,-68.929538L 149.481224,-68.929538 L 149.481224,272.35428 L -55.262474,272.35428 L -55.262474,-68.929538 Z" fill="none"/>
</g>
<g/>
<g>
	<path d="M25.419515,187.636207C25.419515,187.636207 25.419515,74.176982 25.419515,74.176982 C25.419515,74.176982 -11.912872,94.562478 -11.912872,94.562478 C-11.912872,94.562478 44.364026,1.160833 44.364026,1.160833 C44.364026,1.160833 100.640924,94.562478 100.640924,94.562478 C100.640924,94.562478 64.832576,74.176982 64.832576,74.176982 C64.832576,74.176982 64.832576,187.964124 64.832576,187.964124 C64.832576,187.964124 25.419515,187.636207 25.419515,187.636207 Z" fill="#ff0000"/>
</g></g></svg>