<svg xmlns="http://www.w3.org/2000/svg" viewBox="0 0 4094 6825" width="4094" height="6825"><defs></defs><g transform="matrix(20,0,0,20,1105.24948182,1378.590751517)">
<g>
	<path d="M-55.262474,-68.929538L 149.481224,-68.929538 L 149.481224,272.35428 L -55.262474,272.35428 L -55.262474,-68.929538 Z" fill="none"/>
</g>
<g/>
<g>
	<path d="M25.900012,187.636207C25.900012,187.636207 25.900012,74.176982 25.900012,74.176982 C25.900012,74.176982 -11.432374,94.562478 -11.432374,94.562478 C-11.432374,94.562478 45.325021,1.160833 45.325021,1.160833 C45.325021,1.160833 101.121422,94.562478 101.121422,94.562478 C101.121422,94.562478 65.313074,74.176982 65.313074,74.176982 C65.313074,74.176982 65.313074,187.964124 65.313074,187.964124 C65.313074,187.964124 25.900012,187.636207 25.900012,187.636207 Z" fill="#000000"/>
</g></g></svg>