<svg xmlns="http://www.w3.org/2000/svg" viewBox="0 0 4094 6825" width="4094" height="6825"><defs></defs><g transform="matrix(20,0,0,20,1105.24948182,1378.590751517)">
<g>
	<path d="M-55.262474,-68.929538L 149.481224,-68.929538 L 149.481224,272.35428 L -55.262474,272.35428 L -55.262474,-68.929538 Z" fill="none"/>
</g>
<g/>
<g>
	<path d="M-42.388937,80.234429C-42.388937,80.234429 13.887961,-13.167216 13.887961,-13.167216 C13.887961,-13.167216 70.164859,80.234429 70.164859,80.234429 C70.164859,80.234429 34.356511,59.848933 34.356511,59.848933 C34.356511,59.848933 33.876013,157.290063 33.876013,157.290063 C33.876013,157.290063 136.607687,157.290063 136.607687,157.290063 C136.607687,157.290063 136.607687,189.326254 136.607687,189.326254 C136.607687,189.326254 -5.537049,189.326254 -5.537049,189.326254 C-5.537049,189.326254 -5.537049,59.848933 -5.537049,59.848933 C-5.537049,59.848933 -42.388937,80.234429 -42.388937,80.234429 Z" fill="#ffffff"/>
</g></g></svg>