<svg xmlns="http://www.w3.org/2000/svg" viewBox="0 0 4094 6825" width="4094" height="6825"><defs></defs><g transform="matrix(20,0,0,20,1105.24948182,1378.590751517)">
<g>
	<path d="M-55.262474,-68.929538L 149.481224,-68.929538 L 149.481224,272.35428 L -55.262474,272.35428 L -55.262474,-68.929538 Z" fill="none"/>
</g>
<g/>
<g>
	<path d="M134.370073,190.78463C134.370073,190.78463 134.675806,157.76539 134.675806,157.76539 L 93.287107,158.223991 L 72.396072,154.64267 L 69.362029,153.733018 L 67.0076,152.473339 L 52.754664,141.971176 L 49.930954,139.329564 L 47.478564,135.974474 L 41.151575,125.03842 L 39.057591,118.961472 L 37.750017,112.28945 L 36.251804,76.916696 L 35.676925,63.343814 C35.676925,63.343814 71.485272,83.729311 71.485272,83.729311 C71.485272,83.729311 15.208374,-9.672335 15.208374,-9.672335 C15.208374,-9.672335 -41.068524,83.729311 -41.068524,83.729311 C-41.068524,83.729311 -3.736137,63.343814 -3.736137,63.343814 L -3.381906,79.654273 L -2.697322,111.175706 L -1.299257,121.713075 L 0.915977,129.555117 L 11.809436,151.577825 L 15.643485,157.560351 L 20.601722,162.722159 L 35.918073,174.849617 L 39.558655,177.26319 L 44.280953,179.374233 L 57.421392,184.086666 L 61.752657,185.438736 L 67.09422,186.407907 L 94.318958,190.478896 L 134.370073,190.78463 Z" fill="#ffffff"/>
</g></g></svg>