<svg xmlns="http://www.w3.org/2000/svg" viewBox="0 0 4094 6825" width="4094" height="6825"><defs></defs><g transform="matrix(20,0,0,20,1105.24948182,1378.590751517)">
<g>
	<path d="M-55.262474,-68.929538L 149.481224,-68.929538 L 149.481224,272.35428 L -55.262474,272.35428 L -55.262474,-68.929538 Z" fill="none"/>
</g>
<g/>
<g>
	<path d="M130.789392,194.7861C130.789392,194.7861 131.095125,161.766861 131.095125,161.766861 L 89.706426,162.225461 L 68.815391,158.644141 L 65.781348,157.734489 L 63.426919,156.474809 L 49.173983,145.972646 L 46.350273,143.331035 L 43.897883,139.975945 L 37.570894,129.039891 L 35.47691,122.962942 L 34.169337,116.29092 L 32.096244,67.345285 C32.096244,67.345285 57.433212,67.133247 57.433212,67.133247 C57.433212,67.133247 12.108191,-5.670864 12.108191,-5.670864 C12.108191,-5.670864 -33.21683,67.345285 -33.21683,67.345285 C-33.21683,67.345285 -7.316818,67.345285 -7.316818,67.345285 L -6.278003,115.177176 L -4.879938,125.714545 L -2.664704,133.556588 L 8.228755,155.579296 L 12.062804,161.561822 L 17.021041,166.723629 L 32.337392,178.851088 L 35.977974,181.26466 L 40.307066,183.234692 L 54.268053,188.24139 L 58.171976,189.440206 L 63.513539,190.409378 L 90.738277,194.480367 L 130.789392,194.7861 Z" fill="#ffffff"/>
</g></g></svg>