<svg xmlns="http://www.w3.org/2000/svg" viewBox="0 0 4094 6825" width="4094" height="6825"><defs></defs><g transform="matrix(20,0,0,20,1105.24948182,1378.590751517)">
<g>
	<path d="M-55.262474,-68.929538L 149.481224,-68.929538 L 149.481224,272.35428 L -55.262474,272.35428 L -55.262474,-68.929538 Z" fill="none"/>
</g>
<g/>
<g>
	<path d="M48.235462,259.986898C48.235462,259.986898 2.910441,187.182787 2.910441,187.182787 C2.910441,187.182787 28.24741,186.970749 28.24741,186.970749 C28.24741,186.970749 28.24741,16.453994 28.24741,16.453994 C28.24741,16.453994 2.347398,16.453994 2.347398,16.453994 C2.347398,16.453994 47.672419,-56.562155 47.672419,-56.562155 C47.672419,-56.562155 92.99744,16.241955 92.99744,16.241955 C92.99744,16.241955 67.660472,16.453994 67.660472,16.453994 C67.660472,16.453994 67.660472,186.970749 67.660472,186.970749 C67.660472,186.970749 93.560484,186.970749 93.560484,186.970749 C93.560484,186.970749 48.235462,259.986898 48.235462,259.986898 Z" fill="#ffffff"/>
</g></g></svg>