<svg xmlns="http://www.w3.org/2000/svg" viewBox="0 0 4094 6825" width="4094" height="6825"><defs></defs><g transform="matrix(20,0,0,20,1105.24948182,1378.590751517)">
<g>
	<path d="M-55.262474,-68.929538L 149.481224,-68.929538 L 149.481224,272.35428 L -55.262474,272.35428 L -55.262474,-68.929538 Z" fill="none"/>
</g>
<g/>
<g>
	<path d="M52.443511,259.986898C52.443511,259.986898 -3.833387,166.585252 -3.833387,166.585252 C-3.833387,166.585252 31.97496,186.970749 31.97496,186.970749 C31.97496,186.970749 31.97496,16.453994 31.97496,16.453994 C31.97496,16.453994 -5.357426,36.839491 -5.357426,36.839491 C-5.357426,36.839491 50.919472,-56.562155 50.919472,-56.562155 C50.919472,-56.562155 107.19637,36.839491 107.19637,36.839491 C107.19637,36.839491 71.388022,16.453994 71.388022,16.453994 C71.388022,16.453994 71.388022,186.970749 71.388022,186.970749 C71.388022,186.970749 108.720409,166.585252 108.720409,166.585252 C108.720409,166.585252 52.443511,259.986898 52.443511,259.986898 Z" fill="#f7ff00"/>
</g></g></svg>