<svg xmlns="http://www.w3.org/2000/svg" viewBox="0 0 4094 6825" width="4094" height="6825"><defs></defs><g transform="matrix(20,0,0,20,1105.24948182,1378.590751517)">
<g>
	<path d="M-55.262474,-68.929538L 149.481224,-68.929538 L 149.481224,272.35428 L -55.262474,272.35428 L -55.262474,-68.929538 Z" fill="none"/>
</g>
<g/>
<g>
	<path d="M132.306413,195.240926C132.306413,195.240926 132.612147,162.221687 132.612147,162.221687 L 91.223447,162.680287 L 70.332413,159.098967 L 67.29837,158.189315 L 64.94394,156.929635 L 50.691005,146.427472 L 47.867294,143.785861 L 45.414904,140.430771 L 39.087915,129.494717 L 36.993932,123.417768 L 35.686358,116.745746 L 33.613265,67.800111 C33.613265,67.800111 58.950233,67.588073 58.950233,67.588073 C58.950233,67.588073 13.625212,-5.216038 13.625212,-5.216038 C13.625212,-5.216038 -31.699809,67.800111 -31.699809,67.800111 C-31.699809,67.800111 -5.799797,67.800111 -5.799797,67.800111 L -4.760982,115.632002 L -3.362917,126.169371 L -1.147682,134.011414 L 9.745777,156.034122 L 13.579826,162.016648 L 18.538062,167.178455 L 33.854414,179.305914 L 37.494995,181.719486 L 41.824088,183.689518 L 55.785074,188.696216 L 59.688997,189.895032 L 65.030561,190.864204 L 92.255298,194.935193 L 132.306413,195.240926 Z" fill="#f7ff00"/>
</g></g></svg>