<?xml version="1.0" encoding="UTF-8"?>
<svg id="Layer_2" data-name="Layer 2" xmlns="http://www.w3.org/2000/svg" viewBox="0 0 47.62 56.3">
  <defs>
    <style>
      .cls-1 {
        fill: #efc800;
      }

      .cls-2 {
        fill: #fff;
      }

      .cls-3 {
        fill: #01765a;
      }
    </style>
  </defs>
  <g id="Layer_1-2" data-name="Layer 1">
    <g>
      <rect class="cls-3" x="23.75" y="5.56" width="2.73" height="50.74"/>
      <path class="cls-1" d="M20.82,2.22c.29-1.05,2.76-2.51,6.23-2.17,2.82.28,4,1.21,5,2.99-.34,2.39-.58,4.15-5.67,4.37-2.89.12-5.52-2.49-5.57-5.19Z"/>
      <path class="cls-2" d="M20.82,2.22C20.13.52,0,3.35,0,12.83s7.42,5.46,8.35,4.95,8.24-7.32,8.86-7.63c-2.89,4.74-5.15,14.74-.41,16.59,0,0,7.42,3.5,8.66-14.94.62,2.68,1.24,10.61,1.34,11.54s1.55,4.03,3.81,3.67,5.98-3.46,3.92-15.93c4.22,3.81,6.18,8.55,10.51,8.14s2.45-6.51,0-9.89c-3.9-5.39-9.69-7.42-12.98-6.29-.31,2.37-2.99,3.38-5.05,3.4-3.25.03-5.77-1.85-6.18-4.22Z"/>
    </g>
  </g>
</svg>