<svg xmlns="http://www.w3.org/2000/svg" viewBox="0 0 4094 6825" width="4094" height="6825"><defs></defs><g transform="matrix(20,0,0,20,1105.24948182,1378.590751517)">
<g>
	<path d="M-55.262474,-68.929538L 149.481224,-68.929538 L 149.481224,272.35428 L -55.262474,272.35428 L -55.262474,-68.929538 Z" fill="none"/>
</g>
<g/>
<g>
	<path d="M134.064339,190.78463C134.064339,190.78463 134.370073,157.76539 134.370073,157.76539 L 92.981373,158.223991 L 72.090338,154.64267 L 69.056295,153.733018 L 66.701866,152.473339 L 52.44893,141.971176 L 49.62522,139.329564 L 47.17283,135.974474 L 40.845841,125.03842 L 38.751858,118.961472 L 37.444284,112.28945 L 35.94607,76.916696 L 35.371191,63.343814 C35.371191,63.343814 71.179538,83.729311 71.179538,83.729311 C71.179538,83.729311 14.90264,-9.672335 14.90264,-9.672335 C14.90264,-9.672335 -41.374257,83.729311 -41.374257,83.729311 C-41.374257,83.729311 -4.041871,63.343814 -4.041871,63.343814 L -3.68764,79.654273 L -3.003056,111.175706 L -1.604991,121.713075 L 0.610243,129.555117 L 11.503703,151.577825 L 15.337752,157.560351 L 20.295988,162.722159 L 35.61234,174.849617 L 39.252921,177.26319 L 43.97522,179.374233 L 57.115658,184.086666 L 61.446923,185.438736 L 66.788486,186.407907 L 94.013224,190.478896 L 134.064339,190.78463 Z" transform="matrix(1,0,0,1,0,0)" fill="#000000" stroke="#ffffff" stroke-width="10" stroke-linejoin="round"/>
</g></g></svg>