<svg xmlns="http://www.w3.org/2000/svg" viewBox="0 0 204 341" width="204" height="341"><defs></defs><g transform="matrix(1,0,0,1,55.262474091,68.929537576)">
<g>
	<path d="M-55.262474,-68.929538L 149.481224,-68.929538 L 149.481224,272.35428 L -55.262474,272.35428 L -55.262474,-68.929538 Z" fill="none"/>
</g>
<g/>
<g>
	<path d="M2673.133169,772.419707C2673.133169,772.419707 2729.410067,679.018061 2729.410067,679.018061 C2729.410067,679.018061 2785.686965,772.419707 2785.686965,772.419707 C2785.686965,772.419707 2749.878618,752.03421 2749.878618,752.03421 C2749.878618,752.03421 2749.39812,849.475341 2749.39812,849.475341 C2749.39812,849.475341 2852.129794,849.475341 2852.129794,849.475341 C2852.129794,849.475341 2852.129794,881.511531 2852.129794,881.511531 C2852.129794,881.511531 2709.985058,881.511531 2709.985058,881.511531 C2709.985058,881.511531 2709.985058,752.03421 2709.985058,752.03421 C2709.985058,752.03421 2673.133169,772.419707 2673.133169,772.419707 Z" transform="matrix(1,0,0,1,-2715.522106806,-692.185277759)" fill="#5cfe00" stroke="#000000" stroke-width="10" stroke-linejoin="round"/>
</g></g></svg>