<svg xmlns="http://www.w3.org/2000/svg" viewBox="0 0 4094 6825" width="4094" height="6825"><defs></defs><g transform="matrix(20,0,0,20,1105.24948182,1378.590751517)">
<g>
	<path d="M-55.262474,-68.929538L 149.481224,-68.929538 L 149.481224,272.35428 L -55.262474,272.35428 L -55.262474,-68.929538 Z" fill="none"/>
</g>
<g/>
<g>
	<path d="M88.182984,3139.613C88.182984,3139.613 31.906086,3046.211354 31.906086,3046.211354 C31.906086,3046.211354 67.714434,3066.596851 67.714434,3066.596851 C67.714434,3066.596851 67.714434,2896.080095 67.714434,2896.080095 C67.714434,2896.080095 30.382047,2916.465592 30.382047,2916.465592 C30.382047,2916.465592 86.658945,2823.063946 86.658945,2823.063946 C86.658945,2823.063946 142.935843,2916.465592 142.935843,2916.465592 C142.935843,2916.465592 107.127495,2896.080095 107.127495,2896.080095 C107.127495,2896.080095 107.127495,3066.596851 107.127495,3066.596851 C107.127495,3066.596851 144.459882,3046.211354 144.459882,3046.211354 C144.459882,3046.211354 88.182984,3139.613 88.182984,3139.613 Z" transform="matrix(1,0,0,1,-41.073608891,-2879.62610153)" fill="#fe0000" stroke="#000000" stroke-width="10" stroke-linejoin="round"/>
</g></g></svg>