<svg xmlns="http://www.w3.org/2000/svg" viewBox="0 0 4094 6825" width="4094" height="6825"><defs></defs><g transform="matrix(20,0,0,20,1105.24948182,1378.590751517)">
<g>
	<path d="M-55.262474,-68.929538L 149.481224,-68.929538 L 149.481224,272.35428 L -55.262474,272.35428 L -55.262474,-68.929538 Z" fill="none"/>
</g>
<g/>
<g>
	<path d="M127.501931,395.633115C127.501931,395.633115 127.501931,282.173889 127.501931,282.173889 C127.501931,282.173889 90.169545,302.559386 90.169545,302.559386 C90.169545,302.559386 146.446443,209.15774 146.446443,209.15774 C146.446443,209.15774 202.723341,302.559386 202.723341,302.559386 C202.723341,302.559386 166.914993,282.173889 166.914993,282.173889 C166.914993,282.173889 166.914993,395.961032 166.914993,395.961032 C166.914993,395.961032 127.501931,395.633115 127.501931,395.633115 Z" transform="matrix(1,0,0,1,-99.33706786,-200.84701451)" fill="#f6fe00" stroke="#000000" stroke-width="10" stroke-linejoin="round"/>
</g></g></svg>