<svg xmlns="http://www.w3.org/2000/svg" viewBox="0 0 105 207" width="105" height="207"><defs></defs><g transform="matrix(1,0,0,1,5.625,4.921875)">
<g>
	<path d="M-5.625,-4.921875L 99.84375,-4.921875 L 99.84375,202.5 L -5.625,202.5 L -5.625,-4.921875 Z" fill="none"/>
</g>
<g/>
<g>
	<path d="M228.142855,187.120282C228.142855,187.120282 228.142855,73.661056 228.142855,73.661056 C228.142855,73.661056 202.242843,73.661056 202.242843,73.661056 C202.242843,73.661056 247.567865,0.644907 247.567865,0.644907 C247.567865,0.644907 292.892886,73.449018 292.892886,73.449018 C292.892886,73.449018 267.555917,73.661056 267.555917,73.661056 C267.555917,73.661056 267.555917,187.448198 267.555917,187.448198 C267.555917,187.448198 228.142855,187.120282 228.142855,187.120282 Z" transform="matrix(1,0,0,1,-200.458489522,4.742509767)" fill="#ffffff" stroke="#000000" stroke-width="10" stroke-linejoin="round"/>
</g></g></svg>