<svg xmlns="http://www.w3.org/2000/svg" viewBox="0 0 4094 6825" width="4094" height="6825"><defs></defs><g transform="matrix(20,0,0,20,1105.24948182,1378.590751517)">
<g>
	<path d="M-55.262474,-68.929538L 149.481224,-68.929538 L 149.481224,272.35428 L -55.262474,272.35428 L -55.262474,-68.929538 Z" fill="none"/>
</g>
<g/>
<g>
	<path d="M155.361915,400.856862C155.361915,400.856862 155.361915,287.397636 155.361915,287.397636 C155.361915,287.397636 118.029528,307.783133 118.029528,307.783133 C118.029528,307.783133 174.306426,214.381487 174.306426,214.381487 C174.306426,214.381487 230.583324,307.783133 230.583324,307.783133 C230.583324,307.783133 194.774977,287.397636 194.774977,287.397636 C194.774977,287.397636 194.774977,401.184779 194.774977,401.184779 C194.774977,401.184779 155.361915,400.856862 155.361915,400.856862 Z" transform="matrix(1,0,0,1,-127.197051379,-206.07076142)" fill="#5cfe00" stroke="#000000" stroke-width="10" stroke-linejoin="round"/>
</g></g></svg>