<svg xmlns="http://www.w3.org/2000/svg" viewBox="0 0 4094 6825" width="4094" height="6825"><defs></defs><g transform="matrix(20,0,0,20,1105.24948182,1378.590751517)">
<g>
	<path d="M-55.262474,-68.929538L 149.481224,-68.929538 L 149.481224,272.35428 L -55.262474,272.35428 L -55.262474,-68.929538 Z" fill="none"/>
</g>
<g/>
<g>
	<path d="M554.074998,204.413767C554.074998,204.413767 554.380731,171.394527 554.380731,171.394527 L 512.992032,171.853127 L 492.100997,168.271807 L 489.066954,167.362155 L 486.712525,166.102476 L 472.459589,155.600312 L 469.635879,152.958701 L 467.183489,149.603611 L 460.8565,138.667557 L 458.762516,132.590608 L 457.454943,125.918587 L 455.38185,76.972951 C455.38185,76.972951 480.718818,76.760913 480.718818,76.760913 C480.718818,76.760913 435.393797,3.956802 435.393797,3.956802 C435.393797,3.956802 390.068776,76.972951 390.068776,76.972951 C390.068776,76.972951 415.968788,76.972951 415.968788,76.972951 L 417.007603,124.804843 L 418.405668,135.342212 L 420.620902,143.184254 L 431.514361,165.206962 L 435.34841,171.189488 L 440.306647,176.351295 L 455.622998,188.478754 L 459.26358,190.892327 L 463.592672,192.862358 L 477.553659,197.869057 L 481.457582,199.067872 L 486.799145,200.037044 L 514.023883,204.108033 L 554.074998,204.413767 Z" transform="matrix(1,0,0,1,-425.945769128,-10.88734604)" fill="#ffffff" stroke="#000000" stroke-width="10" stroke-linejoin="round"/>
</g></g></svg>