<?xml version="1.0" encoding="UTF-8"?>
<svg id="Layer_2" data-name="Layer 2" xmlns="http://www.w3.org/2000/svg" viewBox="0 0 180.01 206.18">
  <defs>
    <style>
      .cls-1 {
        fill: #073a42;
        opacity: .43;
      }

      .cls-2 {
        fill: #8d8f91;
      }

      .cls-3 {
        fill: #8b8e90;
      }

      .cls-4 {
        fill: #999b9d;
      }

      .cls-5 {
        fill: #353535;
      }
    </style>
  </defs>
  <g id="Layer_1-2" data-name="Layer 1">
    <g>
      <path class="cls-3" d="M61.55,99.73c-8.84,8.51-24.54,23.3-30.02,25.41,0,0-.29-2.8.06-3.17s-1.62,1.3-2.44,1.41c0,0,.45-2.88.63-3.24,0,0-2.22,1.12-2.76,1.19,0,0,2.43-6.5,11.61-17.84,3.83-4.73,12.06-14.25,12.06-14.25"/>
      <path class="cls-2" d="M61.55,99.12c-8.84,8.51-24.54,23.3-30.02,25.41,0,0-.29-2.8.06-3.17s-1.62,1.3-2.44,1.41c0,0,.45-2.88.63-3.24,0,0-2.22,1.12-2.76,1.19,0,0,2.43-6.5,11.61-17.84,3.83-4.73,12.06-14.25,12.06-14.25"/>
      <ellipse class="cls-1" cx="105.04" cy="196.04" rx="60.74" ry="10.15"/>
      <path class="cls-4" d="M149.32,88.16c10.05,7.05,27.57,19.62,30.7,24.59,0,0-2.69.83-3.12.54s1.59,1.34,1.85,2.12c0,0-2.91.11-3.3,0,0,0,1.52,1.96,1.69,2.48,0,0-6.84-1.14-19.73-7.97-5.37-2.85-16.29-9.11-16.29-9.11"/>
      <path class="cls-4" d="M142.13,31.98c.48-2.81-3.68-30.14-6.98-31.88-3.29-1.74-20.43,20.25-20.73,21.85s27.7,10.03,27.7,10.03Z"/>
      <path class="cls-4" d="M51.33,38.87c-1.15-2.61-3.72-30.13-.94-32.62s24.72,14.7,25.4,16.19-24.45,16.44-24.45,16.44Z"/>
      <path class="cls-4" d="M153.9,196.04c13.65-36.09-4.79-121.07-4.79-121.07l30.9-22.73s-44.43-24.03-53.12-28.02c-16.62-7.62-44.75-8.01-60.11,0-15.36,8.01-52.1,50.09-52.1,50.09l34.73,10.69s-4.99,88.57,5.03,111.05l14.25-17.99s59.75.94,66.34,1.41l18.87,16.58Z"/>
      <path class="cls-5" d="M166.33,114.23c3.9,2.07,10.8,3.67,10.8,3.67-.17-.52-1.69-2.48-1.69-2.48.39.1,3.3,0,3.3,0-.26-.78-2.28-2.4-1.85-2.12s3.12-.54,3.12-.54c-1.04-1.65-3.68-4.15-7.1-7.01l-2.74.44.57,1.91-1.65.51.06,1.91-1.78.38.25,1.46-1.52.44.22,1.44Z"/>
      <path class="cls-5" d="M32.9,110.85c-2.84,3.37-5.86,9.78-5.86,9.78.54-.06,2.78-1.13,2.78-1.13-.18.36-.69,3.23-.69,3.23.82-.09,2.83-1.72,2.46-1.36s-.13,3.17-.13,3.17c1.84-.67,4.83-2.72,8.34-5.46l.14-2.77-1.98.16-.15-1.72-1.88-.34v-1.82s-1.48-.06-1.48-.06l-.11-1.58-1.45-.09Z"/>
      <path class="cls-5" d="M61.1,187.62l-6.67,8.41c-1.15-2.59-2.11-6.05-2.89-10.15l9.56,1.73Z"/>
      <path class="cls-5" d="M143.8,187.17l10.1,8.87c1.46-3.86,2.55-8.27,3.34-13.08l-13.44,4.21Z"/>
      <path class="cls-3" d="M129.78,82.43c-21.66,3.4-15.3,3.14-26.16,3.85-8.08.53-25.56.4-30.11-.02,0,0,26.04,1.31,30.32,1.31s25.94-5.14,25.94-5.14Z"/>
      <path class="cls-4" d="M52.72,160.04c-15.47,4.25-26.9,0-32.13-4.57C15.37,150.9-.63,118.9.02,109.1c.08-1.22.47-4.13,2.22-4.91,6.65-2.93,12.67-2.6,18.98.94,7.54,4.23,25.63,24.99,28.08,27.08s3.42,27.84,3.42,27.84Z"/>
      <path class="cls-5" d="M43.3,125.93s-21.83,21.29-22.71,29.54c0,0-2.71-3.1-4.38-5.92s19.8-27.57,22.51-28.47c0,0,4.58,4.85,4.58,4.85Z"/>
      <path class="cls-5" d="M31.48,113.72s-20.13,18.5-20.91,25.59c0,0-1.79-3.28-3.13-6.62-1.06-2.64,17.39-22.14,19.81-22.92,0,0,4.23,3.96,4.23,3.96Z"/>
    </g>
  </g>
</svg>