<?xml version="1.0" encoding="UTF-8"?>
<svg id="Layer_2" data-name="Layer 2" xmlns="http://www.w3.org/2000/svg" viewBox="0 0 165.33 88.49">
  <defs>
    <style>
      .cls-1 {
        fill: #8b8e90;
      }

      .cls-2 {
        fill: #999b9d;
      }
    </style>
  </defs>
  <g id="Layer_1-2" data-name="Layer 1">
    <g>
      <g>
        <path class="cls-2" d="M127.45,31.98c.48-2.81-3.68-30.14-6.98-31.88-3.29-1.74-20.43,20.25-20.73,21.85s27.7,10.03,27.7,10.03Z"/>
        <path class="cls-2" d="M52.1,24.21c15.36-8.02,43.49-7.62,60.11,0,8.69,3.99,53.12,28.02,53.12,28.02l-30.9,22.73c-7.46,3.84-21.85,11.53-45.5,12.37-17.5.63-33.79,1.43-54.2-2.35-10.28-1.9-16.5-4.37-34.73-10.69,0,0,36.73-42.08,52.1-50.09Z"/>
        <path class="cls-2" d="M36.65,38.87c-1.15-2.61-3.72-30.13-.94-32.62s24.72,14.7,25.4,16.19-24.45,16.44-24.45,16.44Z"/>
      </g>
      <path class="cls-1" d="M115.09,83.35c-21.66,3.4-15.3,3.14-26.16,3.85-8.08.53-25.56.4-30.11-.02,0,0,26.04,1.31,30.32,1.31s25.94-5.14,25.94-5.14Z"/>
    </g>
  </g>
</svg>