<?xml version="1.0" encoding="UTF-8"?>
<svg id="Layer_2" data-name="Layer 2" xmlns="http://www.w3.org/2000/svg" viewBox="0 0 37.93 39.62">
  <defs>
    <style>
      .cls-1 {
        fill: #8d8f91;
      }

      .cls-2 {
        fill: #353535;
      }
    </style>
  </defs>
  <g id="Layer_1-2" data-name="Layer 1">
    <g>
      <path class="cls-1" d="M34.62,14.23c-8.85,8.51-24.55,23.29-30.05,25.39,0,0-.31-2.81.05-3.18s-1.62,1.3-2.44,1.4c0,0,.44-2.89.62-3.26,0,0-2.22,1.11-2.76,1.18,0,0,2.41-6.52,11.58-17.86,3.82-4.73,12.06-14.25,12.06-14.25,0,0,7.12-7.33,12.54-1.2,4.66,5.03-1.58,11.79-1.58,11.79Z"/>
      <path class="cls-2" d="M5.86,25.86c-2.84,3.37-5.86,9.78-5.86,9.78.54-.06,2.78-1.13,2.78-1.13-.18.36-.69,3.23-.69,3.23.82-.09,2.83-1.72,2.46-1.36s-.13,3.17-.13,3.17c1.84-.67,4.83-2.72,8.34-5.46l.14-2.77-1.98.16-.15-1.72-1.88-.34v-1.82s-1.48-.06-1.48-.06l-.11-1.58-1.45-.09Z"/>
    </g>
  </g>
</svg>