<?xml version="1.0" encoding="UTF-8"?>
<svg id="Layer_2" data-name="Layer 2" xmlns="http://www.w3.org/2000/svg" viewBox="0 0 43.81 31.91">
  <defs>
    <style>
      .cls-1 {
        fill: #999b9d;
      }

      .cls-2 {
        fill: #353535;
      }
    </style>
  </defs>
  <g id="Layer_1-2" data-name="Layer 1">
    <g>
      <path class="cls-1" d="M4.9,14.83s10.92,6.26,16.29,9.11c12.89,6.83,19.73,7.97,19.73,7.97-.17-.52-1.69-2.48-1.69-2.48.39.1,3.3,0,3.3,0-.26-.78-2.28-2.4-1.85-2.12s3.12-.54,3.12-.54c-3.13-4.97-20.65-17.54-30.7-24.59,0,0-8.61-5.58-12.16,1.14s3.94,11.51,3.94,11.51Z"/>
      <path class="cls-2" d="M30.12,28.25c3.9,2.07,10.8,3.67,10.8,3.67-.17-.52-1.69-2.48-1.69-2.48.39.1,3.3,0,3.3,0-.26-.78-2.28-2.4-1.85-2.12s3.12-.54,3.12-.54c-1.04-1.65-3.68-4.15-7.1-7.01l-2.74.44.57,1.91-1.65.51.06,1.91-1.78.38.25,1.46-1.52.44.22,1.44Z"/>
    </g>
  </g>
</svg>