<svg xmlns="http://www.w3.org/2000/svg" viewBox="0 0 4094 6825" width="4094" height="6825"><defs></defs><g transform="matrix(20,0,0,20,1105.24948182,1378.590751517)">
<g>
	<path d="M-55.262474,-68.929538L 149.481224,-68.929538 L 149.481224,272.35428 L -55.262474,272.35428 L -55.262474,-68.929538 Z" fill="none"/>
</g>
<g/>
<g>
	<path d="M133.452872,190.78463C133.452872,190.78463 133.758605,157.76539 133.758605,157.76539 L 92.369905,158.223991 L 71.478871,154.64267 L 68.444828,153.733018 L 66.090399,152.473339 L 51.837463,141.971176 L 49.013753,139.329564 L 46.561363,135.974474 L 40.234374,125.03842 L 38.14039,118.961472 L 36.832816,112.28945 L 35.334603,76.916696 L 34.759723,63.343814 C34.759723,63.343814 70.568071,83.729311 70.568071,83.729311 C70.568071,83.729311 14.291173,-9.672335 14.291173,-9.672335 C14.291173,-9.672335 -41.985725,83.729311 -41.985725,83.729311 C-41.985725,83.729311 -4.653338,63.343814 -4.653338,63.343814 L -4.299107,79.654273 L -3.614524,111.175706 L -2.216458,121.713075 L -0.001224,129.555117 L 10.892235,151.577825 L 14.726284,157.560351 L 19.68452,162.722159 L 35.000872,174.849617 L 38.641454,177.26319 L 43.363752,179.374233 L 56.504191,184.086666 L 60.835456,185.438736 L 66.177019,186.407907 L 93.401757,190.478896 L 133.452872,190.78463 Z" transform="matrix(1,0,0,1,0,0)" fill="#000000" stroke="#ffffff" stroke-width="5"/>
</g></g></svg>