<svg xmlns="http://www.w3.org/2000/svg" viewBox="0 0 105 207" width="105" height="207"><defs></defs><g transform="matrix(1,0,0,1,5.625,4.921875)">
<g>
	<path d="M-5.625,-4.921875L 99.84375,-4.921875 L 99.84375,202.5 L -5.625,202.5 L -5.625,-4.921875 Z" fill="none"/>
</g>
<g/>
<g>
	<path d="M127.021434,187.636207C127.021434,187.636207 127.021434,74.176982 127.021434,74.176982 C127.021434,74.176982 101.121422,74.176982 101.121422,74.176982 C101.121422,74.176982 146.446443,1.160833 146.446443,1.160833 C146.446443,1.160833 191.771464,73.964943 191.771464,73.964943 C191.771464,73.964943 166.434496,74.176982 166.434496,74.176982 C166.434496,74.176982 166.434496,187.964124 166.434496,187.964124 C166.434496,187.964124 127.021434,187.636207 127.021434,187.636207 Z" transform="matrix(1,0,0,1,-99.33706786,4.226584146)" fill="#f7ff00" stroke="#000000" stroke-width="5"/>
</g></g></svg>