<svg xmlns="http://www.w3.org/2000/svg" viewBox="0 0 105 207" width="105" height="207"><defs></defs><g transform="matrix(1,0,0,1,5.625,4.921875)">
<g>
	<path d="M-5.625,-4.921875L 99.84375,-4.921875 L 99.84375,202.5 L -5.625,202.5 L -5.625,-4.921875 Z" fill="none"/>
</g>
<g/>
<g>
	<path d="M336.487236,187.120282C336.487236,187.120282 336.487236,73.661056 336.487236,73.661056 C336.487236,73.661056 310.587224,73.661056 310.587224,73.661056 C310.587224,73.661056 355.912245,0.644907 355.912245,0.644907 C355.912245,0.644907 401.237266,73.449018 401.237266,73.449018 C401.237266,73.449018 375.900298,73.661056 375.900298,73.661056 C375.900298,73.661056 375.900298,187.448198 375.900298,187.448198 C375.900298,187.448198 336.487236,187.120282 336.487236,187.120282 Z" transform="matrix(1,0,0,1,-308.802869874,4.742509767)" fill="#000000" stroke="#fefefe" stroke-width="5"/>
</g></g></svg>