<svg xmlns="http://www.w3.org/2000/svg" viewBox="0 0 4094 6825" width="4094" height="6825"><defs></defs><g transform="matrix(20,0,0,20,1105.24948182,1378.590751517)">
<g>
	<path d="M-55.262474,-68.929538L 149.481224,-68.929538 L 149.481224,272.35428 L -55.262474,272.35428 L -55.262474,-68.929538 Z" fill="none"/>
</g>
<g/>
<g>
	<path d="M360.368352,400.856862C360.368352,400.856862 360.368352,287.397636 360.368352,287.397636 C360.368352,287.397636 323.035966,307.783133 323.035966,307.783133 C323.035966,307.783133 379.312864,214.381487 379.312864,214.381487 C379.312864,214.381487 435.589762,307.783133 435.589762,307.783133 C435.589762,307.783133 399.781414,287.397636 399.781414,287.397636 C399.781414,287.397636 399.781414,401.184779 399.781414,401.184779 C399.781414,401.184779 360.368352,400.856862 360.368352,400.856862 Z" transform="matrix(1,0,0,1,-339.15715554,-220.153541699)" fill="#fe0000" stroke="#000000" stroke-width="5"/>
</g></g></svg>