<svg xmlns="http://www.w3.org/2000/svg" viewBox="0 0 105 207" width="105" height="207"><defs></defs><g transform="matrix(1,0,0,1,5.625,4.921875)">
<g>
	<path d="M-5.625,-4.921875L 99.84375,-4.921875 L 99.84375,202.5 L -5.625,202.5 L -5.625,-4.921875 Z" fill="none"/>
</g>
<g/>
<g>
	<path d="M415.968788,190.432177C415.968788,190.432177 415.968788,76.972951 415.968788,76.972951 C415.968788,76.972951 390.068776,76.972951 390.068776,76.972951 C390.068776,76.972951 435.393797,3.956802 435.393797,3.956802 C435.393797,3.956802 480.718818,76.760913 480.718818,76.760913 C480.718818,76.760913 455.38185,76.972951 455.38185,76.972951 C455.38185,76.972951 455.38185,190.760094 455.38185,190.760094 C455.38185,190.760094 415.968788,190.432177 415.968788,190.432177 Z" transform="matrix(1,0,0,1,-389.209011307,3.298401813)" fill="#5cff00" stroke="#000000" stroke-width="5"/>
</g></g></svg>