<svg xmlns="http://www.w3.org/2000/svg" viewBox="0 0 4094 5175" width="4094" height="5175"><defs></defs><g transform="matrix(20,0,0,20,1105.24948182,612.048263643)">
<g>
	<path d="M-55.262474,-30.602413L 149.481224,-30.602413 L 149.481224,228.180538 L -55.262474,228.180538 L -55.262474,-30.602413 Z" fill="none"/>
</g>
<g/>
<g>
	<path d="M155.361915,400.856862C155.361915,400.856862 155.361915,287.397636 155.361915,287.397636 C155.361915,287.397636 118.029528,307.783133 118.029528,307.783133 C118.029528,307.783133 174.306426,214.381487 174.306426,214.381487 C174.306426,214.381487 230.583324,307.783133 230.583324,307.783133 C230.583324,307.783133 194.774977,287.397636 194.774977,287.397636 C194.774977,287.397636 194.774977,401.184779 194.774977,401.184779 C194.774977,401.184779 155.361915,400.856862 155.361915,400.856862 Z" transform="matrix(1,0,0,1,-126.915529508,-209.158028781)" fill="#5cfe00" stroke="#000000" stroke-width="5"/>
</g></g></svg>