<svg xmlns="http://www.w3.org/2000/svg" viewBox="0 0 4094 6825" width="4094" height="6825"><defs></defs><g transform="matrix(20,0,0,20,1105.24948182,1378.590751517)">
<g>
	<path d="M-55.262474,-68.929538L 149.481224,-68.929538 L 149.481224,272.35428 L -55.262474,272.35428 L -55.262474,-68.929538 Z" fill="none"/>
</g>
<g/>
<g>
	<path d="M336.967733,399.709226C336.967733,399.709226 336.967733,286.25 336.967733,286.25 C336.967733,286.25 299.635347,306.635497 299.635347,306.635497 C299.635347,306.635497 356.392742,213.233851 356.392742,213.233851 C356.392742,213.233851 412.189143,306.635497 412.189143,306.635497 C412.189143,306.635497 376.380795,286.25 376.380795,286.25 C376.380795,286.25 376.380795,400.037142 376.380795,400.037142 C376.380795,400.037142 336.967733,399.709226 336.967733,399.709226 Z" transform="matrix(1,0,0,1,-316.518556116,-218.841947112)" fill="#000000" stroke="#fefefe" stroke-width="5"/>
</g></g></svg>