<svg xmlns="http://www.w3.org/2000/svg" viewBox="0 0 105 207" width="105" height="207"><defs></defs><g transform="matrix(1,0,0,1,5.625,4.921875)">
<g>
	<path d="M-5.625,-4.921875L 99.84375,-4.921875 L 99.84375,202.5 L -5.625,202.5 L -5.625,-4.921875 Z" fill="none"/>
</g>
<g/>
<g>
	<path d="M237.007088,187.636207C237.007088,187.636207 237.007088,74.176982 237.007088,74.176982 C237.007088,74.176982 211.107076,74.176982 211.107076,74.176982 C211.107076,74.176982 256.432097,1.160833 256.432097,1.160833 C256.432097,1.160833 301.757118,73.964943 301.757118,73.964943 C301.757118,73.964943 276.42015,74.176982 276.42015,74.176982 C276.42015,74.176982 276.42015,187.964124 276.42015,187.964124 C276.42015,187.964124 237.007088,187.636207 237.007088,187.636207 Z" transform="matrix(1,0,0,1,-209.322722102,4.226584146)" fill="#ff0000" stroke="#000000" stroke-width="5"/>
</g></g></svg>