<svg xmlns="http://www.w3.org/2000/svg" viewBox="0 0 4094 6825" width="4094" height="6825"><defs></defs><g transform="matrix(20,0,0,20,1105.24948182,1378.590751517)">
<g>
	<path d="M-55.262474,-68.929538L 149.481224,-68.929538 L 149.481224,272.35428 L -55.262474,272.35428 L -55.262474,-68.929538 Z" fill="none"/>
</g>
<g/>
<g>
	<path d="M133.758605,190.78463C133.758605,190.78463 134.064339,157.76539 134.064339,157.76539 L 92.675639,158.223991 L 71.784605,154.64267 L 68.750562,153.733018 L 66.396132,152.473339 L 52.143197,141.971176 L 49.319486,139.329564 L 46.867096,135.974474 L 40.540107,125.03842 L 38.446124,118.961472 L 37.13855,112.28945 L 35.640337,76.916696 L 35.065457,63.343814 C35.065457,63.343814 70.873805,83.729311 70.873805,83.729311 C70.873805,83.729311 14.596907,-9.672335 14.596907,-9.672335 C14.596907,-9.672335 -41.679991,83.729311 -41.679991,83.729311 C-41.679991,83.729311 -4.347605,63.343814 -4.347605,63.343814 L -3.993374,79.654273 L -3.30879,111.175706 L -1.910725,121.713075 L 0.30451,129.555117 L 11.197969,151.577825 L 15.032018,157.560351 L 19.990254,162.722159 L 35.306606,174.849617 L 38.947188,177.26319 L 43.669486,179.374233 L 56.809924,184.086666 L 61.14119,185.438736 L 66.482753,186.407907 L 93.70749,190.478896 L 133.758605,190.78463 Z" transform="matrix(1,0,0,1,0,0)" fill="#ffffff" stroke="#000000" stroke-width="5"/>
</g></g></svg>