<svg xmlns="http://www.w3.org/2000/svg" viewBox="0 0 4094 6825" width="4094" height="6825"><defs></defs><g transform="matrix(20,0,0,20,1105.24948182,1378.590751517)">
<g>
	<path d="M-55.262474,-68.929538L 149.481224,-68.929538 L 149.481224,272.35428 L -55.262474,272.35428 L -55.262474,-68.929538 Z" fill="none"/>
</g>
<g/>
<g>
	<path d="M2373.182095,87.190907C2373.182095,87.190907 2418.507116,14.174758 2418.507116,14.174758 C2418.507116,14.174758 2463.832137,86.978869 2463.832137,86.978869 C2463.832137,86.978869 2438.495169,87.190907 2438.495169,87.190907 C2438.495169,87.190907 2438.495169,184.632037 2438.495169,184.632037 C2438.495169,184.632037 2541.226843,184.632037 2541.226843,184.632037 C2541.226843,184.632037 2541.226843,216.668228 2541.226843,216.668228 C2541.226843,216.668228 2399.082107,216.668228 2399.082107,216.668228 C2399.082107,216.668228 2399.082107,87.190907 2399.082107,87.190907 C2399.082107,87.190907 2373.182095,87.190907 2373.182095,87.190907 Z" transform="matrix(1,0,0,1,-2410.095094052,-27.34197438)" fill="#ffffff" stroke="#000000" stroke-width="5.000000000000002"/>
</g></g></svg>