<?xml version="1.0" encoding="UTF-8"?>
<svg id="Layer_2" data-name="Layer 2" xmlns="http://www.w3.org/2000/svg" viewBox="0 0 1007.81 1152.02">
  <defs>
    <style>
      .cls-1 {
        fill: #f9e7b3;
      }

      .cls-2 {
        fill: none;
      }

      .cls-3 {
        fill: #6693a1;
      }

      .cls-4 {
        fill: #ffd100;
      }

      .cls-5 {
        fill: #fdb3ec;
      }

      .cls-6 {
        fill: #c18125;
      }

      .cls-7 {
        fill: #2d8a25;
      }

      .cls-8 {
        fill: #231f20;
      }

      .cls-9 {
        fill: #dd982a;
      }

      .cls-10 {
        fill: #073a42;
        opacity: .43;
      }

      .cls-11 {
        fill: #8d8f91;
      }

      .cls-12 {
        fill: #8b8e90;
      }

      .cls-13 {
        fill: #d18e2c;
      }

      .cls-14 {
        fill: #bc1007;
      }

      .cls-15 {
        fill: #e3962c;
      }

      .cls-16 {
        fill: #961920;
      }

      .cls-17 {
        fill: #521f0a;
      }

      .cls-18 {
        fill: #999b9d;
      }

      .cls-19 {
        fill: #060606;
      }

      .cls-20 {
        fill: #b0b0b0;
      }

      .cls-21 {
        fill: #4f2604;
      }

      .cls-22 {
        fill: #848484;
      }

      .cls-23 {
        fill: #2a3e43;
      }

      .cls-24 {
        fill: #a6a4a3;
      }

      .cls-25 {
        fill: #fff;
      }

      .cls-26 {
        fill: #1a3502;
      }

      .cls-27 {
        fill: #252626;
      }

      .cls-28 {
        fill: #7e7e7e;
      }

      .cls-29 {
        fill: #8bb7c4;
      }

      .cls-30 {
        fill: #2e8900;
      }

      .cls-31 {
        fill: #ffd500;
      }

      .cls-32 {
        fill: #787a7b;
      }

      .cls-33 {
        fill: #fad496;
      }

      .cls-34 {
        fill: #b3b3b3;
      }

      .cls-35 {
        fill: #7f7f7f;
      }

      .cls-36 {
        fill: #ffeaab;
      }

      .cls-37 {
        fill: #703200;
      }

      .cls-38 {
        fill: #de9730;
      }

      .cls-39 {
        fill: #daba15;
      }

      .cls-40 {
        fill: #358c00;
      }

      .cls-41 {
        fill: #324d30;
      }

      .cls-42 {
        fill: #353535;
      }

      .cls-43 {
        fill: #414142;
      }

      .cls-44 {
        fill: #27272b;
      }
    </style>
  </defs>
  <g id="Layer_1-2" data-name="Layer 1">
    <g>
      <ellipse class="cls-10" cx="142.11" cy="952.68" rx="60.74" ry="10.15"/>
      <g>
        <path class="cls-11" d="M97.83,844.81c-10.05,7.05-27.57,19.62-30.7,24.59,0,0,2.69.83,3.12.54s-1.59,1.34-1.85,2.12c0,0,2.91.11,3.3,0,0,0-1.52,1.96-1.69,2.48,0,0,6.84-1.14,19.73-7.97,5.37-2.85,16.29-9.11,16.29-9.11"/>
        <path class="cls-18" d="M105.01,788.63c-.48-2.81,3.68-30.14,6.98-31.88,3.29-1.74,20.43,20.25,20.73,21.85s-27.7,10.03-27.7,10.03Z"/>
        <path class="cls-42" d="M115.46,784.27c-.18-.91,1.36-9.78,2.58-10.35s6.15,5.59,6.26,6.11-8.84,4.23-8.84,4.23Z"/>
        <path class="cls-18" d="M195.81,795.52c1.15-2.61,3.72-30.13.94-32.62s-24.72,14.7-25.4,16.19,24.45,16.44,24.45,16.44Z"/>
        <path class="cls-11" d="M194.43,916.69c15.47,4.25,26.9,0,32.13-4.57,5.23-4.57,21.23-36.58,20.57-46.37-.08-1.22-.47-4.13-2.22-4.91-6.65-2.93-12.67-2.6-18.98.94-7.54,4.23-25.63,24.99-28.08,27.08s-3.42,27.84-3.42,27.84Z"/>
        <path class="cls-18" d="M93.25,952.68c-13.65-36.09,4.79-121.07,4.79-121.07l-30.9-22.73s44.43-24.03,53.12-28.02c16.62-7.62,44.75-8.01,60.11,0,15.36,8.01,52.1,50.09,52.1,50.09l-34.73,10.69s4.99,88.57-5.03,111.05l-14.25-17.99s-59.75.94-66.34,1.41l-18.87,16.58Z"/>
        <path class="cls-42" d="M100.89,790.8c11.15-2.66,25.3-1.77,34.8,3.5,0-.44-15.02,17.23-25.18,18.11s-20.33-15.98-20.33-15.98l10.7-5.63Z"/>
        <path class="cls-42" d="M149.8,795.52s13.81-2,22.59-.67c12.57,1.89,20.44,11.09,20.44,12.5,0,0-11.58,10.6-22.18,10.1-10.6-.49-18.39-18.73-20.85-21.93Z"/>
        <circle class="cls-25" cx="168" cy="801.91" r="2.51"/>
        <circle class="cls-25" cx="119.88" cy="798.02" r="2.51"/>
        <path class="cls-8" d="M145.64,815.41c0-1.69-1.31-3.08-2.96-3.21h0s-5.16-.01-5.16-.01c-1.78,0-3.23,1.44-3.23,3.23s1.44,3.23,3.23,3.23h5.16c1.66-.15,2.96-1.53,2.96-3.23Z"/>
        <path class="cls-42" d="M192.19,788.63c.42-.91,1.16-10.63.05-11.54s-9.5,4.97-9.76,5.49,9.7,6.06,9.7,6.06Z"/>
        <path class="cls-12" d="M185.59,856.38c8.84,8.51,24.54,23.3,30.02,25.41,0,0,.29-2.8-.06-3.17s1.62,1.3,2.44,1.41c0,0-.45-2.88-.63-3.24,0,0,2.22,1.12,2.76,1.19,0,0-2.43-6.5-11.61-17.84-3.83-4.73-12.06-14.25-12.06-14.25"/>
        <path class="cls-18" d="M185.59,855.77c8.84,8.51,24.54,23.3,30.02,25.41,0,0,.29-2.8-.06-3.17s1.62,1.3,2.44,1.41c0,0-.45-2.88-.63-3.24,0,0,2.22,1.12,2.76,1.19,0,0-2.43-6.5-11.61-17.84-3.83-4.73-12.06-14.25-12.06-14.25"/>
        <path class="cls-42" d="M203.85,882.58s21.83,21.29,22.71,29.54c0,0,2.71-3.1,4.38-5.92s-19.8-27.57-22.51-28.47c0,0-4.58,4.85-4.58,4.85Z"/>
        <path class="cls-42" d="M215.67,870.37s20.13,18.5,20.91,25.59c0,0,1.79-3.28,3.13-6.62,1.06-2.64-17.39-22.14-19.81-22.92,0,0-4.23,3.96-4.23,3.96Z"/>
        <path class="cls-42" d="M80.82,870.88c-3.9,2.07-10.8,3.67-10.8,3.67.17-.52,1.69-2.48,1.69-2.48-.39.1-3.3,0-3.3,0,.26-.78,2.28-2.4,1.85-2.12s-3.12-.54-3.12-.54c1.04-1.65,3.68-4.15,7.1-7.01l2.74.44-.57,1.91,1.65.51-.06,1.91,1.78.38-.25,1.46,1.52.44-.22,1.44Z"/>
        <path class="cls-42" d="M214.25,867.49c2.84,3.37,5.86,9.78,5.86,9.78-.54-.06-2.78-1.13-2.78-1.13.18.36.69,3.23.69,3.23-.82-.09-2.83-1.72-2.46-1.36s.13,3.17.13,3.17c-1.84-.67-4.83-2.72-8.34-5.46l-.14-2.77,1.98.16.15-1.72,1.88-.34v-1.82s1.48-.06,1.48-.06l.11-1.58,1.45-.09Z"/>
        <path class="cls-42" d="M186.04,944.27l6.67,8.41c1.15-2.59,2.11-6.05,2.89-10.15l-9.56,1.73Z"/>
        <path class="cls-18" d="M120.26,780.86c16.62-7.62,44.75-8.01,60.11,0"/>
        <path class="cls-42" d="M103.34,943.81l-10.1,8.87c-1.46-3.86-2.55-8.27-3.34-13.08l13.44,4.21Z"/>
        <path class="cls-12" d="M117.37,839.08c21.66,3.4,15.3,3.14,26.16,3.85,8.08.53,25.56.4,30.11-.02,0,0-26.04,1.31-30.32,1.31s-25.94-5.14-25.94-5.14Z"/>
      </g>
    </g>
    <g>
      <path class="cls-18" d="M751.54,788.85c.49-2.83-3.71-30.34-7.03-32.1s-20.57,20.38-20.87,22,27.89,10.1,27.89,10.1Z"/>
      <path class="cls-27" d="M748.5,781.37c.13-.85-.97-9.16-1.85-9.69s-5.41,6.15-5.49,6.64,7.33,3.05,7.33,3.05Z"/>
      <ellipse class="cls-10" cx="729.53" cy="952.68" rx="46.62" ry="10.15"/>
      <path class="cls-32" d="M768.47,848.58c5.47,11.08,14.88,30.65,15.24,36.55,0,0-2.78-.57-3.02-1.03s.76,1.95.61,2.77c0,0-2.62-1.31-2.92-1.59,0,0,.4,2.47.3,3.01,0,0-5.5-4.31-13.58-16.57-3.37-5.11-9.99-15.92-9.99-15.92"/>
      <path class="cls-27" d="M770.9,879.83c2.44,3.71,7.77,8.45,7.77,8.45.1-.54-.3-3.01-.3-3.01.3.28,2.92,1.59,2.92,1.59.15-.82-.85-3.22-.61-2.77s3.02,1.03,3.02,1.03c-.12-1.96-1.24-5.44-2.89-9.62l-2.64-.93-.42,1.96-1.7-.35-.86,1.71-1.76-.52-.48,1.41-1.56-.34-.5,1.38Z"/>
      <path class="cls-11" d="M688.93,914.64c-15.47,4.25-26.9,0-32.13-4.57-5.23-4.57-21.23-36.58-20.57-46.37.08-1.22.47-4.13,2.22-4.91,6.65-2.93,12.67-2.6,18.98.94,7.54,4.23,25.63,24.99,28.08,27.08s3.42,27.84,3.42,27.84Z"/>
      <path class="cls-18" d="M792.55,820.01s-30.42-36.44-39.17-40.45c-16.73-7.67-47.47-8.65-60.25,3.24-7.29,6.77-14.34,14.42-20.06,24.07-4.38,7.4-10.22,13.26-10.22,13.26l24.95,14.61s-6.27,39.31-6.77,73.32c-.27,18.69,9.81,34.4,17.09,44.66l21.46-17.72s13.15.35,19.69.22c5.88-1.04,26.07-.44,33.09-13.3,2.2-5.51,3.66-11.35,3.5-16.39-1.11-36.78-8.98-69.23-8.98-69.23l25.66-16.27Z"/>
      <path class="cls-42" d="M679.51,880.53s-21.83,21.29-22.71,29.54c0,0-2.71-3.1-4.38-5.92s19.8-27.57,22.51-28.47c0,0,4.58,4.85,4.58,4.85Z"/>
      <path class="cls-42" d="M667.68,868.32s-20.13,18.5-20.91,25.59c0,0-1.79-3.28-3.13-6.62-1.06-2.64,17.39-22.14,19.81-22.92,0,0,4.23,3.96,4.23,3.96Z"/>
      <path class="cls-18" d="M694.56,795.43c-1.21-2.62-2.95-28.73.18-31.32,3.13-2.59,27.42,14.15,27.68,15.77.59,3.76-25.93,17.23-27.86,15.55Z"/>
      <path class="cls-27" d="M709.13,788.96c-.44-1.05-1.46-11.39-.47-12.36s9.32,6.05,9.43,6.69c.26,1.5-8.3,6.36-8.96,5.67Z"/>
      <path class="cls-27" d="M764.65,804.54c-3.17-1.78-16.1-5.66-25.05-5.88-12.79-.31-14.8,1.83-20.12,3.58,0,0,10.12,16.69,20.75,17.8s20.91-11.78,24.42-15.49Z"/>
      <circle class="cls-25" cx="752.11" cy="806.84" r="2.53"/>
      <path class="cls-27" d="M785.27,819.73c0-1.71,1.31-3.1,2.98-3.24h0s3.07-.01,3.07-.01c1.79,0,3.25,1.45,3.25,3.25s-1.45,3.25-3.25,3.25h-3.07c-1.67-.15-2.98-1.54-2.98-3.25Z"/>
      <path class="cls-11" d="M728.28,852.18c-2.07,12.19-5.96,33.55-9.32,38.52,0,0-2.1-2.11-2.04-2.62s-.55,2.02-1.19,2.59c0,0-1.51-2.61-1.59-3.02,0,0-1.19,2.23-1.61,2.6,0,0-2.18-6.74-1.68-21.43.21-6.12,1.09-18.77,1.09-18.77"/>
      <path class="cls-18" d="M727.71,852.01c-2.03,12.19-5.84,33.57-8.99,38.57,0,0-1.92-2.08-1.85-2.6s-.53,2.02-1.12,2.6c0,0-1.36-2.6-1.44-3,0,0-1.12,2.24-1.51,2.61,0,0-1.94-6.71-1.34-21.38.25-6.12,1.19-18.76,1.19-18.76"/>
      <path class="cls-27" d="M711.38,878.79c-.18,4.44,1.37,11.4,1.37,11.4.4-.38,1.51-2.61,1.51-2.61.08.4,1.44,3,1.44,3,.6-.58,1.19-3.11,1.12-2.6s1.85,2.6,1.85,2.6c1.05-1.66,2.17-5.14,3.27-9.49l-1.59-2.3-1.48,1.35-1.18-1.28-1.7.89-1.12-1.45-1.22.87-1.07-1.19-1.21.83Z"/>
      <polygon class="cls-18" points="680.19 820.1 675.81 837.98 692.97 832.66 680.19 820.1"/>
      <path class="cls-11" d="M739.28,935.18c5.89-1.04,26.09-.44,33.11-13.32,0,0-2.18,10.5-6.68,29.23l-26.42-15.91"/>
      <path class="cls-12" d="M700.14,837.36c21.66,3.4,15.3,3.14,26.16,3.85,8.08.53,25.56-2.77,30.11-3.2,0,0-26.04,4.48-30.32,4.48s-25.94-5.14-25.94-5.14Z"/>
      <path class="cls-27" d="M705.74,946.4l-7.62,6.29c-1.49-2.1-3.82-5.58-5.43-8.11l13.05,1.83Z"/>
      <path class="cls-27" d="M755.83,945.15l9.87,5.94c.88-3.68,1.68-7.04,2.38-10.07l-12.26,4.13Z"/>
    </g>
    <g>
      <path class="cls-12" d="M396.2,856.38c-8.84,8.51-24.54,23.3-30.02,25.41,0,0-.29-2.8.06-3.17s-1.62,1.3-2.44,1.41c0,0,.45-2.88.63-3.24,0,0-2.22,1.12-2.76,1.19,0,0,2.43-6.5,11.61-17.84,3.83-4.73,12.06-14.25,12.06-14.25"/>
      <path class="cls-11" d="M396.2,855.77c-8.84,8.51-24.54,23.3-30.02,25.41,0,0-.29-2.8.06-3.17s-1.62,1.3-2.44,1.41c0,0,.45-2.88.63-3.24,0,0-2.22,1.12-2.76,1.19,0,0,2.43-6.5,11.61-17.84,3.83-4.73,12.06-14.25,12.06-14.25"/>
      <ellipse class="cls-10" cx="439.69" cy="952.68" rx="60.74" ry="10.15"/>
      <path class="cls-18" d="M483.96,844.81c10.05,7.05,27.57,19.62,30.7,24.59,0,0-2.69.83-3.12.54s1.59,1.34,1.85,2.12c0,0-2.91.11-3.3,0,0,0,1.52,1.96,1.69,2.48,0,0-6.84-1.14-19.73-7.97-5.37-2.85-16.29-9.11-16.29-9.11"/>
      <path class="cls-18" d="M476.78,788.63c.48-2.81-3.68-30.14-6.98-31.88-3.29-1.74-20.43,20.25-20.73,21.85s27.7,10.03,27.7,10.03Z"/>
      <path class="cls-18" d="M385.98,795.52c-1.15-2.61-3.72-30.13-.94-32.62s24.72,14.7,25.4,16.19-24.45,16.44-24.45,16.44Z"/>
      <path class="cls-18" d="M488.55,952.68c13.65-36.09-4.79-121.07-4.79-121.07l30.9-22.73s-44.43-24.03-53.12-28.02c-16.62-7.62-44.75-8.01-60.11,0-15.36,8.01-52.1,50.09-52.1,50.09l34.73,10.69s-4.99,88.57,5.03,111.05l14.25-17.99s59.75.94,66.34,1.41l18.87,16.58Z"/>
      <path class="cls-42" d="M500.97,870.88c3.9,2.07,10.8,3.67,10.8,3.67-.17-.52-1.69-2.48-1.69-2.48.39.1,3.3,0,3.3,0-.26-.78-2.28-2.4-1.85-2.12s3.12-.54,3.12-.54c-1.04-1.65-3.68-4.15-7.1-7.01l-2.74.44.57,1.91-1.65.51.06,1.91-1.78.38.25,1.46-1.52.44.22,1.44Z"/>
      <path class="cls-42" d="M367.54,867.49c-2.84,3.37-5.86,9.78-5.86,9.78.54-.06,2.78-1.13,2.78-1.13-.18.36-.69,3.23-.69,3.23.82-.09,2.83-1.72,2.46-1.36s-.13,3.17-.13,3.17c1.84-.67,4.83-2.72,8.34-5.46l.14-2.77-1.98.16-.15-1.72-1.88-.34v-1.82s-1.48-.06-1.48-.06l-.11-1.58-1.45-.09Z"/>
      <path class="cls-42" d="M395.75,944.27l-6.67,8.41c-1.15-2.59-2.11-6.05-2.89-10.15l9.56,1.73Z"/>
      <path class="cls-42" d="M478.45,943.81l10.1,8.87c1.46-3.86,2.55-8.27,3.34-13.08l-13.44,4.21Z"/>
      <path class="cls-12" d="M464.42,839.08c-21.66,3.4-15.3,3.14-26.16,3.85-8.08.53-25.56.4-30.11-.02,0,0,26.04,1.31,30.32,1.31s25.94-5.14,25.94-5.14Z"/>
      <path class="cls-18" d="M387.37,916.69c-15.47,4.25-26.9,0-32.13-4.57-5.23-4.57-21.23-36.58-20.57-46.37.08-1.22.47-4.13,2.22-4.91,6.65-2.93,12.67-2.6,18.98.94,7.54,4.23,25.63,24.99,28.08,27.08s3.42,27.84,3.42,27.84Z"/>
      <path class="cls-42" d="M377.95,882.58s-21.83,21.29-22.71,29.54c0,0-2.71-3.1-4.38-5.92s19.8-27.57,22.51-28.47c0,0,4.58,4.85,4.58,4.85Z"/>
      <path class="cls-42" d="M366.12,870.37s-20.13,18.5-20.91,25.59c0,0-1.79-3.28-3.13-6.62-1.06-2.64,17.39-22.14,19.81-22.92,0,0,4.23,3.96,4.23,3.96Z"/>
    </g>
    <g>
      <path class="cls-39" d="M356.32,333.06c-.88,3.01-1.42,3.63-1.77,3.89s-3.18,2.48-3.98,5.75-4.24,21.35-5.6,23.19-11.02,8.07-13.58,8.39c-2.56.32-4.95,2.32-6.39,2.4-1.44.08-4.07-.8-4.31,0s7.11,4.63,14.7,3.59c7.59-1.04,7.88-2.28,8.33-1.93.12.93-2.83,3.78-3.73,4.41s-4.44,3.62-3.97,4.52,10.72-.11,14.12-2.56c3.41-2.44,5.93-8.3,7.78-8.81.74-.3.52,5.56,5.63,7.85,5.11,2.3,5.78,1.56,7.85,3.26s7.56,3.26,8.15,2.74-1.93-3.26-2.96-5.11c-1.04-1.85-4.81-5.78-5.7-7.41s-.81-3.26-.15-3.26,14,.59,18.59.22c4.59-.37,12.64-.85,12.94-1.15.55-.85-5.12-1.44-7.11-1.44s-3.42-.12-4.29-.58-5.53-3.12-8.49-3.38-4.45-.2-5.37-.72-6.45-5.63-6.5-7.32-3.02-9.57-5.83-13.3c-2.81-3.74-3.02-3.12-3.17-5.47-.15-2.35.62-5.53.62-6.19s.41-4.6.36-5.07-1.59-1.89-3.12-1.84-2.15.51-2.2,1.02-.82,4.29-.82,4.29Z"/>
      <path class="cls-21" d="M349.72,346.63c1.66.68,3.19,3.27,2.27,5.19s-1.97,3.28-2.54,2.98-1.22-1.11-1.15-1.45,1.42-6.72,1.42-6.72Z"/>
      <path class="cls-21" d="M356.32,333.06c1.24.13,1.93,0,2.44.3s1.69,1.27,2.52,1.28h.83s.36-5.06.36-5.06c0,0-1.31-2.04-2.64-2.04s-2.43.56-2.56.89-.95,4.62-.95,4.62Z"/>
      <path class="cls-21" d="M357.82,334.94c.03.61.38.61.53.44s.55-.77.18-.72-.7.28-.7.28Z"/>
      <path class="cls-21" d="M356.42,339.19c-.47.55-1.81,3.68-1.93,4.61s.06,2.13,0,2.42.41-1.66.55-2.3.93-2.42,1.08-2.98.29-1.75.29-1.75Z"/>
      <path class="cls-21" d="M361.78,346.76c-.16.4-.08,1.74.21,1.74s.46-1.02.6-1.16.23-.43.24-.71c.02-.61-.64-.64-1.05.13Z"/>
      <path class="cls-21" d="M354.3,355.01c-.35.78.43,3.15,0,4.63s-1.59,3.38-1.63,4.63-.16,4.28-.74,5.72-2.53,6.3-4.82,8.83-5.48,5.83-5.64,5.87,4.98-3.97,5.83-4.98,5.37-7.81,5.6-9.18.47-5.72.62-6.45.99-4.46.99-4.82-.21-4.24-.21-4.24Z"/>
      <path class="cls-21" d="M339.66,373.63c1.71-.77,3.98-3.81,5.23-4.15-.98.86-2.14,1.98-2.49,2.42-.51.62-2.74,1.73-2.74,1.73Z"/>
      <path class="cls-21" d="M345.87,368.42c.23-.54.54-.79.66-1.13s.6-2.34.9-2.59c-.36,1.24-.54,2.63-.78,2.87s-.78.84-.78.84Z"/>
      <path class="cls-21" d="M363.91,369.67c1.26-.34,1.38,2.28,1.73,3.08s1.25,1.28,1.25,2.5.45,2.15-.42,2.15-1.7-.83-2.28-.96-1.51-.58-1.48-1.35.16-2.28.16-2.79-.03-2.34,1.03-2.63Z"/>
      <path class="cls-21" d="M363.65,352.83c.44.68,1.46,2.33,1.74,3.89.14.75.04,1.15.23,2.66.21,1.64.19,3.37.66,4.34.89,1.87,2.01,2.69,3.64,3.78s1.42,1.03,1.67,1.33c-.2-1.33-2.62-3.11-3.47-4.13s-1.01-1.29-1.2-1.78-.89-6.74-1.17-7.52-2.09-2.58-2.09-2.58Z"/>
    </g>
    <g>
      <ellipse class="cls-40" cx="72.87" cy="345.4" rx="14.03" ry="16.43" transform="translate(-4.37 .95) rotate(-.73)"/>
      <path class="cls-40" d="M86.9,345.22l-28.05.36.63,50c.03,2.62,1.39,5,3.47,5.97,2.2,1.02,5.61,1.96,10.65,1.9,4.45-.06,7.61-.87,9.79-1.79,2.51-1.07,4.17-3.87,4.13-7.01l-.63-49.41Z"/>
      <path class="cls-40" d="M78.66,315.93l-12.32.16.38,29.84s1.47,2.48,6.19,2.42,6.13-2.57,6.13-2.57l-.38-29.84Z"/>
      <path class="cls-20" d="M72.98,353.92c-10.75.14-14.08-4.3-14.08-4.3l.39,30.43s3.33,4.44,14.08,4.3c10.75-.14,13.97-4.66,13.97-4.66l-.39-30.43s-3.22,4.52-13.97,4.66Z"/>
      <path class="cls-40" d="M78.78,314.96c-.51-.81-2.05-1.06-6.44-1h0c-4.82.02-5.59.28-6.12,1.13-.17.27-.28,1.06.39,1.9,0,0,2.79-.04,5.68-.08h0c3.13-.02,5.98.11,5.98.11.65-.85.78-1.65.52-2.07Z"/>
      <path class="cls-26" d="M69.12,316c3.43.51,6.93.31,8.53-.3-2.97,1.53-8.53.3-8.53.3Z"/>
      <path class="cls-26" d="M68.99,317.52c3.43.51,6.93.31,8.53-.3-2.97,1.53-8.53.3-8.53.3Z"/>
      <path class="cls-26" d="M69.08,400.46c3.43.51,6.93.31,8.53-.3-2.97,1.53-8.53.3-8.53.3Z"/>
    </g>
    <g>
      <path class="cls-14" d="M206.36,348.56c-1.07-.16-4.82,1.33-4.82.86,0-1.17-.8-5.62,6.11-8,6.92-2.37,10.72-2.33,16.89-1.87s13.81,6.22,13.15,6.14c-.93.18-1.42.13-1.42.13l-7.75,1.48-4.37,3.23-3.78-1.77-7.12,2.5-5.67-.36-1.22-2.34Z"/>
      <path class="cls-14" d="M233.4,373.17c1.07.16,3.21-1.23,4.78-1.86,0,1.17.58,7.43-6.33,9.8-6.92,2.37-10.88,2.43-17.06,1.96s-13.24-7.31-12.57-7.22c.93-.18,1.27.06,1.27.06l6.58-3.23,5.55-1.48,3.78,1.77,7.12-2.5,5.67.36,1.22,2.34Z"/>
      <path class="cls-36" d="M200.6,349.42c3.53.09,6.98.64,9.82,3.38.36.35-.59,3.01-1.16,3.64s-.34,1.44.46,3.69c.8,2.25,1.83,6.03.46,8.1-1.37,2.07-3.67,5.67-5.5,6.39s-3.21,1.26-2.06,1.26,2.18.99,2.98.18.38-1.65,1.62-1.52,1.66,1.5,2.57,1.76,3.44.78,4.52-.1.87-2.28,2.4-2.28,2.98,2.08,4.73,2.35c1.74.26,5.06-.1,5.35-1.04s.37-2.35,1.78-2.31,3.56,1.69,4.64,1.27,3.72-2.6,4.84-2.86c-1.53-.91-4.51-.16-5.51-.72s-1.04-1.47-1.2-2.15-.83-1.73-2.03-1.69-3.65.88-3.56,0-.62-1.6.04-2.31,2.57-1.69,2.74-2.35.62-4.89.12-5.7-2.4-2.22-2.11-3.55,1.62-1.99,2.69-3.03-.04-1.3.62-2.05,7.31-1.97,7.85-2.07c-.86-.45-2.51-.83-4.29-.63s-5.1.52-6.47,2.18c-1.37,1.66-2.24,1.92-2.74,1.89s-1.33-1.47-3.27-1.69-4.23-.59-5.68.39-1.91,1.99-3.52,1.99-5.48-1.59-6.81-1.4-4.32,1-4.32,1Z"/>
      <path class="cls-14" d="M206.36,348.56c-1.07-.16-4.18.33-5.76.86.55-2.13.14-5.62,7.05-8"/>
      <path class="cls-37" d="M217.35,340.78c-.28-1.39-.97-2.6-2.46-3.36s-3.19-1.68-3.27-1.84.6-1.52,1.45-1.49,3.87,2.95,4.19,3.64.6,2.76.6,3.04-.52,0-.52,0Z"/>
      <path class="cls-37" d="M217.29,359.04c-.62,1.06-1.6,3.24-.45,3.29.79.04.78-.57.84-1.09.07-.63-.39-2.2-.39-2.2Z"/>
      <path class="cls-37" d="M220.68,358.66c-.07,1.16.08,3.47,1.16,3.18.75-.2.45-.76.25-1.26-.24-.6-1.42-1.92-1.42-1.92Z"/>
    </g>
    <g>
      <path class="cls-28" d="M87.15,474.5h-27.98c-.55,0-1.06.13-1.52.36h0s-.02.01-.02.01c-.06.03-.12.06-.17.09l-4.23,2.32c-.22.09-.42.2-.61.34h0s0,0,0,0c-.89.61-1.47,1.64-1.47,2.79v56.04c0,1.88,1.52,3.4,3.4,3.4h29.49c.13,0,.25-.01.38-.03h0s.02,0,.02,0c.53-.06,1.03-.24,1.46-.52,0,0,3-2.44,3.18-2.56l-.45.45.45-.45c.9-.61,1.48-1.64,1.48-2.81v-56.04c0-1.88-1.52-3.4-3.4-3.4Z"/>
      <rect class="cls-34" x="52.3" y="478.56" width="32.29" height="60.04" rx="2.62" ry="2.62"/>
      <circle class="cls-28" cx="57.38" cy="518.07" r="2.2"/>
      <circle class="cls-28" cx="61.77" cy="521.79" r="2.2"/>
      <circle class="cls-28" cx="66.16" cy="518.07" r="2.2"/>
      <circle class="cls-28" cx="61.77" cy="514.57" r="2.2"/>
      <path class="cls-28" d="M79.28,528.12h-1.88c-.32,0-.58-.26-.58-.58v-1.74c0-.32-.26-.58-.58-.58h-1.76c-.32,0-.58.26-.58.58v1.74c0,.32-.26.58-.58.58h-1.88c-.32,0-.58.26-.58.58v2.04c0,.32.26.58.58.58h1.88c.32,0,.58.26.58.58v1.74c0,.32.26.58.58.58h1.76c.32,0,.58-.26.58-.58v-1.74c0-.32.26-.58.58-.58h1.88c.32,0,.58-.26.58-.58v-2.04c0-.32-.26-.58-.58-.58Z"/>
      <rect class="cls-41" x="53.09" y="479.73" width="30.54" height="28.86" rx="2.08" ry="2.08"/>
      <g>
        <path class="cls-7" d="M54.99,483.33c-.31,0-.56.25-.56.56v16.74c0,.31.25.56.56.56s.56-.25.56-.56v-16.74c0-.31-.25-.56-.56-.56Z"/>
        <path class="cls-7" d="M62.84,481.14h-7.25c-.31,0-.56.25-.56.56s.25.56.56.56h7.25c.31,0,.56-.25.56-.56s-.25-.56-.56-.56Z"/>
      </g>
    </g>
    <g>
      <path class="cls-15" d="M524.05,379.11v-24.11c2.76-.93,5.05-3.31,4.25-7.41-.64-3.26-4.34-5.54-8.15-6.87-3.79-1.33-7.69-2.39-15.96-2.32-8.27-.07-12.17.99-15.96,2.32-3.81,1.34-7.51,3.61-8.15,6.87-.78,3.97,1.68,4.8,4.32,5.79l-.78,10.44c1.71.07,3.65,1.73,4.52,3.13.9-1.45,2.47-2.42,4.26-2.42,2.8,0,5.07,2.34,5.07,5.23,0,.44-.4.41-.5.82,1.08.96,1.98,2,1.98,3.58,0,.26-.04.5-.07.75.18-.02.91.18,1.09.23,2.76.89,4.52,3.14,4.52,6.03,0,.39,4.84-2.2,4.76-1.83"/>
      <path class="cls-15" d="M531.52,346.71c-.34-2.83-4.13-6.51-8.02-7.84-3.87-1.32-9.16-2.75-17.61-2.68-8.45-.07-11.56.66-15.43,1.98-3.89,1.32-9.8,4.3-10.45,7.53-.8,3.94,3.94,6.25,6.64,7.23v12.03c.44.35.83.77,1.13,1.25.92-1.44,2.52-2.39,4.35-2.39,2.86,0,5.18,2.32,5.18,5.18,0,.44-.07.86-.17,1.26,1.11.95,1.82,2.34,1.82,3.91,0,.25-.04.5-.07.74.19-.02.37-.06.56-.06,2.79,0,5.05,2.21,5.16,4.98h16.32c.29.5.72,1.21.93,1.32.27.16,3.38-1.08,4.47-1.91.02-.01.03-.03.05-.04.03-.02.07-.05.1-.08h0c.11-.1.22-.21.32-.32.43-.51.7-1.17.7-1.89l-.46-22.04c4.03-1.77,4.99-4.05,4.5-8.17Z"/>
      <path class="cls-33" d="M528.79,347.02c-.65-3.23-4.43-5.49-8.32-6.81-3.87-1.32-7.85-2.37-16.3-2.3-8.45-.07-12.43.99-16.3,2.3-3.89,1.32-7.67,3.58-8.32,6.81-.8,3.94,1.38,6.26,4.08,7.25v9.56c1.75.07,3.27,1,4.16,2.38.92-1.44,2.52-2.39,4.35-2.39,2.86,0,5.18,2.32,5.18,5.18,0,.44-.07.86-.17,1.26,1.11.95,1.82,2.34,1.82,3.91,0,.25-.04.5-.07.74.19-.02.37-.06.56-.06,2.86,0,5.18,2.32,5.18,5.18,0,.39-.05.77-.13,1.14h17.05c1.61,0,2.91-1.31,2.91-2.92v-23.9c2.82-.93,5.16-3.28,4.34-7.34Z"/>
    </g>
    <g>
      <path class="cls-1" d="M959.58,354.05c4.28-1.48,9.98-3.94,11.09-3.54,2.23.8,8.42,3.2,10.51-1.36,2.13-4.66-4.6-6.77-4.6-6.77.41-2.23.45-7.61-3-7.79s-5.46,3.42-5.94,4.51c-.48,1.09-.76,4.07-1.02,4.26s-9.57,4.28-9.57,4.28l2.53,6.43Z"/>
      <path class="cls-13" d="M954.59,355.8c-4.19-.88,7.19.2,4.65.76-2.33.52-14.34,6.84-17.27,9.49s-8.51,12.42-11.71,14.33c-3.21,1.91-11.78,5.21-20.84-1.98,9.41-2.19,8.66-6.64,8.39-6.93,2.54-.29,3.57-1.27,4.14-4.23.56-2.96-1.87-5.82-1.87-5.82.9-1.43,1.48-3.81-.48-5.98-1.96-2.17-6.58-.21-6.58-.21,1.71-2.86,5.7-6.82,11.16-6.68,5.46.14,1.21,2.84,6.83,2.67,5.62-.18,2.58,11.34,6.19,5.55,1.58,3.45,2.99,2.56,2.99,2.56,2.3-.94,3.18-.88,3.47-1.23-.85,3.22-.17,2.73-.17,2.73,1.4.48,10.76-7.02,11.09-5.01Z"/>
      <path class="cls-9" d="M968.7,356.62c-4.19-.88-4.93-1.14-7.47-.57-2.33.52-14.34,6.84-17.27,9.49-2.93,2.65-8.51,12.42-11.71,14.33-3.21,1.91-13.76,5.73-22.83-1.47,11-.27,8.66-6.64,8.39-6.93,2.54-.29,5.56-1.79,6.13-4.75.56-2.96-3.18-5.36-3.18-5.36.9-1.43,2.79-4.27.83-6.44-1.96-2.17-8.57.3-8.57.3,1.71-2.86,5.99-9.26,11.45-9.12,5.46.14,14.77,2.5,20.39,2.32s15.26-2.68,18.87-8.47c1.58,3.45.54,5.58.54,5.58,2.3-.94,3.18-.88,3.47-1.23-.85,3.22-4.94,6.74-4.94,6.74,1.4.48,5.56,3.59,5.89,5.59Z"/>
    </g>
    <g>
      <g>
        <path class="cls-43" d="M221.7,158.57c0-8.39-10.9-16.32-10.9-16.32l-.05,29.83c-13.35-9.78-38.06-15.6-66.26-15.6-.11,0-.22,0-.33,0-.11,0-.22,0-.33,0-28.37,0-52.87,5.22-66.16,14.6l-1.76-27.83s-8.91,6.93-8.91,15.32c0,5.9-.5,19.35.09,28.84-.01.24-.03.48-.03.72-.06,2.98.39,5.82,1.28,8.51,1.46,6.09,6.13,11.71,13.2,16.5,13.97,9.9,36.72,15.5,62.31,15.5.11,0,.22,0,.33,0,.11,0,.22,0,.34,0,2.95,0,5.87-.1,8.74-.28.02,0,.03,0,.05,0,.4-.03.79-.05,1.19-.08,35.52-2.41,60.86-16.77,66.27-33.62,1.83-7.86.97-28.39.97-36.08Z"/>
        <path class="cls-19" d="M219.05,161.85c0,19.92-36.99,31.62-69.81,31.74-38.69.14-70.3-11.81-70.3-31.74s31.36-36.08,70.05-36.08,70.05,16.15,70.05,36.08Z"/>
        <path class="cls-43" d="M220.64,159.84c0,19.92-34.31,32.58-76.65,32.58s-76.67-12.66-76.67-32.58,34.32-36.08,76.66-36.08,76.66,16.15,76.66,36.08Z"/>
        <ellipse class="cls-35" cx="143.98" cy="159.84" rx="43.9" ry="20.66"/>
        <ellipse class="cls-19" cx="143.98" cy="159.84" rx="25.64" ry="12.06"/>
        <path class="cls-19" d="M136.06,202.05c-.18,8.34.18,16.32.35,18.1.47-4.08-.35-18.1-.35-18.1Z"/>
        <path class="cls-19" d="M153.69,202.05c-.18,8.34.18,16.32.35,18.1.47-4.08-.35-18.1-.35-18.1Z"/>
        <path class="cls-19" d="M170.45,201.91c-.18,8.34.18,16.32.35,18.1.47-4.08-.35-18.1-.35-18.1Z"/>
        <path class="cls-19" d="M186.91,196.37c-.18,8.34.18,16.32.35,18.1.47-4.08-.35-18.1-.35-18.1Z"/>
        <path class="cls-19" d="M205.71,186.61c-.18,8.34.18,16.32.35,18.1.47-4.08-.35-18.1-.35-18.1Z"/>
        <path class="cls-19" d="M112.01,199.72c-.18,8.34.18,16.32.35,18.1.47-4.08-.35-18.1-.35-18.1Z"/>
        <path class="cls-19" d="M93.65,194.48c-.18,8.34.18,16.32.35,18.1.47-4.08-.35-18.1-.35-18.1Z"/>
        <path class="cls-19" d="M77.18,182.96c-.18,8.34.18,16.32.35,18.1.47-4.08-.35-18.1-.35-18.1Z"/>
      </g>
      <g>
        <path class="cls-43" d="M237.63,116.35c0-8.39-10.9-16.32-10.9-16.32l-.05,29.83c-13.35-9.78-38.06-15.6-66.26-15.6-.11,0-.22,0-.33,0-.11,0-.22,0-.33,0-28.37,0-52.87,5.22-66.16,14.6l-1.76-27.83s-8.91,6.93-8.91,15.32c0,5.9-.5,19.35.09,28.84-.01.24-.03.48-.03.72-.06,2.98.39,5.82,1.28,8.51,1.46,6.09,6.13,11.71,13.2,16.5,13.97,9.9,36.72,15.5,62.31,15.5.11,0,.22,0,.33,0,.11,0,.22,0,.34,0,2.95,0,5.87-.1,8.74-.28.02,0,.03,0,.05,0,.4-.03.79-.05,1.19-.08,35.52-2.41,60.86-16.77,66.27-33.62,1.83-7.86.97-28.39.97-36.08Z"/>
        <path class="cls-19" d="M234.98,119.63c0,19.92-36.99,31.62-69.81,31.74-38.69.14-70.3-11.81-70.3-31.74s31.36-36.08,70.05-36.08,70.05,16.15,70.05,36.08Z"/>
        <path class="cls-43" d="M236.56,117.62c0,19.92-34.31,32.58-76.65,32.58s-76.67-12.66-76.67-32.58,34.32-36.08,76.66-36.08,76.66,16.15,76.66,36.08Z"/>
        <ellipse class="cls-35" cx="159.9" cy="117.62" rx="43.9" ry="20.66"/>
        <ellipse class="cls-19" cx="159.9" cy="117.62" rx="25.64" ry="12.06"/>
        <path class="cls-19" d="M151.98,159.84c-.18,8.34.18,16.32.35,18.1.47-4.08-.35-18.1-.35-18.1Z"/>
        <path class="cls-19" d="M169.61,159.84c-.18,8.34.18,16.32.35,18.1.47-4.08-.35-18.1-.35-18.1Z"/>
        <path class="cls-19" d="M186.37,159.69c-.18,8.34.18,16.32.35,18.1.47-4.08-.35-18.1-.35-18.1Z"/>
        <path class="cls-19" d="M202.84,154.15c-.18,8.34.18,16.32.35,18.1.47-4.08-.35-18.1-.35-18.1Z"/>
        <path class="cls-19" d="M221.64,144.39c-.18,8.34.18,16.32.35,18.1.47-4.08-.35-18.1-.35-18.1Z"/>
        <path class="cls-19" d="M127.94,157.51c-.18,8.34.18,16.32.35,18.1.47-4.08-.35-18.1-.35-18.1Z"/>
        <path class="cls-19" d="M109.57,152.26c-.18,8.34.18,16.32.35,18.1.47-4.08-.35-18.1-.35-18.1Z"/>
        <path class="cls-19" d="M93.11,140.75c-.18,8.34.18,16.32.35,18.1.47-4.08-.35-18.1-.35-18.1Z"/>
      </g>
      <g>
        <path class="cls-43" d="M216.38,76.98c0-8.39-10.9-16.32-10.9-16.32l-.05,29.83c-13.35-9.78-38.06-15.6-66.26-15.6-.11,0-.22,0-.33,0-.11,0-.22,0-.33,0-28.37,0-52.87,5.22-66.16,14.6l-1.76-27.83s-8.91,6.93-8.91,15.32c0,5.9-.5,19.35.09,28.84-.01.24-.03.48-.03.72-.06,2.98.39,5.82,1.28,8.51,1.46,6.09,6.13,11.71,13.2,16.5,13.97,9.9,36.72,15.5,62.31,15.5.11,0,.22,0,.33,0,.11,0,.22,0,.34,0,2.95,0,5.87-.1,8.74-.28.02,0,.03,0,.05,0,.4-.03.79-.05,1.19-.08,35.52-2.41,60.86-16.77,66.27-33.62,1.83-7.86.97-28.39.97-36.08Z"/>
        <path class="cls-19" d="M213.73,80.26c0,19.92-36.99,31.62-69.81,31.74-38.69.14-70.3-11.81-70.3-31.74s31.36-36.08,70.05-36.08,70.05,16.15,70.05,36.08Z"/>
        <path class="cls-43" d="M215.31,78.25c0,19.92-34.31,32.58-76.65,32.58s-76.67-12.66-76.67-32.58,34.32-36.08,76.66-36.08,76.66,16.15,76.66,36.08Z"/>
        <ellipse class="cls-35" cx="138.65" cy="78.25" rx="43.9" ry="20.66"/>
        <ellipse class="cls-19" cx="138.65" cy="78.25" rx="25.64" ry="12.06"/>
        <path class="cls-19" d="M130.73,120.47c-.18,8.34.18,16.32.35,18.1.47-4.08-.35-18.1-.35-18.1Z"/>
        <path class="cls-19" d="M148.36,120.47c-.18,8.34.18,16.32.35,18.1.47-4.08-.35-18.1-.35-18.1Z"/>
        <path class="cls-19" d="M165.12,120.32c-.18,8.34.18,16.32.35,18.1.47-4.08-.35-18.1-.35-18.1Z"/>
        <path class="cls-19" d="M181.59,114.78c-.18,8.34.18,16.32.35,18.1.47-4.08-.35-18.1-.35-18.1Z"/>
        <path class="cls-19" d="M200.39,105.02c-.18,8.34.18,16.32.35,18.1.47-4.08-.35-18.1-.35-18.1Z"/>
        <path class="cls-19" d="M106.68,118.14c-.18,8.34.18,16.32.35,18.1.47-4.08-.35-18.1-.35-18.1Z"/>
        <path class="cls-19" d="M88.32,112.89c-.18,8.34.18,16.32.35,18.1.47-4.08-.35-18.1-.35-18.1Z"/>
        <path class="cls-19" d="M71.86,101.38c-.18,8.34.18,16.32.35,18.1.47-4.08-.35-18.1-.35-18.1Z"/>
      </g>
    </g>
    <g>
      <path class="cls-43" d="M224.72,1062.18c0-8.92-11.59-17.35-11.59-17.35l-.05,31.72c-14.2-10.4-40.46-16.59-70.45-16.59-.12,0-.23,0-.35,0-.12,0-.23,0-.35,0-30.17,0-56.21,5.54-70.34,15.52l-1.88-29.59s-9.47,7.37-9.47,16.29c0,6.28-.53,20.57.09,30.67-.02.25-.03.51-.04.76-.06,3.17.41,6.18,1.36,9.05,1.55,6.47,6.51,12.45,14.03,17.54,14.86,10.53,39.05,16.48,66.25,16.48.12,0,.23,0,.35,0,.12,0,.24,0,.36,0,3.14,0,6.24-.1,9.29-.29.02,0,.03,0,.05,0,.42-.03.84-.05,1.26-.08,37.77-2.57,64.71-17.83,70.46-35.75,1.95-8.35,1.03-30.18,1.03-38.37Z"/>
      <path class="cls-19" d="M221.91,1065.66c0,21.18-39.33,33.62-74.22,33.74-41.14.15-74.75-12.56-74.75-33.74s33.35-38.36,74.49-38.36,74.49,17.17,74.49,38.36Z"/>
      <path class="cls-43" d="M223.59,1063.53c0,21.18-36.48,34.64-81.49,34.64s-81.52-13.46-81.52-34.64,36.49-38.36,81.51-38.36,81.51,17.17,81.51,38.36Z"/>
      <ellipse class="cls-35" cx="142.08" cy="1063.53" rx="46.68" ry="21.97"/>
      <ellipse class="cls-19" cx="142.08" cy="1063.53" rx="27.26" ry="12.83"/>
      <path class="cls-19" d="M133.66,1108.41c-.19,8.87.19,17.35.38,19.24.5-4.34-.38-19.24-.38-19.24Z"/>
      <path class="cls-19" d="M152.41,1108.41c-.19,8.87.19,17.35.38,19.24.5-4.34-.38-19.24-.38-19.24Z"/>
      <path class="cls-19" d="M170.22,1108.26c-.19,8.87.19,17.35.38,19.24.5-4.34-.38-19.24-.38-19.24Z"/>
      <path class="cls-19" d="M187.73,1102.37c-.19,8.87.19,17.35.38,19.24.5-4.34-.38-19.24-.38-19.24Z"/>
      <path class="cls-19" d="M207.72,1091.99c-.19,8.87.19,17.35.38,19.24.5-4.34-.38-19.24-.38-19.24Z"/>
      <path class="cls-19" d="M108.09,1105.93c-.19,8.87.19,17.35.38,19.24.5-4.34-.38-19.24-.38-19.24Z"/>
      <path class="cls-19" d="M88.57,1100.36c-.19,8.87.19,17.35.38,19.24.5-4.34-.38-19.24-.38-19.24Z"/>
      <path class="cls-19" d="M71.06,1088.11c-.19,8.87.19,17.35.38,19.24.5-4.34-.38-19.24-.38-19.24Z"/>
    </g>
    <g>
      <g>
        <path class="cls-43" d="M779.17,146.11c0-8.86-11.51-17.23-11.51-17.23l-.05,31.5c-14.1-10.32-40.18-16.47-69.96-16.47-.12,0-.23,0-.35,0-.12,0-.23,0-.35,0-29.95,0-55.82,5.51-69.85,15.41l-1.86-29.38s-9.4,7.31-9.4,16.17c0,6.23-.53,20.43.09,30.45-.02.25-.03.5-.04.76-.06,3.14.41,6.14,1.35,8.99,1.54,6.42,6.47,12.37,13.93,17.42,14.75,10.46,38.77,16.36,65.78,16.36.12,0,.23,0,.34,0,.12,0,.24,0,.35,0,3.12,0,6.2-.1,9.22-.29.02,0,.03,0,.05,0,.42-.03.84-.05,1.25-.08,37.5-2.55,64.26-17.71,69.96-35.5,1.93-8.3,1.02-29.97,1.02-38.1Z"/>
        <path class="cls-19" d="M776.37,149.57c0,21.04-39.05,33.38-73.7,33.51-40.85.15-74.22-12.47-74.22-33.51s33.11-38.09,73.96-38.09,73.96,17.05,73.96,38.09Z"/>
        <path class="cls-43" d="M778.04,147.45c0,21.04-36.22,34.4-80.92,34.4s-80.95-13.36-80.95-34.4,36.24-38.09,80.94-38.09,80.94,17.05,80.94,38.09Z"/>
        <ellipse class="cls-35" cx="697.11" cy="147.45" rx="46.35" ry="21.81"/>
        <ellipse class="cls-19" cx="697.11" cy="147.45" rx="27.07" ry="12.74"/>
        <path class="cls-19" d="M688.75,192.02c-.19,8.8.19,17.23.37,19.11.5-4.31-.37-19.11-.37-19.11Z"/>
        <path class="cls-19" d="M707.36,192.02c-.19,8.8.19,17.23.37,19.11.5-4.31-.37-19.11-.37-19.11Z"/>
        <path class="cls-19" d="M725.06,191.87c-.19,8.8.19,17.23.37,19.11.5-4.31-.37-19.11-.37-19.11Z"/>
        <path class="cls-19" d="M742.44,186.02c-.19,8.8.19,17.23.37,19.11.5-4.31-.37-19.11-.37-19.11Z"/>
        <path class="cls-19" d="M762.29,175.71c-.19,8.8.19,17.23.37,19.11.5-4.31-.37-19.11-.37-19.11Z"/>
        <path class="cls-19" d="M663.36,189.56c-.19,8.8.19,17.23.37,19.11.5-4.31-.37-19.11-.37-19.11Z"/>
        <path class="cls-19" d="M643.97,184.02c-.19,8.8.19,17.23.37,19.11.5-4.31-.37-19.11-.37-19.11Z"/>
        <path class="cls-19" d="M626.59,171.87c-.19,8.8.19,17.23.37,19.11.5-4.31-.37-19.11-.37-19.11Z"/>
      </g>
      <g>
        <path class="cls-43" d="M795.98,101.54c0-8.86-11.51-17.23-11.51-17.23l-.05,31.5c-14.1-10.32-40.18-16.47-69.96-16.47-.12,0-.23,0-.35,0-.12,0-.23,0-.35,0-29.95,0-55.82,5.51-69.85,15.41l-1.86-29.38s-9.4,7.31-9.4,16.17c0,6.23-.53,20.43.09,30.45-.02.25-.03.5-.04.76-.06,3.14.41,6.14,1.35,8.99,1.54,6.42,6.47,12.37,13.93,17.42,14.75,10.46,38.77,16.36,65.78,16.36.12,0,.23,0,.34,0,.12,0,.24,0,.35,0,3.12,0,6.2-.1,9.22-.29.02,0,.03,0,.05,0,.42-.03.84-.05,1.25-.08,37.5-2.55,64.26-17.71,69.96-35.5,1.93-8.3,1.02-29.97,1.02-38.1Z"/>
        <path class="cls-19" d="M793.19,105c0,21.04-39.05,33.38-73.7,33.51-40.85.15-74.22-12.47-74.22-33.51s33.11-38.09,73.96-38.09,73.96,17.05,73.96,38.09Z"/>
        <path class="cls-43" d="M794.86,102.88c0,21.04-36.22,34.4-80.92,34.4s-80.95-13.36-80.95-34.4,36.24-38.09,80.94-38.09,80.94,17.05,80.94,38.09Z"/>
        <ellipse class="cls-35" cx="713.92" cy="102.88" rx="46.35" ry="21.81"/>
        <ellipse class="cls-19" cx="713.92" cy="102.88" rx="27.07" ry="12.74"/>
        <path class="cls-19" d="M705.56,147.45c-.19,8.8.19,17.23.37,19.11.5-4.31-.37-19.11-.37-19.11Z"/>
        <path class="cls-19" d="M724.17,147.45c-.19,8.8.19,17.23.37,19.11.5-4.31-.37-19.11-.37-19.11Z"/>
        <path class="cls-19" d="M741.87,147.3c-.19,8.8.19,17.23.37,19.11.5-4.31-.37-19.11-.37-19.11Z"/>
        <path class="cls-19" d="M759.25,141.45c-.19,8.8.19,17.23.37,19.11.5-4.31-.37-19.11-.37-19.11Z"/>
        <path class="cls-19" d="M779.1,131.14c-.19,8.8.19,17.23.37,19.11.5-4.31-.37-19.11-.37-19.11Z"/>
        <path class="cls-19" d="M680.17,144.99c-.19,8.8.19,17.23.37,19.11.5-4.31-.37-19.11-.37-19.11Z"/>
        <path class="cls-19" d="M660.79,139.45c-.19,8.8.19,17.23.37,19.11.5-4.31-.37-19.11-.37-19.11Z"/>
        <path class="cls-19" d="M643.4,127.3c-.19,8.8.19,17.23.37,19.11.5-4.31-.37-19.11-.37-19.11Z"/>
      </g>
      <g>
        <path class="cls-43" d="M773.55,59.97c0-8.86-11.51-17.23-11.51-17.23l-.05,31.5c-14.1-10.32-40.18-16.47-69.96-16.47-.12,0-.23,0-.35,0-.12,0-.23,0-.35,0-29.95,0-55.82,5.51-69.85,15.41l-1.86-29.38s-9.4,7.31-9.4,16.17c0,6.23-.53,20.43.09,30.45-.02.25-.03.5-.04.76-.06,3.14.41,6.14,1.35,8.99,1.54,6.42,6.47,12.37,13.93,17.42,14.75,10.46,38.77,16.36,65.78,16.36.12,0,.23,0,.34,0,.12,0,.24,0,.35,0,3.12,0,6.2-.1,9.22-.29.02,0,.03,0,.05,0,.42-.03.84-.05,1.25-.08,37.5-2.55,64.26-17.71,69.96-35.5,1.93-8.3,1.02-29.97,1.02-38.1Z"/>
        <path class="cls-19" d="M770.75,63.43c0,21.04-39.05,33.38-73.7,33.51-40.85.15-74.22-12.47-74.22-33.51s33.11-38.09,73.96-38.09,73.96,17.05,73.96,38.09Z"/>
        <path class="cls-43" d="M772.42,61.31c0,21.04-36.22,34.4-80.92,34.4s-80.95-13.36-80.95-34.4,36.24-38.09,80.94-38.09,80.94,17.05,80.94,38.09Z"/>
        <ellipse class="cls-35" cx="691.48" cy="61.31" rx="46.35" ry="21.81"/>
        <ellipse class="cls-19" cx="691.48" cy="61.31" rx="27.07" ry="12.74"/>
        <path class="cls-19" d="M683.12,105.88c-.19,8.8.19,17.23.37,19.11.5-4.31-.37-19.11-.37-19.11Z"/>
        <path class="cls-19" d="M701.74,105.88c-.19,8.8.19,17.23.37,19.11.5-4.31-.37-19.11-.37-19.11Z"/>
        <path class="cls-19" d="M719.43,105.73c-.19,8.8.19,17.23.37,19.11.5-4.31-.37-19.11-.37-19.11Z"/>
        <path class="cls-19" d="M736.82,99.88c-.19,8.8.19,17.23.37,19.11.5-4.31-.37-19.11-.37-19.11Z"/>
        <path class="cls-19" d="M756.66,89.58c-.19,8.8.19,17.23.37,19.11.5-4.31-.37-19.11-.37-19.11Z"/>
        <path class="cls-19" d="M657.73,103.42c-.19,8.8.19,17.23.37,19.11.5-4.31-.37-19.11-.37-19.11Z"/>
        <path class="cls-19" d="M638.35,97.88c-.19,8.8.19,17.23.37,19.11.5-4.31-.37-19.11-.37-19.11Z"/>
        <path class="cls-19" d="M620.96,85.73c-.19,8.8.19,17.23.37,19.11.5-4.31-.37-19.11-.37-19.11Z"/>
      </g>
      <g>
        <path class="cls-43" d="M835.15,228.33c7.62-4.52,8.94-18.69,8.94-18.69l-27.11,16.04c1.68-17.39-6.35-42.96-21.55-68.56-.06-.1-.12-.2-.18-.3-.06-.1-.12-.2-.18-.3-15.29-25.75-33.23-45.18-48.91-52.19l24.31-16.6s-11.09-4.35-18.71.17c-5.36,3.18-17.84,9.97-26.14,15.63-.22.12-.45.23-.67.36-2.73,1.55-5.07,3.49-7.04,5.75-4.74,4.6-7.33,11.88-7.86,20.87-1.46,18.02,5.73,41.69,19.52,64.92.06.1.12.2.18.3.06.1.12.2.18.31,1.59,2.68,3.25,5.28,4.96,7.78,0,.01.02.03.03.04.24.35.47.69.71,1.03,21.34,30.94,48.03,46.21,66.24,42.03,8.12-2.57,26.29-14.42,33.28-18.57Z"/>
        <path class="cls-19" d="M830.75,227.7c-18.09,10.74-48.64-16.53-66.44-46.26-20.98-35.05-27.17-70.19-9.09-80.93,18.09-10.74,49.66,9.03,70.51,44.15,20.86,35.12,23.1,72.3,5.01,83.04Z"/>
        <path class="cls-43" d="M833.42,228.05c-18.09,10.74-48.07-13.58-70.89-52.02-22.82-38.43-29.84-76.43-11.75-87.17,18.09-10.74,51.25,11.71,74.07,50.15,22.82,38.43,26.66,78.3,8.57,89.04Z"/>
        <ellipse class="cls-35" cx="792.1" cy="158.46" rx="21.81" ry="46.35" transform="translate(30.12 426.63) rotate(-30.7)"/>
        <ellipse class="cls-19" cx="792.1" cy="158.46" rx="12.74" ry="27.07" transform="translate(30.12 426.63) rotate(-30.7)"/>
        <path class="cls-19" d="M749.51,174.02c-7.67,4.33-14.72,8.96-16.24,10.08,3.96-1.77,16.24-10.08,16.24-10.08Z"/>
        <path class="cls-19" d="M759.01,190.03c-7.67,4.33-14.72,8.96-16.24,10.08,3.96-1.77,16.24-10.08,16.24-10.08Z"/>
        <path class="cls-19" d="M768.18,205.17c-7.67,4.33-14.72,8.96-16.24,10.08,3.96-1.77,16.24-10.08,16.24-10.08Z"/>
        <path class="cls-19" d="M782.08,217.13c-7.67,4.33-14.72,8.96-16.24,10.08,3.96-1.77,16.24-10.08,16.24-10.08Z"/>
        <path class="cls-19" d="M801.08,228.93c-7.67,4.33-14.72,8.96-16.24,10.08,3.96-1.77,16.24-10.08,16.24-10.08Z"/>
        <path class="cls-19" d="M738.66,150.94c-7.67,4.33-14.72,8.96-16.24,10.08,3.96-1.77,16.24-10.08,16.24-10.08Z"/>
        <path class="cls-19" d="M733.53,131.44c-7.67,4.33-14.72,8.96-16.24,10.08,3.96-1.77,16.24-10.08,16.24-10.08Z"/>
        <path class="cls-19" d="M735.1,110.29c-7.67,4.33-14.72,8.96-16.24,10.08,3.96-1.77,16.24-10.08,16.24-10.08Z"/>
      </g>
    </g>
    <g>
      <g>
        <path class="cls-43" d="M477.73,81.93c0-8.86-11.51-17.23-11.51-17.23l-.05,31.5c-14.1-10.32-40.18-16.47-69.96-16.47-.12,0-.23,0-.35,0-.12,0-.23,0-.35,0-29.95,0-55.82,5.51-69.85,15.41l-1.86-29.38s-9.4,7.31-9.4,16.17c0,6.23-.53,20.43.09,30.45-.02.25-.03.5-.04.76-.06,3.14.41,6.14,1.35,8.99,1.54,6.42,6.47,12.37,13.93,17.42,14.75,10.46,38.77,16.36,65.78,16.36.12,0,.23,0,.34,0,.12,0,.24,0,.35,0,3.12,0,6.2-.1,9.22-.29.02,0,.03,0,.05,0,.42-.03.84-.05,1.25-.08,37.5-2.55,64.26-17.71,69.96-35.5,1.93-8.3,1.02-29.97,1.02-38.1Z"/>
        <path class="cls-19" d="M474.93,85.4c0,21.04-39.05,33.38-73.7,33.51-40.85.15-74.22-12.47-74.22-33.51s33.11-38.09,73.96-38.09,73.96,17.05,73.96,38.09Z"/>
        <path class="cls-43" d="M476.6,83.27c0,21.04-36.22,34.4-80.92,34.4s-80.95-13.36-80.95-34.4,36.24-38.09,80.94-38.09,80.94,17.05,80.94,38.09Z"/>
        <ellipse class="cls-35" cx="395.66" cy="83.27" rx="46.35" ry="21.81"/>
        <ellipse class="cls-19" cx="395.66" cy="83.27" rx="27.07" ry="12.74"/>
        <path class="cls-19" d="M387.3,127.85c-.19,8.8.19,17.23.37,19.11.5-4.31-.37-19.11-.37-19.11Z"/>
        <path class="cls-19" d="M405.92,127.85c-.19,8.8.19,17.23.37,19.11.5-4.31-.37-19.11-.37-19.11Z"/>
        <path class="cls-19" d="M423.61,127.69c-.19,8.8.19,17.23.37,19.11.5-4.31-.37-19.11-.37-19.11Z"/>
        <path class="cls-19" d="M441,121.84c-.19,8.8.19,17.23.37,19.11.5-4.31-.37-19.11-.37-19.11Z"/>
        <path class="cls-19" d="M460.84,111.54c-.19,8.8.19,17.23.37,19.11.5-4.31-.37-19.11-.37-19.11Z"/>
        <path class="cls-19" d="M361.91,125.38c-.19,8.8.19,17.23.37,19.11.5-4.31-.37-19.11-.37-19.11Z"/>
        <path class="cls-19" d="M342.53,119.84c-.19,8.8.19,17.23.37,19.11.5-4.31-.37-19.11-.37-19.11Z"/>
        <path class="cls-19" d="M325.14,107.69c-.19,8.8.19,17.23.37,19.11.5-4.31-.37-19.11-.37-19.11Z"/>
      </g>
      <g>
        <path class="cls-43" d="M557.69,151.65c0-8.86-11.51-17.23-11.51-17.23l-.05,31.5c-14.1-10.32-40.18-16.47-69.96-16.47-.12,0-.23,0-.35,0-.12,0-.23,0-.35,0-29.95,0-55.82,5.51-69.85,15.41l-1.86-29.38s-9.4,7.31-9.4,16.17c0,6.23-.53,20.43.09,30.45-.02.25-.03.5-.04.76-.06,3.14.41,6.14,1.35,8.99,1.54,6.42,6.47,12.37,13.93,17.42,14.75,10.46,38.77,16.36,65.78,16.36.12,0,.23,0,.34,0,.12,0,.24,0,.35,0,3.12,0,6.2-.1,9.22-.29.02,0,.03,0,.05,0,.42-.03.84-.05,1.25-.08,37.5-2.55,64.26-17.71,69.96-35.5,1.93-8.3,1.02-29.97,1.02-38.1Z"/>
        <path class="cls-19" d="M554.89,155.11c0,21.04-39.05,33.38-73.7,33.51-40.85.15-74.22-12.47-74.22-33.51s33.11-38.09,73.96-38.09,73.96,17.05,73.96,38.09Z"/>
        <path class="cls-43" d="M556.56,152.99c0,21.04-36.22,34.4-80.92,34.4s-80.95-13.36-80.95-34.4,36.24-38.09,80.94-38.09,80.94,17.05,80.94,38.09Z"/>
        <ellipse class="cls-35" cx="475.63" cy="152.99" rx="46.35" ry="21.81"/>
        <ellipse class="cls-19" cx="475.63" cy="152.99" rx="27.07" ry="12.74"/>
        <path class="cls-19" d="M467.27,197.56c-.19,8.8.19,17.23.37,19.11.5-4.31-.37-19.11-.37-19.11Z"/>
        <path class="cls-19" d="M485.88,197.56c-.19,8.8.19,17.23.37,19.11.5-4.31-.37-19.11-.37-19.11Z"/>
        <path class="cls-19" d="M503.58,197.41c-.19,8.8.19,17.23.37,19.11.5-4.31-.37-19.11-.37-19.11Z"/>
        <path class="cls-19" d="M520.96,191.56c-.19,8.8.19,17.23.37,19.11.5-4.31-.37-19.11-.37-19.11Z"/>
        <path class="cls-19" d="M540.81,181.25c-.19,8.8.19,17.23.37,19.11.5-4.31-.37-19.11-.37-19.11Z"/>
        <path class="cls-19" d="M441.88,195.1c-.19,8.8.19,17.23.37,19.11.5-4.31-.37-19.11-.37-19.11Z"/>
        <path class="cls-19" d="M422.49,189.56c-.19,8.8.19,17.23.37,19.11.5-4.31-.37-19.11-.37-19.11Z"/>
        <path class="cls-19" d="M405.11,177.4c-.19,8.8.19,17.23.37,19.11.5-4.31-.37-19.11-.37-19.11Z"/>
      </g>
    </g>
    <g>
      <path class="cls-38" d="M628.98,370.52c-.99,2.19-.31,6.51.21,7.14s9.86,6.91,27.16,5.34,20.99-2.26,21.46-3.41c.47-1.16,2.42-7.63.39-8.14-2.03-.51-11.21,2.18-15.65,1.11s-33.57-2.03-33.57-2.03Z"/>
      <path class="cls-30" d="M631.67,366.18c-6.77,2.69-8.79,2.31-7.57,4.25s1.73-.15,3.71,1.11.63,3.9,3.39,4.06,2.49-2.29,5.48-1.39c2.99.9,6.7,3.92,7.18,3.05s-2.86-4.34.47-3.46c3.33.89,1.48,1.46,3.12,1.61s3.49-.75,3.96.29,1.65,2.74,3.8,1.59,2.01-3.33,5.73-2.22c3.71,1.11,4.09,2.13,7.52.79s1.31-2.87,4.78-2.05c3.47.82,5.87,1.42,6.71-.24s.67-2.61,1.44-2.94,2.07-2.41,1.54-3.25-.07-1.26-6.29-1.89-44.97.68-44.97.68Z"/>
      <path class="cls-17" d="M627.23,365.89c0,1.52.84,4.09,4.13,4.56,5.88.85,23.03,1.37,24.7,1.45,2.09.1,19.51-.11,22.68-1.44,3.17-1.33,1.47-5.86,0-7.24s-.14.6-8.13.01c-7.99-.59-26.85-1.52-29.65-2.24-2.8-.73-9.32.44-10.08,1s-3.65,1.95-3.65,3.9Z"/>
      <path class="cls-31" d="M658.83,373.23c-.75-.23-10.1-4.66-13.75-5.28-3.79-.64-22.22-4.19-22.41-5.38,1.63-1.45,6.34-4.18,10.09-6.52l46.48,4.56c.73.27,5-.23,5.15.36.15.58-24.29,12.03-25.56,12.26Z"/>
      <ellipse class="cls-16" cx="656.85" cy="366.61" rx="8.9" ry="3.68"/>
      <ellipse class="cls-16" cx="636.48" cy="363.59" rx="3.68" ry="8.9" transform="translate(132.48 895.84) rotate(-76.3)"/>
      <ellipse class="cls-16" cx="670.46" cy="363.1" rx="8.9" ry="3.68" transform="translate(-64.44 159.94) rotate(-12.99)"/>
      <path class="cls-6" d="M655.82,334.17c-4.61-.14-8.46.47-11.83,1.36.1.47.11.81.11,1.31,0,2.31-1.14,4.34-2.88,5.59.75,1.11,1.2,2.44,1.2,3.88,0,3.81-3.01,6.84-6.83,6.84-.35,0-.52-.13-.86-.19-1.26,1.65-3.48,2.88-5.72,2.88-.72,0-.7-.14-1.36-.35-.1.92,1.94,1.76,1.92,2.69-.08,2.84,14.37,8.36,26.68,7.75,12.01-.6,24.86-2.25,25.6-7.15,1.01-6.64-4.37-23.94-26.03-24.62Z"/>
      <path class="cls-13" d="M656.52,334.17c-4.61-.14-8.52.32-11.88,1.22.1.47.16.96.16,1.45,0,2.31-1.14,4.34-2.88,5.59.75,1.11,1.2,2.44,1.2,3.88,0,3.81-3.09,6.9-6.9,6.9-.35,0-.69-.05-1.03-.1-1.26,1.65-3.23,2.74-5.47,2.74-.72,0-1.41-.14-2.06-.35-.1.92-.17,1.84-.2,2.77-.08,2.84,17.18,8.28,29.5,7.67,12.01-.6,24.86-2.25,25.6-7.15,1.01-6.64-4.37-23.94-26.03-24.62Z"/>
      <path class="cls-4" d="M663.63,350.26c.62.86,2.41-.24,1.57-.34s-1.57.34-1.57.34Z"/>
      <path class="cls-4" d="M651.76,346.8c.62.86,2.41-.24,1.57-.34s-1.57.34-1.57.34Z"/>
      <path class="cls-4" d="M658.3,341.73c.62.86,2.41-.24,1.57-.34s-1.57.34-1.57.34Z"/>
      <path class="cls-4" d="M658.09,346.39c.62.86,2.41-.24,1.57-.34s-1.57.34-1.57.34Z"/>
      <path class="cls-4" d="M642.87,343.72c.62.86,2.41-.24,1.57-.34s-1.57.34-1.57.34Z"/>
      <path class="cls-4" d="M644.91,349.89c.62.86,2.41-.24,1.57-.34s-1.57.34-1.57.34Z"/>
      <path class="cls-4" d="M652.07,339.64c.62.86,2.41-.24,1.57-.34s-1.57.34-1.57.34Z"/>
      <path class="cls-4" d="M665.67,344.71c.62.86,2.41-.24,1.57-.34s-1.57.34-1.57.34Z"/>
      <path class="cls-4" d="M649.35,343.83c.62.86,2.41-.24,1.57-.34s-1.57.34-1.57.34Z"/>
      <path class="cls-4" d="M656.87,351.82c.62.86,2.41-.24,1.57-.34s-1.57.34-1.57.34Z"/>
    </g>
    <g>
      <rect class="cls-24" x="803.7" y="335.12" width="3" height="60.08" transform="translate(100.81 899.51) rotate(-61.58)"/>
      <path class="cls-5" d="M822.09,360.78c-1.26-4.57-4.66-5.84-5.01-8.39-.34-2.54.53-15.38-2-16.55-2.53-1.17-6.41,3.66-9.48,1.7-1.04-.66-2.17-2.37-3.39-4.33-.59,1.96-2.08,3.61-4.16,4.31-1.47.49-2.97.41-4.32-.08-.68,1.75-2.07,3.22-3.99,3.86-3.43,1.15-7.14-.69-8.29-4.11-.04-.12-.05-.25-.08-.37-2.93.24-5.75-1.51-6.73-4.42-.31-.91-.39-1.83-.3-2.72-1.6.62-2.85.48-3.74.6-1.08.15-5.66-.1-5.54,4.42.12,4.52,1.53,2.25,1.92,6.12.4,3.87-1.28,8.14-1.76,8.76-2.52,3.24-6.04,5.17-5.38,10.04.65,4.87,2.9,13.63,8.13,17.24,5.23,3.61,6.65,2.99,7.76,4.78,1.1,1.79,2.39,6.58,6.63,6.01,4.24-.57,10.59-4.65,13.55-5.05s11.95,2.28,15.41.74c3.46-1.54,4.26-6.82,6.67-9.74,2.41-2.91,5.36-8.26,4.1-12.84Z"/>
    </g>
    <g>
      <rect class="cls-22" x="224.99" y="548.19" width="4.58" height="1.62" rx=".31" ry=".31" transform="translate(-147.46 87.89) rotate(-16.61)"/>
      <rect class="cls-22" x="226.04" y="552.28" width="4.58" height="1.62" rx=".31" ry=".31" transform="translate(-148.59 88.36) rotate(-16.61)"/>
      <path class="cls-44" d="M267.7,551.32c-1.11,0-2.35-.05-3.71-.16-7.52-.6-12.87-1.12-16.77-1.49-7.61-.74-9.66-.94-11.81-.18l-.78-2.24c2.64-.93,4.8-.72,12.82.06,3.89.38,9.23.89,16.73,1.49,8.34.66,9.04-.98,9.1-1.17.22-.79-.92-2.82-4.85-5.96-3.17-2.53-7.07-4.91-9.35-6.05-1.69-.84-3.36-1.38-4.84-1.86-2.55-.82-4.75-1.53-5.48-3.48-.59-1.58-.04-3.6,1.76-6.57,1.7-2.79,4.14-5.47,6.5-8.06,4.82-5.3,9.38-10.31,8.07-15.99-.28-1.22-.7-1.94-1.24-2.14-1.58-.59-5.21,2.04-8.72,4.59-3.57,2.59-7.61,5.52-11.78,7.05l-.82-2.23c3.86-1.42,7.76-4.25,11.2-6.74,4.56-3.31,8.17-5.93,10.95-4.89,1.36.51,2.25,1.76,2.73,3.83,1.59,6.89-3.6,12.6-8.63,18.12-2.29,2.51-4.65,5.11-6.23,7.7-1.66,2.73-1.77,3.96-1.57,4.5.32.87,2.02,1.41,3.98,2.04,1.56.5,3.33,1.07,5.18,2,2.39,1.19,6.46,3.68,9.77,6.32,4.41,3.52,6.26,6.28,5.66,8.45-.58,2.07-3.1,3.07-7.86,3.07Z"/>
      <path class="cls-29" d="M173.35,541.22l21.91,6.41c1.63.43,3.35.2,4.82-.63l47.46-24.84c1.99-1.13,3.22-3.22,3.26-5.5.15-10.99.5-43.09-.65-48.69-.88-4.3-16.9-11.34-29.27-8.96-12.37,2.38-41.14,15.3-44.47,16.72s-7.85,7.61-7.85,14.27v44.99c0,2.93,1.97,5.48,4.8,6.23Z"/>
      <path class="cls-3" d="M197.89,498.5c-.8,3.21-.68,41.01-.72,42.03,0,0,1.57-33.86.72-42.03Z"/>
      <path class="cls-3" d="M195.81,490c-1.16-1.25-18.36-5.75-18.81-5.92,0,0,14.78,5.84,18.81,5.92Z"/>
      <path class="cls-3" d="M215.08,486.32c2.49-.21,15.7-4.93,26.54-10.2,3.78-1.84,5.91-3.87,6.14-3.94,0,0-2.97,1.5-6.8,3.4-10.31,5.12-20.44,8.25-25.88,10.74Z"/>
      <path class="cls-23" d="M183.49,493.66c.46.28-.31,8.96-.36,19.46-.05,11.56.55,25.04-.4,25.44,0,0-1.33-42.99.75-44.91Z"/>
      <path class="cls-23" d="M186.61,498.98c.11-.84-.74-1.65-1.89-1.83h0s-3.36-.43-3.36-.43c-1.21-.15-2.28.43-2.39,1.3s.78,1.7,1.99,1.85c0,0,.01,0,.02,0l3.23.41s.01,0,.02,0,.01,0,.02,0h.08s0,0,0,0c1.17.11,2.18-.46,2.29-1.3Z"/>
      <path class="cls-44" d="M187,479.67c2.84.12,33.37-12.54,34.32-13.25s2.48-3.43.83-3.19-22.13,8.4-22.96,8.76-14.55,4.73-15.26,5.68c-.71.95,3.08,2.01,3.08,2.01Z"/>
      <path class="cls-44" d="M200.1,482.26c2.84.12,33.37-12.54,34.32-13.25s2.48-3.43.83-3.19c-1.66.24-22.13,8.4-22.96,8.76s-14.55,4.73-15.26,5.68,3.08,2.01,3.08,2.01Z"/>
      <path class="cls-44" d="M227.75,545.85s.14,2.95.79,5.29c.65,2.34,2.48,4.7,2.48,4.7,0,0,6.26-2.15,7-4.01s-1.77-7.19-2.8-7.56-7.47,1.59-7.47,1.59Z"/>
    </g>
    <rect class="cls-2" width="1007.81" height="1152.02"/>
  </g>
</svg>